<?xml version="1.0" encoding="UTF-8" standalone="no"?>
<!-- Generator: Adobe Illustrator 19.0.0, SVG Export Plug-In . SVG Version: 6.00 Build 0)  -->

<svg
   version="1.1"
   id="Layer_1"
   x="0px"
   y="0px"
   viewBox="0 0 511.999 511.999"
   style="enable-background:new 0 0 511.999 511.999;"
   xml:space="preserve"
   xmlns="http://www.w3.org/2000/svg"
   xmlns:svg="http://www.w3.org/2000/svg"><defs
   id="defs122" />
<g
   id="g83">
	<path
   style="display:inline;fill:#1689e6;fill-opacity:1"
   d="M 294.84,99.483 383.118,99.476 290.479,21.731 C 271.516,5.816 249.071,11.829 240.603,35.091 L 106.901,402.345 v 56.264 h 298.198 v -56.264 z"
   id="path79" />
	<path
   style="display:inline;fill:#178ae8;fill-opacity:1"
   d="m 256,499.169 c -93.591,0 -181.581,-36.447 -247.761,-102.626 -10.986,-10.986 -10.986,-28.798 0,-39.784 10.987,-10.986 28.798,-10.986 39.784,0 114.679,114.678 301.272,114.678 415.952,0 10.987,-10.986 28.798,-10.986 39.784,0 10.986,10.986 10.986,28.798 0,39.784 C 437.581,462.723 349.592,499.169 256,499.169 Z"
   id="path81" />
</g>
<path
   style="display:inline;fill:#142e43;fill-opacity:1"
   d="M 414.878,396.315 378.875,297.42 c -33.366,27.614 -76.181,44.211 -122.875,44.211 -46.694,0 -89.51,-16.598 -122.876,-44.211 L 97.12,396.315 c 96.419,61.908 221.341,61.908 317.758,0 z"
   id="path85" />
<path
   style="display:inline;fill:#1737c5;fill-opacity:1"
   d="m 182.443,433.471 c 48.192,12.366 98.922,12.366 147.114,0 6.89,-12.226 10.839,-26.329 10.839,-41.363 0,-46.61 -37.786,-84.396 -84.396,-84.396 -46.61,0 -84.396,37.786 -84.396,84.396 10e-4,15.034 3.949,29.138 10.839,41.363 z m 73.557,-92 c 27.966,0 50.637,22.671 50.637,50.637 0,27.966 -22.671,50.637 -50.637,50.637 -27.966,0 -50.637,-22.671 -50.637,-50.637 0,-27.966 22.671,-50.637 50.637,-50.637 z"
   id="path87" />















</svg>
