<?xml version="1.0" encoding="UTF-8" standalone="no"?>
<!-- Generator: Adobe Illustrator 19.0.0, SVG Export Plug-In . SVG Version: 6.00 Build 0)  -->

<svg
   version="1.1"
   id="Layer_1"
   x="0px"
   y="0px"
   viewBox="0 0 512.001 512.001"
   style="enable-background:new 0 0 512.001 512.001;"
   xml:space="preserve"
   xmlns="http://www.w3.org/2000/svg"
   xmlns:svg="http://www.w3.org/2000/svg"><defs
   id="defs142" />
<path
   style="display:inline;fill:#559fdc;fill-opacity:1"
   d="m 51.882,465.94 97.493,-276.901 187.894,-178.045 139.59,99.54 c 4.701,3.353 1.366,10.735 -4.258,9.423 L 356.765,92.926 335.494,252.065 388.671,465.923 Z"
   id="path89" />
<path
   style="display:inline;fill:#84b7e1;fill-opacity:1"
   d="M 279.809,91.848 346.385,17.512 337.269,10.993 149.376,189.038 51.89,465.94 h 18.652 l 39.209,-111.783 c 35.053,-99.7 93.347,-189.616 170.058,-262.309 z"
   id="path91" />
<path
   style="display:inline;fill:#215987;fill-opacity:1"
   d="m 477.048,110.669 c 0,0 -88.142,-62.82 -101.742,-72.548 -7.072,-5.06 -24.425,-1.046 -33.211,9.205 -23.797,27.764 -27.51,120.745 -27.321,138.11 0.019,1.728 0.246,3.388 0.69,5.057 l 15.966,60.046 C 353.613,475.804 56.107,453.817 56.107,453.817 c -0.01,0 -1.936,5.492 -4.236,12.122 l -18.897,0.41 c -10.442,0 -18.908,8.465 -18.908,18.908 0,10.443 8.465,18.908 18.908,18.908 h 378.15 c 10.442,0 18.908,-8.465 18.908,-18.908 0,-10.443 -8.465,-18.908 -18.908,-18.908 h -21.54 c -4.393,-15.672 -4.593,-15.627 -7.257,-26.311 L 336.44,255.871 c -0.626,-2.514 -0.772,-5.124 -0.428,-7.692 l 17.753,-132.815 c 1.607,-12.025 13.228,-20.05 25.045,-17.292 l 94.016,21.941 c 5.576,1.299 8.883,-6.02 4.222,-9.344 z"
   id="path93" />
<polygon
   style="display:inline;fill:#e0e2e3;fill-opacity:1"
   points="98.411,333.997 355.916,334.032 365.73,373.412 84.429,373.534 "
   id="polygon95" />
<path
   style="display:inline;fill:#d7d9da;fill-opacity:1"
   d="m 365.73,373.412 -9.822,-39.415 -33.19,0.021 c -5.285,14.883 -13.065,27.982 -21.816,39.436 z"
   id="path97" />
<rect
   x="165.33"
   y="296.189"
   style="display:inline;fill:#2ea1ff;fill-opacity:1"
   width="113.449"
   height="113.449"
   id="rect99" />
<g
   id="g107">
	<path
   style="fill:#001c33;fill-opacity:1"
   d="M274.914,455.357c-5.201,0-9.414,4.215-9.414,9.414s4.214,9.414,9.414,9.414h8.265   c5.201,0,9.414-4.215,9.414-9.414s-4.214-9.414-9.414-9.414H274.914z"
   id="path101" />
	<path
   style="display:inline;fill:#001c33;fill-opacity:1"
   d="M 503.72,116.773 342.415,1.75 c -3.67,-2.616 -8.674,-2.267 -11.942,0.832 L 142.58,180.627 c -1.086,1.028 -1.91,2.301 -2.406,3.711 l -5.143,14.625 c -1.725,4.906 0.854,10.279 5.759,12.004 4.903,1.727 10.279,-0.854 12.004,-5.758 l 4.388,-12.478 180.614,-171.149 116.202,82.863 -86.962,-20.294 2.758,-19.75 c 0.719,-5.149 -2.872,-9.906 -8.022,-10.626 -5.143,-0.721 -9.908,2.872 -10.626,8.022 l -19.955,147.433 -7.682,-25.474 c -1.501,-4.978 -6.756,-7.799 -11.732,-6.295 -4.978,1.501 -7.798,6.753 -6.296,11.732 l 27.151,90.034 10.907,43.777 h -55.672 v -28.4 c 0,-5.199 -4.214,-9.414 -9.414,-9.414 H 165.008 c -5.201,0 -9.414,4.215 -9.414,9.414 v 28.4 h -44.212 l 4.098,-11.658 c 1.725,-4.906 -0.854,-10.279 -5.759,-12.004 -4.904,-1.725 -10.279,0.854 -12.004,5.759 l -8.504,24.191 c 0,0.001 -10e-4,0.003 -10e-4,0.003 L 75.917,367.11 v 10e-4 L 44.894,455.356 H 32.655 c -15.617,0 -28.322,12.706 -28.322,28.322 0,15.617 12.706,28.322 28.322,28.322 h 378.15 c 15.617,0 28.322,-12.706 28.322,-28.322 0,-15.617 -12.706,-28.322 -28.322,-28.322 h -14.883 l -6.653,-26.704 c -1.258,-5.045 -6.365,-8.114 -11.413,-6.857 -5.045,1.258 -8.115,6.367 -6.857,11.413 l 5.519,22.149 h -48.406 c -5.201,0 -9.414,4.215 -9.414,9.414 0,5.199 4.214,9.414 9.414,9.414 h 82.693 c 5.236,0 9.493,4.258 9.493,9.493 0,5.234 -4.259,9.493 -9.493,9.493 H 32.656 c -5.236,0 -9.493,-4.259 -9.493,-9.493 0,-5.236 4.259,-9.493 9.493,-9.493 h 18.85 c 0.019,0 0.038,0.003 0.056,0.003 0.01,0 0.02,-0.003 0.03,-0.003 h 170.137 c 5.201,0 9.414,-4.215 9.414,-9.414 0,-5.199 -4.214,-9.414 -9.414,-9.414 H 64.851 l 26.603,-75.671 64.139,0.365 v 27.997 c 0,5.199 4.214,9.414 9.414,9.414 h 113.444 c 5.201,0 9.414,-4.215 9.414,-9.414 v -27.243 l 70.176,0.4 0.761,3.053 c 1.067,4.282 4.906,7.141 9.127,7.141 0.754,0 1.52,-0.092 2.283,-0.282 5.045,-1.257 8.116,-6.365 6.859,-11.41 l -2.517,-10.099 c -10e-4,-0.008 -0.003,-0.015 -0.004,-0.023 l -9.687,-39.415 c -0.129,-0.527 -0.303,-1.034 -0.513,-1.52 l -19.608,-78.699 19.286,-144.275 0.392,-2.803 131.693,30.732 c 4.376,1.022 8.866,-1.196 10.719,-5.292 1.852,-4.095 0.548,-8.929 -3.112,-11.54 z m -348.126,244.449 -57.533,-0.328 6.702,-19.062 h 50.831 c 0,0 0,19.39 0,19.39 z m 113.444,-38.219 v 18.829 20.036 18.829 17.936 H 174.422 V 380.158 361.33 341.833 323.004 304.018 h 94.616 z m 79.195,18.829 5.111,20.517 -65.478,-0.373 v -20.144 z"
   id="path103" />
	<path
   style="fill:#001c32;fill-opacity:1"
   d="M123.768,259.391c1.033,0.363,2.085,0.535,3.121,0.535c3.885,0,7.521-2.424,8.882-6.296l1.959-5.576   c1.723-4.906-0.857-10.279-5.762-12.003c-4.909-1.721-10.281,0.856-12.004,5.762l-1.959,5.576   C116.285,252.294,118.864,257.668,123.768,259.391z"
   id="path105" />
</g>















</svg>
