<?xml version="1.0" encoding="UTF-8" standalone="no"?>
<!-- Generated by graphviz version 2.43.0 (0)
 -->

<!-- Title: CudaCompilation Pages: 1 -->

<svg
   width="238.5pt"
   height="252.75pt"
   viewBox="0 0 238.5 252.75"
   version="1.1"
   id="svg16"
   sodipodi:docname="cuda_comp.svg"
   inkscape:version="1.3.1 (9b9bdc1480, 2023-11-25, custom)"
   xmlns:inkscape="http://www.inkscape.org/namespaces/inkscape"
   xmlns:sodipodi="http://sodipodi.sourceforge.net/DTD/sodipodi-0.dtd"
   xmlns="http://www.w3.org/2000/svg"
   xmlns:svg="http://www.w3.org/2000/svg">
  <defs
     id="defs16" />
  <sodipodi:namedview
     id="namedview16"
     pagecolor="#ffffff"
     bordercolor="#000000"
     borderopacity="0.25"
     inkscape:showpageshadow="2"
     inkscape:pageopacity="0.0"
     inkscape:pagecheckerboard="0"
     inkscape:deskcolor="#d1d1d1"
     inkscape:document-units="pt"
     showgrid="false"
     inkscape:zoom="1.8694362"
     inkscape:cx="211.82857"
     inkscape:cy="225.20159"
     inkscape:window-width="1850"
     inkscape:window-height="1016"
     inkscape:window-x="70"
     inkscape:window-y="27"
     inkscape:window-maximized="1"
     inkscape:current-layer="svg16" />
  <g
     id="graph0"
     class="graph"
     transform="matrix(0.75,0,0,0.75,3,249.75)">
    <title
       id="title1">CudaCompilation</title>
    <path
       id="polygon1"
       style="fill:#ffffff"
       d="M -4,4 V -333 H 314 V 4 Z" />
    <!-- rdc -->
    <g
       id="node1"
       class="node">
      <title
         id="title2">rdc</title>
      <path
         id="polygon2"
         style="fill:#b0e2ff;stroke:#b0e2ff"
         d="m 34.5,-292.5 v -36 h 65 v 36 z" />
      <path
         d="m 46.784061,-316.10001 0.256,3.096 -2.856,-1.2 -0.624,1.92 3.024,0.712 -2.024,2.36 1.624,1.176 1.616,-2.64 1.616,2.64 1.624,-1.176 -2.024,-2.36 3.024,-0.712 -0.624,-1.92 -2.856,1.2 0.256,-3.096 z m 8.959976,7.984 q 0,-0.448 0.216,-0.824 0.224,-0.376 0.6,-0.6 0.376,-0.224 0.832,-0.224 0.464,0 0.84,0.224 0.376,0.224 0.592,0.6 0.224,0.376 0.224,0.824 0,0.448 -0.224,0.832 -0.216,0.376 -0.592,0.6 -0.376,0.224 -0.84,0.224 -0.456,0 -0.832,-0.224 -0.376,-0.224 -0.6,-0.6 -0.216,-0.384 -0.216,-0.832 z m 7.823975,1.416 v -1.464 h 1.192 v -5.552 h -1.192 v -1.456 h 2.8 l 0.392,1.944 q 0.464,-1.08 1.168,-1.624 0.704,-0.552 1.768,-0.552 0.408,0 0.72,0.064 0.32,0.064 0.608,0.168 l -0.632,1.776 q -0.248,-0.064 -0.472,-0.096 -0.224,-0.04 -0.504,-0.04 -0.88,0 -1.536,0.688 -0.648,0.68 -1.008,1.848 v 2.832 h 1.688 v 1.464 z m 5.672,-5.168 v -2.248 l 0.288,-1.056 h 1.496 l -0.376,3.304 z m 8.759976,-6.912 2.112,0.224 v 11.856 h -1.872 l -0.128,-1 q -0.392,0.56 -0.984,0.904 -0.592,0.336 -1.376,0.336 -1.072,0 -1.776,-0.56 -0.696,-0.56 -1.04,-1.568 -0.336,-1.016 -0.336,-2.36 0,-1.296 0.4,-2.304 0.4,-1.008 1.152,-1.584 0.76,-0.576 1.8,-0.576 0.624,0 1.136,0.216 0.512,0.216 0.912,0.64 z m -1.48,4.944 q -0.8,0 -1.264,0.696 -0.456,0.688 -0.456,2.2 0,1.064 0.192,1.704 0.192,0.632 0.544,0.912 0.352,0.28 0.832,0.28 0.528,0 0.928,-0.312 0.408,-0.32 0.704,-0.792 v -3.856 q -0.296,-0.392 -0.664,-0.608 -0.36,-0.224 -0.816,-0.224 z m 10.431975,5.68 q 0.56,0 1.048,-0.208 0.496,-0.208 0.952,-0.528 l 0.96,1.352 q -0.56,0.472 -1.352,0.776 -0.792,0.304 -1.696,0.304 -1.328,0 -2.28,-0.552 -0.944,-0.56 -1.456,-1.552 -0.504,-1 -0.504,-2.32 0,-1.304 0.512,-2.328 0.52,-1.032 1.472,-1.616 0.96,-0.584 2.288,-0.584 0.912,0 1.648,0.264 0.744,0.256 1.36,0.768 l -0.936,1.296 q -0.472,-0.328 -0.976,-0.496 -0.496,-0.176 -1.032,-0.176 -0.936,0 -1.528,0.68 -0.584,0.672 -0.584,2.192 0,1 0.272,1.6 0.28,0.6 0.752,0.864 0.48,0.264 1.08,0.264 z"
         id="text2"
         style="font-size:16px;font-family:'Fira Code SemiBold';text-anchor:middle"
         aria-label="*.rdc" />
    </g>
    <!-- obj1 -->
    <g
       id="node3"
       class="node">
      <title
         id="title3">obj1</title>
      <path
         id="polygon3"
         style="fill:#63b8ff;stroke:#63b8ff"
         d="m 0,-219.5 v -36 h 134 v 36 z" />
      <path
         d="m 13.184146,-243.1 0.256,3.096 -2.856,-1.2 -0.6239995,1.92 3.0239995,0.712 -2.024,2.36 1.624,1.176 1.616,-2.64 1.616,2.64 1.624,-1.176 -2.024,-2.36 3.024,-0.712 -0.624,-1.92 -2.856,1.2 0.256,-3.096 z m 8.959976,7.984 q 0,-0.448 0.216,-0.824 0.224,-0.376 0.6,-0.6 0.376,-0.224 0.832,-0.224 0.464,0 0.84,0.224 0.376,0.224 0.592,0.6 0.224,0.376 0.224,0.824 0,0.448 -0.224,0.832 -0.216,0.376 -0.592,0.6 -0.376,0.224 -0.84,0.224 -0.456,0 -0.832,-0.224 -0.376,-0.224 -0.6,-0.6 -0.216,-0.384 -0.216,-0.832 z m 11.263976,-7.296 q 1.264,0 2.144,0.552 0.88,0.552 1.336,1.56 0.464,1 0.464,2.344 0,1.376 -0.464,2.384 -0.464,1.008 -1.344,1.56 -0.88,0.552 -2.144,0.552 -1.256,0 -2.144,-0.536 -0.88,-0.544 -1.344,-1.544 -0.464,-1.008 -0.464,-2.4 0,-1.328 0.464,-2.336 0.464,-1.008 1.352,-1.568 0.888,-0.568 2.144,-0.568 z m 0,1.592 q -0.888,0 -1.328,0.696 -0.432,0.696 -0.432,2.184 0,1.504 0.432,2.2 0.432,0.688 1.32,0.688 0.888,0 1.32,-0.688 0.432,-0.696 0.432,-2.216 0,-1.48 -0.432,-2.168 -0.432,-0.696 -1.312,-0.696 z m 19.199951,-1.592 q 1.264,0 2.144,0.552 0.88,0.552 1.336,1.56 0.464,1 0.464,2.344 0,1.376 -0.464,2.384 -0.464,1.008 -1.344,1.56 -0.88,0.552 -2.144,0.552 -1.256,0 -2.144,-0.536 -0.88,-0.544 -1.344,-1.544 -0.464,-1.008 -0.464,-2.4 0,-1.328 0.464,-2.336 0.464,-1.008 1.352,-1.568 0.888,-0.568 2.144,-0.568 z m 0,1.592 q -0.888,0 -1.328,0.696 -0.432,0.696 -0.432,2.184 0,1.504 0.432,2.2 0.432,0.688 1.32,0.688 0.888,0 1.32,-0.688 0.432,-0.696 0.432,-2.216 0,-1.48 -0.432,-2.168 -0.432,-0.696 -1.312,-0.696 z m 6.159975,7.12 v -1.464 h 1.192 v -5.552 h -1.192 v -1.456 h 2.8 l 0.392,1.944 q 0.464,-1.08 1.168,-1.624 0.704,-0.552 1.768,-0.552 0.408,0 0.72,0.064 0.32,0.064 0.608,0.168 l -0.632,1.776 q -0.248,-0.064 -0.472,-0.096 -0.224,-0.04 -0.504,-0.04 -0.88,0 -1.536,0.688 -0.648,0.68 -1.008,1.848 v 2.832 h 1.688 v 1.464 z m 5.672,-5.168 v -2.248 l 0.288,-1.056 h 1.496 l -0.376,3.304 z m 15.943952,-4.232 0.256,3.096 -2.856,-1.2 -0.624,1.92 3.024,0.712 -2.024,2.36 1.624,1.176 1.616,-2.64 1.616,2.64 1.624,-1.176 -2.024,-2.36 3.024,-0.712 -0.624,-1.92 -2.856,1.2 0.256,-3.096 z m 8.959975,7.984 q 0,-0.448 0.216,-0.824 0.224,-0.376 0.6,-0.6 0.376,-0.224 0.832,-0.224 0.464,0 0.84,0.224 0.376,0.224 0.592,0.6 0.224,0.376 0.224,0.824 0,0.448 -0.224,0.832 -0.216,0.376 -0.592,0.6 -0.376,0.224 -0.84,0.224 -0.456,0 -0.832,-0.224 -0.376,-0.224 -0.6,-0.6 -0.216,-0.384 -0.216,-0.832 z m 11.263979,-7.296 q 1.264,0 2.144,0.552 0.88,0.552 1.336,1.56 0.464,1 0.464,2.344 0,1.376 -0.464,2.384 -0.464,1.008 -1.344,1.56 -0.88,0.552 -2.144,0.552 -1.256003,0 -2.144003,-0.536 -0.88,-0.544 -1.344,-1.544 -0.464,-1.008 -0.464,-2.4 0,-1.328 0.464,-2.336 0.464,-1.008 1.352,-1.568 0.888,-0.568 2.144003,-0.568 z m 0,1.592 q -0.888003,0 -1.328003,0.696 -0.432,0.696 -0.432,2.184 0,1.504 0.432,2.2 0.432,0.688 1.320003,0.688 0.888,0 1.32,-0.688 0.432,-0.696 0.432,-2.216 0,-1.48 -0.432,-2.168 -0.432,-0.696 -1.312,-0.696 z m 8.19197,-0.4 q 0.424,-0.56 1,-0.872 0.584,-0.32 1.256,-0.32 1.112,0 1.8,0.552 0.696,0.544 1.016,1.544 0.328,1 0.328,2.36 0,1.304 -0.384,2.32 -0.384,1.016 -1.144,1.6 -0.752,0.576 -1.848,0.576 -1.376,0 -2.168,-1.048 l -0.096,0.808 h -1.872 v -11.856 l 2.112,-0.224 z m 1.48,6.184 q 0.808,0 1.264,-0.688 0.456,-0.688 0.456,-2.208 0,-1.072 -0.192,-1.704 -0.184,-0.64 -0.536,-0.912 -0.344,-0.28 -0.832,-0.28 -0.528,0 -0.936,0.32 -0.4,0.32 -0.704,0.792 v 3.792 q 0.272,0.424 0.64,0.656 0.368,0.232 0.84,0.232 z m 12.12798,-7.136 v 6.4 q 0,1.688 -0.672,2.792 -0.664,1.104 -1.96,1.76 -1.296,0.656 -3.176,1.008 l -0.344,-1.616 q 1.28,-0.264 2.176,-0.696 0.904,-0.432 1.384,-1.176 0.48,-0.744 0.48,-1.936 v -5.04 h -3.216 v -1.496 z m -1.504,-4.272 q 0.576,0 0.944,0.36 0.368,0.36 0.368,0.896 0,0.536 -0.368,0.904 -0.368,0.36 -0.944,0.36 -0.584,0 -0.952,-0.36 -0.368,-0.368 -0.368,-0.904 0,-0.536 0.368,-0.896 0.368,-0.36 0.952,-0.36 z"
         id="text3"
         style="font-size:16px;font-family:'Fira Code SemiBold';text-anchor:middle"
         aria-label="*.o or *.obj" />
    </g>
    <!-- rdc&#45;&gt;obj1 -->
    <g
       id="edge1"
       class="edge">
      <title
         id="title4">rdc-&gt;obj1</title>
      <path
         fill="none"
         stroke="#696969"
         d="m 67,-292.31 c 0,8.02 0,17.76 0,26.74"
         id="path4" />
      <path
         id="polygon4"
         style="fill:#696969;stroke:#696969"
         d="m 67,-255.53 -3.5,-10 h 7 z" />
    </g>
    <!-- glb -->
    <g
       id="node2"
       class="node">
      <title
         id="title5">glb</title>
      <path
         id="polygon5"
         style="fill:#b0e2ff;stroke:#b0e2ff"
         d="m 210.5,-292.5 v -36 h 65 v 36 z" />
      <path
         d="m 222.78406,-316.10001 0.256,3.096 -2.856,-1.2 -0.624,1.92 3.024,0.712 -2.024,2.36 1.624,1.176 1.616,-2.64 1.616,2.64 1.624,-1.176 -2.024,-2.36 3.024,-0.712 -0.624,-1.92 -2.856,1.2 0.256,-3.096 z m 8.95998,7.984 q 0,-0.448 0.216,-0.824 0.224,-0.376 0.6,-0.6 0.376,-0.224 0.832,-0.224 0.464,0 0.84,0.224 0.376,0.224 0.592,0.6 0.224,0.376 0.224,0.824 0,0.448 -0.224,0.832 -0.216,0.376 -0.592,0.6 -0.376,0.224 -0.84,0.224 -0.456,0 -0.832,-0.224 -0.376,-0.224 -0.6,-0.6 -0.216,-0.384 -0.216,-0.832 z m 15.04797,-8.248 0.528,1.648 q -0.48,0.168 -1.08,0.24 -0.6,0.064 -1.376,0.064 0.776,0.336 1.176,0.856 0.408,0.512 0.408,1.304 0,0.824 -0.424,1.472 -0.416,0.648 -1.192,1.016 -0.768,0.368 -1.832,0.368 -0.328,0 -0.584,-0.032 -0.256,-0.032 -0.496,-0.088 -0.16,0.088 -0.248,0.256 -0.088,0.168 -0.088,0.344 0,0.24 0.184,0.416 0.192,0.168 0.816,0.168 h 1.44 q 0.936,0 1.64,0.32 0.712,0.312 1.104,0.848 0.4,0.536 0.4,1.232 0,1.28 -1.112,2 -1.112,0.72 -3.248,0.72 -1.528,0 -2.384,-0.312 -0.848,-0.312 -1.192,-0.912 -0.344,-0.592 -0.344,-1.432 h 1.88 q 0,0.408 0.16,0.672 0.168,0.264 0.616,0.392 0.456,0.128 1.304,0.128 0.848,0 1.328,-0.136 0.488,-0.136 0.688,-0.392 0.2,-0.248 0.2,-0.584 0,-0.456 -0.384,-0.712 -0.384,-0.256 -1.088,-0.256 h -1.4 q -1.28,0 -1.864,-0.496 -0.584,-0.504 -0.584,-1.16 0,-0.448 0.24,-0.856 0.248,-0.416 0.704,-0.704 -0.784,-0.416 -1.136,-0.992 -0.344,-0.584 -0.344,-1.408 0,-0.92 0.464,-1.6 0.464,-0.68 1.288,-1.056 0.824,-0.376 1.896,-0.376 0.984,0.008 1.672,-0.12 0.696,-0.128 1.224,-0.352 0.536,-0.224 1.04,-0.488 z m -3.896,2.368 q -0.752,0 -1.152,0.44 -0.392,0.44 -0.392,1.168 0,0.752 0.408,1.192 0.408,0.44 1.144,0.44 0.728,0 1.104,-0.424 0.384,-0.432 0.384,-1.232 0,-0.8 -0.384,-1.192 -0.376,-0.392 -1.112,-0.392 z m 10.22398,-4.56 v 9.392 q 0,0.552 0.32,0.784 0.328,0.232 0.88,0.232 0.344,0 0.664,-0.072 0.32,-0.08 0.608,-0.192 l 0.52,1.44 q -0.4,0.2 -0.976,0.352 -0.568,0.16 -1.32,0.16 -1.384,0 -2.096,-0.792 -0.712,-0.792 -0.712,-2.136 v -7.672 h -2.536 v -1.496 z m 7.67997,4.336 q 0.424,-0.56 1,-0.872 0.584,-0.32 1.256,-0.32 1.112,0 1.8,0.552 0.696,0.544 1.016,1.544 0.328,1 0.328,2.36 0,1.304 -0.384,2.32 -0.384,1.016 -1.144,1.6 -0.752,0.576 -1.848,0.576 -1.376,0 -2.168,-1.048 l -0.096,0.808 h -1.872 v -11.856 l 2.112,-0.224 z m 1.48,6.184 q 0.808,0 1.264,-0.688 0.456,-0.688 0.456,-2.208 0,-1.072 -0.192,-1.704 -0.184,-0.64 -0.536,-0.912 -0.344,-0.28 -0.832,-0.28 -0.528,0 -0.936,0.32 -0.4,0.32 -0.704,0.792 v 3.792 q 0.272,0.424 0.64,0.656 0.368,0.232 0.84,0.232 z"
         id="text5"
         style="font-size:16px;font-family:'Fira Code SemiBold';text-anchor:middle"
         aria-label="*.glb" />
    </g>
    <!-- obj2 -->
    <g
       id="node4"
       class="node">
      <title
         id="title6">obj2</title>
      <path
         id="polygon6"
         style="fill:#63b8ff;stroke:#63b8ff"
         d="m 176,-146.5 v -36 h 134 v 36 z" />
      <path
         d="m 189.18415,-170.1 0.256,3.096 -2.856,-1.2 -0.624,1.92 3.024,0.712 -2.024,2.36 1.624,1.176 1.616,-2.64 1.616,2.64 1.624,-1.176 -2.024,-2.36 3.024,-0.712 -0.624,-1.92 -2.856,1.2 0.256,-3.096 z m 8.95997,7.984 q 0,-0.448 0.216,-0.824 0.224,-0.376 0.6,-0.6 0.376,-0.224 0.832,-0.224 0.464,0 0.84,0.224 0.376,0.224 0.592,0.6 0.224,0.376 0.224,0.824 0,0.448 -0.224,0.832 -0.216,0.376 -0.592,0.6 -0.376,0.224 -0.84,0.224 -0.456,0 -0.832,-0.224 -0.376,-0.224 -0.6,-0.6 -0.216,-0.384 -0.216,-0.832 z m 11.26398,-7.296 q 1.264,0 2.144,0.552 0.88,0.552 1.336,1.56 0.464,1 0.464,2.344 0,1.376 -0.464,2.384 -0.464,1.008 -1.344,1.56 -0.88,0.552 -2.144,0.552 -1.256,0 -2.144,-0.536 -0.88,-0.544 -1.344,-1.544 -0.464,-1.008 -0.464,-2.4 0,-1.328 0.464,-2.336 0.464,-1.008 1.352,-1.568 0.888,-0.568 2.144,-0.568 z m 0,1.592 q -0.888,0 -1.328,0.696 -0.432,0.696 -0.432,2.184 0,1.504 0.432,2.2 0.432,0.688 1.32,0.688 0.888,0 1.32,-0.688 0.432,-0.696 0.432,-2.216 0,-1.48 -0.432,-2.168 -0.432,-0.696 -1.312,-0.696 z m 19.19995,-1.592 q 1.264,0 2.144,0.552 0.88,0.552 1.336,1.56 0.464,1 0.464,2.344 0,1.376 -0.464,2.384 -0.464,1.008 -1.344,1.56 -0.88,0.552 -2.144,0.552 -1.256,0 -2.144,-0.536 -0.88,-0.544 -1.344,-1.544 -0.464,-1.008 -0.464,-2.4 0,-1.328 0.464,-2.336 0.464,-1.008 1.352,-1.568 0.888,-0.568 2.144,-0.568 z m 0,1.592 q -0.888,0 -1.328,0.696 -0.432,0.696 -0.432,2.184 0,1.504 0.432,2.2 0.432,0.688 1.32,0.688 0.888,0 1.32,-0.688 0.432,-0.696 0.432,-2.216 0,-1.48 -0.432,-2.168 -0.432,-0.696 -1.312,-0.696 z m 6.15997,7.12 v -1.464 h 1.192 v -5.552 h -1.192 v -1.456 h 2.8 l 0.392,1.944 q 0.464,-1.08 1.168,-1.624 0.704,-0.552 1.768,-0.552 0.408,0 0.72,0.064 0.32,0.064 0.608,0.168 l -0.632,1.776 q -0.248,-0.064 -0.472,-0.096 -0.224,-0.04 -0.504,-0.04 -0.88,0 -1.536,0.688 -0.648,0.68 -1.008,1.848 v 2.832 h 1.688 v 1.464 z m 5.672,-5.168 v -2.248 l 0.288,-1.056 h 1.496 l -0.376,3.304 z m 15.94396,-4.232 0.256,3.096 -2.856,-1.2 -0.624,1.92 3.024,0.712 -2.024,2.36 1.624,1.176 1.616,-2.64 1.616,2.64 1.624,-1.176 -2.024,-2.36 3.024,-0.712 -0.624,-1.92 -2.856,1.2 0.256,-3.096 z m 8.95997,7.984 q 0,-0.448 0.216,-0.824 0.224,-0.376 0.6,-0.6 0.376,-0.224 0.832,-0.224 0.464,0 0.84,0.224 0.376,0.224 0.592,0.6 0.224,0.376 0.224,0.824 0,0.448 -0.224,0.832 -0.216,0.376 -0.592,0.6 -0.376,0.224 -0.84,0.224 -0.456,0 -0.832,-0.224 -0.376,-0.224 -0.6,-0.6 -0.216,-0.384 -0.216,-0.832 z m 11.26398,-7.296 q 1.264,0 2.144,0.552 0.88,0.552 1.336,1.56 0.464,1 0.464,2.344 0,1.376 -0.464,2.384 -0.464,1.008 -1.344,1.56 -0.88,0.552 -2.144,0.552 -1.256,0 -2.144,-0.536 -0.88,-0.544 -1.344,-1.544 -0.464,-1.008 -0.464,-2.4 0,-1.328 0.464,-2.336 0.464,-1.008 1.352,-1.568 0.888,-0.568 2.144,-0.568 z m 0,1.592 q -0.888,0 -1.328,0.696 -0.432,0.696 -0.432,2.184 0,1.504 0.432,2.2 0.432,0.688 1.32,0.688 0.888,0 1.32,-0.688 0.432,-0.696 0.432,-2.216 0,-1.48 -0.432,-2.168 -0.432,-0.696 -1.312,-0.696 z m 8.19197,-0.4 q 0.424,-0.56 1,-0.872 0.584,-0.32 1.256,-0.32 1.112,0 1.8,0.552 0.696,0.544 1.016,1.544 0.328,1 0.328,2.36 0,1.304 -0.384,2.32 -0.384,1.016 -1.144,1.6 -0.752,0.576 -1.848,0.576 -1.376,0 -2.168,-1.048 l -0.096,0.808 h -1.872 v -11.856 l 2.112,-0.224 z m 1.48,6.184 q 0.808,0 1.264,-0.688 0.456,-0.688 0.456,-2.208 0,-1.072 -0.192,-1.704 -0.184,-0.64 -0.536,-0.912 -0.344,-0.28 -0.832,-0.28 -0.528,0 -0.936,0.32 -0.4,0.32 -0.704,0.792 v 3.792 q 0.272,0.424 0.64,0.656 0.368,0.232 0.84,0.232 z m 12.12798,-7.136 v 6.4 q 0,1.688 -0.672,2.792 -0.664,1.104 -1.96,1.76 -1.296,0.656 -3.176,1.008 l -0.344,-1.616 q 1.28,-0.264 2.176,-0.696 0.904,-0.432 1.384,-1.176 0.48,-0.744 0.48,-1.936 v -5.04 h -3.216 v -1.496 z m -1.504,-4.272 q 0.576,0 0.944,0.36 0.368,0.36 0.368,0.896 0,0.536 -0.368,0.904 -0.368,0.36 -0.944,0.36 -0.584,0 -0.952,-0.36 -0.368,-0.368 -0.368,-0.904 0,-0.536 0.368,-0.896 0.368,-0.36 0.952,-0.36 z"
         id="text6"
         style="font-size:16px;font-family:'Fira Code SemiBold';text-anchor:middle"
         aria-label="*.o or *.obj" />
    </g>
    <!-- glb&#45;&gt;obj2 -->
    <g
       id="edge2"
       class="edge">
      <title
         id="title7">glb-&gt;obj2</title>
      <path
         fill="none"
         stroke="#696969"
         d="m 243,-292.42 c 0,24.58 0,70.17 0,99.49"
         id="path7" />
      <path
         id="polygon7"
         style="fill:#696969;stroke:#696969"
         d="m 243,-182.56 -3.5,-10 h 7 z" />
    </g>
    <!-- libmerlinrdc -->
    <g
       id="node6"
       class="node">
      <title
         id="title8">libmerlinrdc</title>
      <path
         id="polygon8"
         style="fill:#1e90ff;stroke:#1e90ff"
         d="m 0,-146.5 v -36 h 134 v 36 z" />
      <path
         d="m 14.720146,-172.556 v 9.392 q 0,0.552 0.32,0.784 0.328,0.232 0.88,0.232 0.344,0 0.664,-0.072 0.32,-0.08 0.608,-0.192 l 0.52,1.44 q -0.4,0.2 -0.976,0.352 -0.568,0.16 -1.32,0.16 -1.384,0 -2.096,-0.792 -0.712,-0.792 -0.712,-2.136 v -7.672 h -2.536 v -1.496 z m 10.439976,3.384 v 6.976 h 2.232 v 1.496 h -6.824 v -1.496 h 2.48 v -5.48 h -2.4 v -1.496 z m -1.368,-4.272 q 0.584,0 0.944,0.36 0.368,0.36 0.368,0.896 0,0.536 -0.368,0.904 -0.36,0.36 -0.944,0.36 -0.584,0 -0.952,-0.36 -0.368,-0.368 -0.368,-0.904 0,-0.536 0.368,-0.896 0.368,-0.36 0.952,-0.36 z m 8.207976,5.224 q 0.424,-0.56 1,-0.872 0.584,-0.32 1.256,-0.32 1.112,0 1.8,0.552 0.696,0.544 1.016,1.544 0.328,1 0.328,2.36 0,1.304 -0.384,2.32 -0.384,1.016 -1.144,1.6 -0.752,0.576 -1.848,0.576 -1.376,0 -2.168,-1.048 l -0.096,0.808 h -1.872 v -11.856 l 2.112,-0.224 z m 1.48,6.184 q 0.808,0 1.264,-0.688 0.456,-0.688 0.456,-2.208 0,-1.072 -0.192,-1.704 -0.184,-0.64 -0.536,-0.912 -0.344,-0.28 -0.832,-0.28 -0.528,0 -0.936,0.32 -0.4,0.32 -0.704,0.792 v 3.792 q 0.272,0.424 0.64,0.656 0.368,0.232 0.84,0.232 z m 12.031975,-7.376 q 0.544,0 0.928,0.232 0.384,0.224 0.592,0.76 0.208,0.528 0.208,1.44 v 6.28 h -1.84 v -6.016 q 0,-0.576 -0.096,-0.816 -0.088,-0.24 -0.408,-0.24 -0.264,0 -0.536,0.16 -0.264,0.152 -0.552,0.552 v 6.36 h -1.592 v -6.016 q 0,-0.576 -0.096,-0.816 -0.088,-0.24 -0.408,-0.24 -0.272,0 -0.536,0.16 -0.264,0.152 -0.552,0.552 v 6.36 h -1.864 v -8.472 h 1.576 l 0.136,0.88 q 0.376,-0.528 0.792,-0.824 0.416,-0.296 1,-0.296 0.48,0 0.848,0.24 0.376,0.232 0.536,0.8 0.368,-0.464 0.824,-0.752 0.456,-0.288 1.04,-0.288 z m 5.375976,5.12 q 0.064,0.792 0.36,1.288 0.304,0.496 0.776,0.728 0.472,0.232 1.048,0.232 0.608,0 1.144,-0.192 0.536,-0.192 1.056,-0.536 l 0.88,1.208 q -0.592,0.496 -1.416,0.8 -0.816,0.304 -1.8,0.304 -1.376,0 -2.32,-0.568 -0.936,-0.568 -1.416,-1.576 -0.48,-1.008 -0.48,-2.32 0,-1.264 0.472,-2.28 0.472,-1.016 1.36,-1.608 0.888,-0.6 2.144,-0.6 1.168,0 2.016,0.512 0.848,0.512 1.312,1.472 0.464,0.952 0.464,2.296 0,0.216 -0.016,0.44 -0.008,0.224 -0.024,0.4 z m 1.816,-3.632 q -0.768,0 -1.264,0.552 -0.488,0.544 -0.576,1.728 h 3.568 q -0.016,-1.072 -0.448,-1.672 -0.424,-0.608 -1.28,-0.608 z m 6.063975,7.224 v -1.464 h 1.192 v -5.552 h -1.192 v -1.456 h 2.8 l 0.392,1.944 q 0.464,-1.08 1.168,-1.624 0.704,-0.552 1.768,-0.552 0.408,0 0.72,0.064 0.32,0.064 0.608,0.168 l -0.632,1.776 q -0.248,-0.064 -0.472,-0.096 -0.224,-0.04 -0.504,-0.04 -0.88,0 -1.536,0.688 -0.648,0.68 -1.008,1.848 v 2.832 h 1.688 v 1.464 z m 5.672,-5.168 v -2.248 l 0.288,-1.056 h 1.496 l -0.376,3.304 z M 72.32,-172.556 v 9.392 q 0,0.552 0.32,0.784 0.328,0.232 0.88,0.232 0.344,0 0.664,-0.072 0.32,-0.08 0.608,-0.192 l 0.52,1.44 q -0.4,0.2 -0.976,0.352 -0.568,0.16 -1.32,0.16 -1.384,0 -2.096,-0.792 -0.712,-0.792 -0.712,-2.136 v -7.672 h -2.536 v -1.496 z m 10.439976,3.384 v 6.976 h 2.232 v 1.496 h -6.824 v -1.496 h 2.48 v -5.48 h -2.4 v -1.496 z m -1.368,-4.272 q 0.584,0 0.944,0.36 0.368,0.36 0.368,0.896 0,0.536 -0.368,0.904 -0.36,0.36 -0.944,0.36 -0.584,0 -0.952,-0.36 -0.368,-0.368 -0.368,-0.904 0,-0.536 0.368,-0.896 0.368,-0.36 0.952,-0.36 z m 6.095975,12.744 v -8.472 h 1.84 l 0.152,1.048 q 0.544,-0.64 1.224,-0.96 0.68,-0.328 1.464,-0.328 1.144,0 1.744,0.664 0.6,0.656 0.6,1.848 v 6.2 h -2.112 v -5.376 q 0,-0.64 -0.08,-1.024 -0.08,-0.392 -0.304,-0.56 -0.224,-0.176 -0.648,-0.176 -0.344,0 -0.664,0.152 -0.312,0.152 -0.592,0.408 -0.272,0.256 -0.512,0.568 v 6.008 z m 9.679976,0 v -1.464 h 1.192 v -5.552 h -1.192 v -1.456 h 2.8 l 0.392003,1.944 q 0.464,-1.08 1.168,-1.624 0.704,-0.552 1.768,-0.552 0.408,0 0.72,0.064 0.32,0.064 0.608,0.168 l -0.632,1.776 q -0.248,-0.064 -0.472,-0.096 -0.224,-0.04 -0.504,-0.04 -0.88,0 -1.536,0.688 -0.648,0.68 -1.008,1.848 v 2.832 h 1.688 v 1.464 z m 5.672003,-5.168 v -2.248 l 0.288,-1.056 h 1.496 l -0.376,3.304 z m 8.75997,-6.912 2.112,0.224 v 11.856 h -1.872 l -0.128,-1 q -0.392,0.56 -0.984,0.904 -0.592,0.336 -1.376,0.336 -1.072,0 -1.776,-0.56 -0.696,-0.56 -1.04,-1.568 -0.336,-1.016 -0.336,-2.36 0,-1.296 0.4,-2.304 0.4,-1.008 1.152,-1.584 0.76,-0.576 1.8,-0.576 0.624,0 1.136,0.216 0.512,0.216 0.912,0.64 z m -1.48,4.944 q -0.8,0 -1.264,0.696 -0.456,0.688 -0.456,2.2 0,1.064 0.192,1.704 0.192,0.632 0.544,0.912 0.352,0.28 0.832,0.28 0.528,0 0.928,-0.312 0.408,-0.32 0.704,-0.792 v -3.856 q -0.296,-0.392 -0.664,-0.608 -0.36,-0.224 -0.816,-0.224 z m 10.43198,5.68 q 0.56,0 1.048,-0.208 0.496,-0.208 0.952,-0.528 l 0.96,1.352 q -0.56,0.472 -1.352,0.776 -0.792,0.304 -1.696,0.304 -1.328,0 -2.28,-0.552 -0.944,-0.56 -1.456,-1.552 -0.504,-1 -0.504,-2.32 0,-1.304 0.512,-2.328 0.52,-1.032 1.472,-1.616 0.96,-0.584 2.288,-0.584 0.912,0 1.648,0.264 0.744,0.256 1.36,0.768 l -0.936,1.296 q -0.472,-0.328 -0.976,-0.496 -0.496,-0.176 -1.032,-0.176 -0.936,0 -1.528,0.68 -0.584,0.672 -0.584,2.192 0,1 0.272,1.6 0.28,0.6 0.752,0.864 0.48,0.264 1.08,0.264 z"
         id="text8"
         style="font-size:16px;font-family:'Fira Code SemiBold';text-anchor:middle"
         aria-label="libmerlinrdc" />
    </g>
    <!-- obj1&#45;&gt;libmerlinrdc -->
    <g
       id="edge3"
       class="edge">
      <title
         id="title9">obj1-&gt;libmerlinrdc</title>
      <path
         fill="none"
         stroke="#27408b"
         d="m 67,-219.31 c 0,8.02 0,17.76 0,26.74"
         id="path9" />
      <path
         id="polygon9"
         style="fill:#27408b;stroke:#27408b"
         d="m 67,-182.53 -3.5,-10 h 7 z" />
    </g>
    <!-- device_code -->
    <g
       id="node5"
       class="node">
      <title
         id="title10">device_code</title>
      <path
         id="polygon10"
         style="fill:#6495ed;stroke:#6495ed"
         d="m 47,-73.5 v -36 h 192 v 36 z" />
      <path
         d="m 62.80022,-99.779997 2.112,0.224 v 11.856 h -1.872 l -0.128,-1 q -0.392,0.56 -0.984,0.904 -0.592,0.336 -1.376,0.336 -1.072,0 -1.776,-0.56 -0.696,-0.56 -1.04,-1.568 -0.336,-1.016 -0.336,-2.36 0,-1.296 0.4,-2.304 0.4,-1.008 1.152,-1.584 0.76,-0.576 1.8,-0.576 0.624,0 1.136,0.216 0.512,0.216 0.912,0.64 z m -1.48,4.944 q -0.8,0 -1.264,0.696 -0.456,0.688 -0.456,2.2 0,1.064 0.192,1.704 0.192,0.632 0.544,0.912 0.352,0.28 0.832,0.28 0.528,0 0.928,-0.312 0.408,-0.32 0.704,-0.792 v -3.856 q -0.296,-0.392 -0.664,-0.608 -0.36,-0.224 -0.816,-0.224 z m 7.967975,3.544 q 0.064,0.792 0.36,1.288 0.304,0.496 0.776,0.728 0.472,0.232 1.048,0.232 0.608,0 1.144,-0.192 0.536,-0.192 1.056,-0.536 l 0.88,1.208 q -0.592,0.496 -1.416,0.8 -0.816,0.304 -1.8,0.304 -1.376,0 -2.32,-0.568 -0.936,-0.568 -1.416,-1.576 -0.48,-1.008 -0.48,-2.32 0,-1.264 0.472,-2.28 0.472,-1.016 1.36,-1.608 0.888,-0.6 2.144,-0.6 1.168,0 2.016,0.512 0.848,0.512 1.312,1.472 0.464,0.952 0.464,2.296 0,0.216 -0.016,0.44 -0.008,0.224 -0.024,0.4 z m 1.816,-3.632 q -0.768,0 -1.264,0.552 -0.488,0.544 -0.576,1.728 h 3.568 q -0.016,-1.072 -0.448,-1.672 -0.424,-0.608 -1.28,-0.608 z m 13.655976,-1.248 -2.912,8.472 h -2.48 l -2.928,-8.472 h 2.272 l 1.928,6.784 1.968,-6.784 z m 6.799975,0 v 6.976 h 2.232 v 1.496 h -6.824 v -1.496 h 2.48 v -5.48 h -2.4 v -1.496 z m -1.368,-4.272003 q 0.584,0 0.944,0.36 0.368,0.360003 0.368,0.896003 0,0.536 -0.368,0.904 -0.36,0.36 -0.944,0.36 -0.584,0 -0.952,-0.36 -0.368,-0.368 -0.368,-0.904 0,-0.536 0.368,-0.896003 0.368,-0.36 0.952,-0.36 z m 10.359974,11.288003 q 0.56,0 1.048,-0.208 0.496,-0.208 0.952,-0.528 l 0.96,1.352 q -0.56,0.472 -1.352,0.776 -0.792,0.304 -1.696,0.304 -1.327998,0 -2.279998,-0.552 -0.944,-0.56 -1.456,-1.552 -0.504,-1 -0.504,-2.32 0,-1.304 0.512,-2.328 0.52,-1.032 1.472,-1.616 0.96,-0.584 2.287998,-0.584 0.912,0 1.648,0.264 0.744,0.256 1.36,0.768 l -0.936,1.296 q -0.472,-0.328 -0.976,-0.496 -0.496,-0.176 -1.032,-0.176 -0.935998,0 -1.527998,0.68 -0.584,0.672 -0.584,2.192 0,1 0.272,1.6 0.28,0.6 0.752,0.864 0.48,0.264 1.079998,0.264 z m 7.13598,-2.136 q 0.064,0.792 0.36,1.288 0.304,0.496 0.776,0.728 0.472,0.232 1.048,0.232 0.608,0 1.144,-0.192 0.536,-0.192 1.056,-0.536 l 0.88,1.208 q -0.592,0.496 -1.416,0.8 -0.816,0.304 -1.8,0.304 -1.376,0 -2.32,-0.568 -0.936,-0.568 -1.416,-1.576 -0.48,-1.008 -0.48,-2.32 0,-1.264 0.472,-2.28 0.472,-1.016 1.36,-1.608 0.888,-0.6 2.144,-0.6 1.168,0 2.016,0.512 0.848,0.512 1.312,1.472 0.464,0.952 0.464,2.296 0,0.216 -0.016,0.44 -0.008,0.224 -0.024,0.4 z m 1.816,-3.632 q -0.768,0 -1.264,0.552 -0.488,0.544 -0.576,1.728 h 3.568 q -0.016,-1.072 -0.448,-1.672 -0.424,-0.608 -1.28,-0.608 z m 19.84795,5.768 q 0.56,0 1.048,-0.208 0.496,-0.208 0.952,-0.528 l 0.96,1.352 q -0.56,0.472 -1.352,0.776 -0.792,0.304 -1.696,0.304 -1.328,0 -2.28,-0.552 -0.944,-0.56 -1.456,-1.552 -0.504,-1 -0.504,-2.32 0,-1.304 0.512,-2.328 0.52,-1.032 1.472,-1.616 0.96,-0.584 2.288,-0.584 0.912,0 1.648,0.264 0.744,0.256 1.36,0.768 l -0.936,1.296 q -0.472,-0.328 -0.976,-0.496 -0.496,-0.176 -1.032,-0.176 -0.936,0 -1.528,0.68 -0.584,0.672 -0.584,2.192 0,1 0.272,1.6 0.28,0.6 0.752,0.864 0.48,0.264 1.08,0.264 z m 8.85597,-7.256 q 1.264,0 2.144,0.552 0.88,0.552 1.336,1.56 0.464,1 0.464,2.344 0,1.376 -0.464,2.384 -0.464,1.008 -1.344,1.56 -0.88,0.552 -2.144,0.552 -1.256,0 -2.144,-0.536 -0.88,-0.544 -1.344,-1.544 -0.464,-1.008 -0.464,-2.4 0,-1.328 0.464,-2.336 0.464,-1.008 1.352,-1.568 0.888,-0.568 2.144,-0.568 z m 0,1.592 q -0.888,0 -1.328,0.696 -0.432,0.696 -0.432,2.184 0,1.504 0.432,2.2 0.432,0.688 1.32,0.688 0.888,0 1.32,-0.688 0.432,-0.696 0.432,-2.216 0,-1.48 -0.432,-2.168 -0.432,-0.696 -1.312,-0.696 z m 10.99198,-4.96 2.112,0.224 v 11.856 h -1.872 l -0.128,-1 q -0.392,0.56 -0.984,0.904 -0.592,0.336 -1.376,0.336 -1.072,0 -1.776,-0.56 -0.696,-0.56 -1.04,-1.568 -0.336,-1.016 -0.336,-2.36 0,-1.296 0.4,-2.304 0.4,-1.008 1.152,-1.584 0.76,-0.576 1.8,-0.576 0.624,0 1.136,0.216 0.512,0.216 0.912,0.64 z m -1.48,4.944 q -0.8,0 -1.264,0.696 -0.456,0.688 -0.456,2.2 0,1.064 0.192,1.704 0.192,0.632 0.544,0.912 0.352,0.28 0.832,0.28 0.528,0 0.928,-0.312 0.408,-0.32 0.704,-0.792 v -3.856 q -0.296,-0.392 -0.664,-0.608 -0.36,-0.224 -0.816,-0.224 z m 7.96798,3.544 q 0.064,0.792 0.36,1.288 0.304,0.496 0.776,0.728 0.472,0.232 1.048,0.232 0.608,0 1.144,-0.192 0.536,-0.192 1.056,-0.536 l 0.88,1.208 q -0.592,0.496 -1.416,0.8 -0.816,0.304 -1.8,0.304 -1.376,0 -2.32,-0.568 -0.936,-0.568 -1.416,-1.576 -0.48,-1.008 -0.48,-2.32 0,-1.264 0.472,-2.28 0.472,-1.016 1.36,-1.608 0.888,-0.6 2.144,-0.6 1.168,0 2.016,0.512 0.848,0.512 1.312,1.472 0.464,0.952 0.464,2.296 0,0.216 -0.016,0.44 -0.008,0.224 -0.024,0.4 z m 1.816,-3.632 q -0.768,0 -1.264,0.552 -0.488,0.544 -0.576,1.728 h 3.568 q -0.016,-1.072 -0.448,-1.672 -0.424,-0.608 -1.28,-0.608 z m 19.10395,-1.488 q 1.264,0 2.144,0.552 0.88,0.552 1.336,1.56 0.464,1 0.464,2.344 0,1.376 -0.464,2.384 -0.464,1.008 -1.344,1.56 -0.88,0.552 -2.144,0.552 -1.256,0 -2.144,-0.536 -0.88,-0.544 -1.344,-1.544 -0.464,-1.008 -0.464,-2.4 0,-1.328 0.464,-2.336 0.464,-1.008 1.352,-1.568 0.888,-0.568 2.144,-0.568 z m 0,1.592 q -0.888,0 -1.328,0.696 -0.432,0.696 -0.432,2.184 0,1.504 0.432,2.2 0.432,0.688 1.32,0.688 0.888,0 1.32,-0.688 0.432,-0.696 0.432,-2.216 0,-1.48 -0.432,-2.168 -0.432,-0.696 -1.312,-0.696 z m 8.19197,-0.4 q 0.424,-0.56 1,-0.872 0.584,-0.32 1.256,-0.32 1.112,0 1.8,0.552 0.696,0.544 1.016,1.544 0.328,1 0.328,2.36 0,1.304 -0.384,2.32 -0.384,1.016 -1.144,1.6 -0.752,0.576 -1.848,0.576 -1.376,0 -2.168,-1.048 l -0.096,0.808 h -1.872 v -11.856 l 2.112,-0.224 z m 1.48,6.184 q 0.808,0 1.264,-0.688 0.456,-0.688 0.456,-2.208 0,-1.072 -0.192,-1.704 -0.184,-0.64 -0.536,-0.912 -0.344,-0.28 -0.832,-0.28 -0.528,0 -0.936,0.32 -0.4,0.32 -0.704,0.792 v 3.792 q 0.272,0.424 0.64,0.656 0.368,0.232 0.84,0.232 z m 12.12798,-7.136 v 6.4 q 0,1.688 -0.672,2.792 -0.664,1.104 -1.96,1.76 -1.296,0.656 -3.176,1.008 l -0.344,-1.616 q 1.28,-0.264 2.176,-0.696 0.904,-0.432 1.384,-1.176 0.48,-0.744 0.48,-1.936 v -5.04 h -3.216 v -1.496 z m -1.504,-4.272003 q 0.576,0 0.944,0.36 0.368,0.360003 0.368,0.896003 0,0.536 -0.368,0.904 -0.368,0.36 -0.944,0.36 -0.584,0 -0.952,-0.36 -0.368,-0.368 -0.368,-0.904 0,-0.536 0.368,-0.896003 0.368,-0.36 0.952,-0.36 z m 6.78397,9.152003 q 0.064,0.792 0.36,1.288 0.304,0.496 0.776,0.728 0.472,0.232 1.048,0.232 0.608,0 1.144,-0.192 0.536,-0.192 1.056,-0.536 l 0.88,1.208 q -0.592,0.496 -1.416,0.8 -0.816,0.304 -1.8,0.304 -1.376,0 -2.32,-0.568 -0.936,-0.568 -1.416,-1.576 -0.48,-1.008 -0.48,-2.32 0,-1.264 0.472,-2.28 0.472,-1.016 1.36,-1.608 0.888,-0.6 2.144,-0.6 1.168,0 2.016,0.512 0.848,0.512 1.312,1.472 0.464,0.952 0.464,2.296 0,0.216 -0.016,0.44 -0.008,0.224 -0.024,0.4 z m 1.816,-3.632 q -0.768,0 -1.264,0.552 -0.488,0.544 -0.576,1.728 h 3.568 q -0.016,-1.072 -0.448,-1.672 -0.424,-0.608 -1.28,-0.608 z m 10.24798,5.768 q 0.56,0 1.048,-0.208 0.496,-0.208 0.952,-0.528 l 0.96,1.352 q -0.56,0.472 -1.352,0.776 -0.792,0.304 -1.696,0.304 -1.328,0 -2.28,-0.552 -0.944,-0.56 -1.456,-1.552 -0.504,-1 -0.504,-2.32 0,-1.304 0.512,-2.328 0.52,-1.032 1.472,-1.616 0.96,-0.584 2.288,-0.584 0.912,0 1.648,0.264 0.744,0.256 1.36,0.768 l -0.936,1.296 q -0.472,-0.328 -0.976,-0.496 -0.496,-0.176 -1.032,-0.176 -0.936,0 -1.528,0.68 -0.584,0.672 -0.584,2.192 0,1 0.272,1.6 0.28,0.6 0.752,0.864 0.48,0.264 1.08,0.264 z m 12.64797,0.984 q -0.472,0.312 -1.144,0.512 -0.672,0.2 -1.456,0.2 -1.552,0 -2.336,-0.8 -0.784,-0.808 -0.784,-2.144 v -4.272 h -1.84 v -1.496 h 1.84 v -1.864 l 2.112,-0.256 v 2.12 h 2.8 l -0.216,1.496 h -2.584 v 4.264 q 0,0.656 0.32,0.96 0.32,0.304 1.032,0.304 0.456,0 0.832,-0.104 0.384,-0.112 0.696,-0.28 z"
         id="text10"
         style="font-size:16px;font-family:'Fira Code SemiBold';text-anchor:middle"
         aria-label="device code object" />
    </g>
    <!-- obj2&#45;&gt;device_code -->
    <g
       id="edge5"
       class="edge">
      <title
         id="title11">obj2-&gt;device_code</title>
      <path
         fill="none"
         stroke="#27408b"
         d="m 219.05,-146.49 c -13.02,9.24 -29.3,20.8 -43.46,30.85"
         id="path11" />
      <path
         id="polygon11"
         style="fill:#27408b;stroke:#27408b"
         d="m 167.1,-109.61 6.13,-8.65 4.05,5.71 z" />
    </g>
    <!-- libmerlincuda -->
    <g
       id="node7"
       class="node">
      <title
         id="title12">libmerlincuda</title>
      <path
         id="polygon12"
         style="fill:#1e90ff;stroke:#1e90ff"
         d="m 71.5,-0.5 v -36 h 143 v 36 z" />
      <path
         d="m 85.920159,-26.556 v 9.392 q 0,0.552 0.32,0.784 0.328,0.232 0.88,0.232 0.344,0 0.664,-0.072 0.32,-0.08 0.608,-0.192 l 0.52,1.44 q -0.4,0.2 -0.976,0.352 -0.568,0.16 -1.32,0.16 -1.384,0 -2.096,-0.792 -0.712,-0.792 -0.712,-2.136 v -7.672 h -2.536 v -1.496 z m 10.439975,3.384 v 6.976 h 2.232 v 1.496 h -6.824 v -1.496 h 2.48 v -5.48 h -2.4 v -1.496 z m -1.368,-4.272 q 0.584,0 0.944,0.36 0.368,0.36 0.368,0.896 0,0.536 -0.368,0.904 -0.36,0.36 -0.944,0.36 -0.584,0 -0.952,-0.36 -0.368,-0.368 -0.368,-0.904 0,-0.536 0.368,-0.896 0.368,-0.36 0.952,-0.36 z m 8.207976,5.224 q 0.424,-0.56 1,-0.872 0.584,-0.32 1.256,-0.32 1.112,0 1.8,0.552 0.696,0.544 1.016,1.544 0.328,1 0.328,2.36 0,1.304 -0.384,2.32 -0.384,1.016 -1.144,1.6 -0.752,0.576 -1.848,0.576 -1.376,0 -2.168,-1.048 l -0.096,0.808 h -1.872 v -11.856 l 2.112,-0.224 z m 1.48,6.184 q 0.808,0 1.264,-0.688 0.456,-0.688 0.456,-2.208 0,-1.072 -0.192,-1.704 -0.184,-0.64 -0.536,-0.912 -0.344,-0.28 -0.832,-0.28 -0.528,0 -0.936,0.32 -0.4,0.32 -0.704,0.792 v 3.792 q 0.272,0.424 0.64,0.656 0.368,0.232 0.84,0.232 z m 12.03198,-7.376 q 0.544,0 0.928,0.232 0.384,0.224 0.592,0.76 0.208,0.528 0.208,1.44 v 6.28 h -1.84 v -6.016 q 0,-0.576 -0.096,-0.816 -0.088,-0.24 -0.408,-0.24 -0.264,0 -0.536,0.16 -0.264,0.152 -0.552,0.552 v 6.36 h -1.592 v -6.016 q 0,-0.576 -0.096,-0.816 -0.088,-0.24 -0.408,-0.24 -0.272,0 -0.536,0.16 -0.264,0.152 -0.552,0.552 v 6.36 h -1.864 v -8.472 h 1.576 l 0.136,0.88 q 0.376,-0.528 0.792,-0.824 0.416,-0.296 1,-0.296 0.48,0 0.848,0.24 0.376,0.232 0.536,0.8 0.368,-0.464 0.824,-0.752 0.456,-0.288 1.04,-0.288 z m 5.37597,5.12 q 0.064,0.792 0.36,1.288 0.304,0.496 0.776,0.728 0.472,0.232 1.048,0.232 0.608,0 1.144,-0.192 0.536,-0.192 1.056,-0.536 l 0.88,1.208 q -0.592,0.496 -1.416,0.8 -0.816,0.304 -1.8,0.304 -1.376,0 -2.32,-0.568 -0.936,-0.568 -1.416,-1.576 -0.48,-1.008 -0.48,-2.32 0,-1.264 0.472,-2.28 0.472,-1.016 1.36,-1.608 0.888,-0.6 2.144,-0.6 1.168,0 2.016,0.512 0.848,0.512 1.312,1.472 0.464,0.952 0.464,2.296 0,0.216 -0.016,0.44 -0.008,0.224 -0.024,0.4 z m 1.816,-3.632 q -0.768,0 -1.264,0.552 -0.488,0.544 -0.576,1.728 h 3.568 q -0.016,-1.072 -0.448,-1.672 -0.424,-0.608 -1.28,-0.608 z m 6.06398,7.224 v -1.464 h 1.192 v -5.552 h -1.192 v -1.456 h 2.8 l 0.392,1.944 q 0.464,-1.08 1.168,-1.624 0.704,-0.552 1.768,-0.552 0.408,0 0.72,0.064 0.32,0.064 0.608,0.168 l -0.632,1.776 q -0.248,-0.064 -0.472,-0.096 -0.224,-0.04 -0.504,-0.04 -0.88,0 -1.536,0.688 -0.648,0.68 -1.008,1.848 v 2.832 h 1.688 v 1.464 z m 5.672,-5.168 v -2.248 l 0.288,-1.056 h 1.496 l -0.376,3.304 z m 7.87997,-6.688 v 9.392 q 0,0.552 0.32,0.784 0.328,0.232 0.88,0.232 0.344,0 0.664,-0.072 0.32,-0.08 0.608,-0.192 l 0.52,1.44 q -0.4,0.2 -0.976,0.352 -0.568,0.16 -1.32,0.16 -1.384,0 -2.096,-0.792 -0.712,-0.792 -0.712,-2.136 v -7.672 h -2.536 v -1.496 z m 10.43998,3.384 v 6.976 h 2.232 v 1.496 h -6.824 v -1.496 h 2.48 v -5.48 h -2.4 v -1.496 z m -1.368,-4.272 q 0.584,0 0.944,0.36 0.368,0.36 0.368,0.896 0,0.536 -0.368,0.904 -0.36,0.36 -0.944,0.36 -0.584,0 -0.952,-0.36 -0.368,-0.368 -0.368,-0.904 0,-0.536 0.368,-0.896 0.368,-0.36 0.952,-0.36 z m 6.09597,12.744 v -8.472 h 1.84 l 0.152,1.048 q 0.544,-0.64 1.224,-0.96 0.68,-0.328 1.464,-0.328 1.144,0 1.744,0.664 0.6,0.656 0.6,1.848 v 6.2 h -2.112 v -5.376 q 0,-0.64 -0.08,-1.024 -0.08,-0.392 -0.304,-0.56 -0.224,-0.176 -0.648,-0.176 -0.344,0 -0.664,0.152 -0.312,0.152 -0.592,0.408 -0.272,0.256 -0.512,0.568 v 6.008 z m 13.86398,-1.456 q 0.56,0 1.048,-0.208 0.496,-0.208 0.952,-0.528 l 0.96,1.352 q -0.56,0.472 -1.352,0.776 -0.792,0.304 -1.696,0.304 -1.328,0 -2.28,-0.552 -0.944,-0.56 -1.456,-1.552 -0.504,-1 -0.504,-2.32 0,-1.304 0.512,-2.328 0.52,-1.032 1.472,-1.616 0.96,-0.584 2.288,-0.584 0.912,0 1.648,0.264 0.744,0.256 1.36,0.768 l -0.936,1.296 q -0.472,-0.328 -0.976,-0.496 -0.496,-0.176 -1.032,-0.176 -0.936,0 -1.528,0.68 -0.584,0.672 -0.584,2.192 0,1 0.272,1.6 0.28,0.6 0.752,0.864 0.48,0.264 1.08,0.264 z m 7.44797,-7.016 v 5.872 q 0,0.688 0.272,0.968 0.272,0.28 0.792,0.28 0.496,0 0.968,-0.296 0.472,-0.304 0.768,-0.768 v -6.056 h 2.112 v 8.472 h -1.84 l -0.112,-1.04 q -0.456,0.624 -1.168,0.952 -0.712,0.328 -1.472,0.328 -1.224,0 -1.832,-0.688 -0.6,-0.696 -0.6,-1.896 v -6.128 z m 12.39998,-3.608 2.112,0.224 V -14.7 h -1.872 l -0.128,-1 q -0.392,0.56 -0.984,0.904 -0.592,0.336 -1.376,0.336 -1.072,0 -1.776,-0.56 -0.696,-0.56 -1.04,-1.568 -0.336,-1.016 -0.336,-2.36 0,-1.296 0.4,-2.304 0.4,-1.008 1.152,-1.584 0.76,-0.576 1.8,-0.576 0.624,0 1.136,0.216 0.512,0.216 0.912,0.64 z m -1.48,4.944 q -0.8,0 -1.264,0.696 -0.456,0.688 -0.456,2.2 0,1.064 0.192,1.704 0.192,0.632 0.544,0.912 0.352,0.28 0.832,0.28 0.528,0 0.928,-0.312 0.408,-0.32 0.704,-0.792 v -3.856 q -0.296,-0.392 -0.664,-0.608 -0.36,-0.224 -0.816,-0.224 z m 12.92798,4.904 q 0,0.488 0.144,0.712 0.144,0.216 0.464,0.328 l -0.456,1.416 q -0.68,-0.072 -1.16,-0.336 -0.472,-0.272 -0.728,-0.808 -0.48,0.584 -1.216,0.872 -0.728,0.288 -1.528,0.288 -1.296,0 -2.056,-0.736 -0.76,-0.736 -0.76,-1.912 0,-1.352 1.056,-2.08 1.064,-0.736 3.008,-0.736 h 1.184 v -0.456 q 0,-0.752 -0.464,-1.088 -0.464,-0.344 -1.336,-0.344 -0.408,0 -1.024,0.112 -0.608,0.104 -1.256,0.328 l -0.504,-1.448 q 0.808,-0.304 1.624,-0.448 0.824,-0.144 1.496,-0.144 1.784,0 2.648,0.76 0.864,0.752 0.864,2.136 z m -3.792,0.944 q 0.48,0 0.968,-0.272 0.496,-0.272 0.776,-0.76 v -1.648 h -0.832 q -1.176,0 -1.704,0.376 -0.52,0.376 -0.52,1.064 0,0.592 0.336,0.92 0.336,0.32 0.976,0.32 z"
         id="text12"
         style="font-size:16px;font-family:'Fira Code SemiBold';text-anchor:middle"
         aria-label="libmerlincuda" />
    </g>
    <!-- obj2&#45;&gt;libmerlincuda -->
    <g
       id="edge7"
       class="edge">
      <title
         id="title13">obj2-&gt;libmerlincuda</title>
      <path
         fill="none"
         stroke="#27408b"
         d="m 249.37,-146.42 c 6.05,19.33 12.36,51.01 -1.37,73.42 -8.45,13.8 -21.71,24.17 -35.98,31.93"
         id="path13" />
      <path
         id="polygon13"
         style="fill:#27408b;stroke:#27408b"
         d="m 203.03,-36.57 7.37,-7.61 3.14,6.26 z" />
    </g>
    <!-- device_code&#45;&gt;libmerlincuda -->
    <g
       id="edge8"
       class="edge">
      <title
         id="title14">device_code-&gt;libmerlincuda</title>
      <path
         fill="none"
         stroke="#27408b"
         d="m 143,-73.31 c 0,8.02 0,17.76 0,26.74"
         id="path14" />
      <path
         id="polygon14"
         style="fill:#27408b;stroke:#27408b"
         d="m 143,-36.53 -3.5,-10 h 7 z" />
    </g>
    <!-- libmerlinrdc&#45;&gt;device_code -->
    <g
       id="edge4"
       class="edge">
      <title
         id="title15">libmerlinrdc-&gt;device_code</title>
      <path
         fill="none"
         stroke="#27408b"
         d="m 85.4,-146.31 c 9.61,8.98 21.53,20.12 32.03,29.92"
         id="path15" />
      <path
         id="polygon15"
         style="fill:#27408b;stroke:#27408b"
         d="m 124.77,-109.53 -9.69,-4.27 4.77,-5.11 z" />
    </g>
    <!-- libmerlinrdc&#45;&gt;libmerlincuda -->
    <g
       id="edge6"
       class="edge">
      <title
         id="title16">libmerlinrdc-&gt;libmerlincuda</title>
      <path
         fill="none"
         stroke="#27408b"
         d="m 53.46,-146.47 c -13.33,19 -29.77,50.12 -15.46,73.47 8.45,13.8 21.71,24.17 35.98,31.93"
         id="path16" />
      <path
         id="polygon16"
         style="fill:#27408b;stroke:#27408b"
         d="m 82.97,-36.57 -10.51,-1.35 3.14,-6.26 z" />
    </g>
  </g>
</svg>
