<?xml version="1.0" encoding="UTF-8" standalone="no"?>
<!-- Generated by graphviz version 2.43.0 (0)
 -->

<!-- Title: CudaCompilation Pages: 1 -->

<svg
   width="227.625pt"
   height="198pt"
   viewBox="0 0 227.25062 198"
   version="1.1"
   id="svg1782"
   sodipodi:docname="cuda_comp.svg"
   inkscape:version="1.2.2 (732a01da63, 2022-12-09, custom)"
   xmlns:inkscape="http://www.inkscape.org/namespaces/inkscape"
   xmlns:sodipodi="http://sodipodi.sourceforge.net/DTD/sodipodi-0.dtd"
   xmlns="http://www.w3.org/2000/svg"
   xmlns:svg="http://www.w3.org/2000/svg">
  <defs
     id="defs1786" />
  <sodipodi:namedview
     id="namedview1784"
     pagecolor="#ffffff"
     bordercolor="#000000"
     borderopacity="0.25"
     inkscape:showpageshadow="2"
     inkscape:pageopacity="0.0"
     inkscape:pagecheckerboard="0"
     inkscape:deskcolor="#d1d1d1"
     inkscape:document-units="pt"
     showgrid="false"
     inkscape:zoom="2.4147727"
     inkscape:cx="202.08941"
     inkscape:cy="209.33647"
     inkscape:window-width="1846"
     inkscape:window-height="1016"
     inkscape:window-x="74"
     inkscape:window-y="27"
     inkscape:window-maximized="1"
     inkscape:current-layer="svg1782" />
  <g
     id="graph0"
     class="graph"
     transform="matrix(0.75,0,0,0.75,2.7499962,195)">
    <title
       id="title1700">CudaCompilation</title>
    <path
       id="polygon1702"
       style="fill:#ffffff"
       d="M -4,4 V -260 H 299.5 V 4 Z" />
    <!-- rdc -->
    <g
       id="node1"
       class="node">
      <title
         id="title1704">rdc</title>
      <path
         id="polygon1706"
         style="fill:#b0e2ff;stroke:#b0e2ff"
         d="m 39,-219.5 v -36 h 65 v 36 z" />
      <g
         aria-label="*.rdc"
         id="text1708"
         style="font-size:16px;font-family:'Fira Code SemiBold';text-anchor:middle">
        <path
           d="m 51.284061,-243.1 0.256,3.096 -2.856,-1.2 -0.624,1.92 3.024,0.712 -2.024,2.36 1.624,1.176 1.616,-2.64 1.616,2.64 1.624,-1.176 -2.024,-2.36 3.024,-0.712 -0.624,-1.92 -2.856,1.2 0.256,-3.096 z"
           id="path1790" />
        <path
           d="m 60.244037,-235.116 q 0,-0.448 0.216,-0.824 0.224,-0.376 0.6,-0.6 0.376,-0.224 0.832,-0.224 0.464,0 0.84,0.224 0.376,0.224 0.592,0.6 0.224,0.376 0.224,0.824 0,0.448 -0.224,0.832 -0.216,0.376 -0.592,0.6 -0.376,0.224 -0.84,0.224 -0.456,0 -0.832,-0.224 -0.376,-0.224 -0.6,-0.6 -0.216,-0.384 -0.216,-0.832 z"
           id="path1792" />
        <path
           d="m 68.068012,-233.7 v -1.464 h 1.192 v -5.552 h -1.192 v -1.456 h 2.8 l 0.392,1.944 q 0.464,-1.08 1.168,-1.624 0.704,-0.552 1.768,-0.552 0.408,0 0.72,0.064 0.32,0.064 0.608,0.168 l -0.632,1.776 q -0.248,-0.064 -0.472,-0.096 -0.224,-0.04 -0.504,-0.04 -0.88,0 -1.536,0.688 -0.648,0.68 -1.008,1.848 v 2.832 h 1.688 v 1.464 z m 5.672,-5.168 v -2.248 l 0.288,-1.056 h 1.496 l -0.376,3.304 z"
           id="path1794" />
        <path
           d="m 82.499988,-245.78 2.112,0.224 v 11.856 h -1.872 l -0.128,-1 q -0.392,0.56 -0.984,0.904 -0.592,0.336 -1.376,0.336 -1.072,0 -1.776,-0.56 -0.696,-0.56 -1.04,-1.568 -0.336,-1.016 -0.336,-2.36 0,-1.296 0.4,-2.304 0.4,-1.008 1.152,-1.584 0.76,-0.576 1.8,-0.576 0.624,0 1.136,0.216 0.512,0.216 0.912,0.64 z m -1.48,4.944 q -0.8,0 -1.264,0.696 -0.456,0.688 -0.456,2.2 0,1.064 0.192,1.704 0.192,0.632 0.544,0.912 0.352,0.28 0.832,0.28 0.528,0 0.928,-0.312 0.408,-0.32 0.704,-0.792 v -3.856 q -0.296,-0.392 -0.664,-0.608 -0.36,-0.224 -0.816,-0.224 z"
           id="path1796" />
        <path
           d="m 91.451963,-235.156 q 0.56,0 1.048,-0.208 0.496,-0.208 0.952,-0.528 l 0.96,1.352 q -0.56,0.472 -1.352,0.776 -0.792,0.304 -1.696,0.304 -1.328,0 -2.28,-0.552 -0.944,-0.56 -1.456,-1.552 -0.504,-1 -0.504,-2.32 0,-1.304 0.512,-2.328 0.52,-1.032 1.472,-1.616 0.96,-0.584 2.288,-0.584 0.912,0 1.648,0.264 0.744,0.256 1.36,0.768 l -0.936,1.296 q -0.472,-0.328 -0.976,-0.496 -0.496,-0.176 -1.032,-0.176 -0.936,0 -1.528,0.68 -0.584,0.672 -0.584,2.192 0,1 0.272,1.6 0.28,0.6 0.752,0.864 0.48,0.264 1.08,0.264 z"
           id="path1798" />
      </g>
    </g>
    <!-- obj1 -->
    <g
       id="node3"
       class="node">
      <title
         id="title1711">obj1</title>
      <path
         id="polygon1713"
         style="fill:#63b8ff;stroke:#63b8ff"
         d="m 4.5,-146.5 v -36 h 134 v 36 z" />
      <g
         aria-label="*.o or *.obj"
         id="text1715"
         style="font-size:16px;font-family:'Fira Code SemiBold';text-anchor:middle">
        <path
           d="m 17.684146,-170.1 0.256,3.096 -2.856,-1.2 -0.624,1.92 3.024,0.712 -2.024,2.36 1.624,1.176 1.616,-2.64 1.616,2.64 1.624,-1.176 -2.024,-2.36 3.024,-0.712 -0.624,-1.92 -2.856,1.2 0.256,-3.096 z"
           id="path1802" />
        <path
           d="m 26.644122,-162.116 q 0,-0.448 0.216,-0.824 0.224,-0.376 0.6,-0.6 0.376,-0.224 0.832,-0.224 0.464,0 0.84,0.224 0.376,0.224 0.592,0.6 0.224,0.376 0.224,0.824 0,0.448 -0.224,0.832 -0.216,0.376 -0.592,0.6 -0.376,0.224 -0.84,0.224 -0.456,0 -0.832,-0.224 -0.376,-0.224 -0.6,-0.6 -0.216,-0.384 -0.216,-0.832 z"
           id="path1804" />
        <path
           d="m 37.908098,-169.412 q 1.264,0 2.144,0.552 0.88,0.552 1.336,1.56 0.464,1 0.464,2.344 0,1.376 -0.464,2.384 -0.464,1.008 -1.344,1.56 -0.88,0.552 -2.144,0.552 -1.256,0 -2.144,-0.536 -0.88,-0.544 -1.344,-1.544 -0.464,-1.008 -0.464,-2.4 0,-1.328 0.464,-2.336 0.464,-1.008 1.352,-1.568 0.888,-0.568 2.144,-0.568 z m 0,1.592 q -0.888,0 -1.328,0.696 -0.432,0.696 -0.432,2.184 0,1.504 0.432,2.2 0.432,0.688 1.32,0.688 0.888,0 1.32,-0.688 0.432,-0.696 0.432,-2.216 0,-1.48 -0.432,-2.168 -0.432,-0.696 -1.312,-0.696 z"
           id="path1806" />
        <path
           d="m 57.108049,-169.412 q 1.264,0 2.144,0.552 0.88,0.552 1.336,1.56 0.464,1 0.464,2.344 0,1.376 -0.464,2.384 -0.464,1.008 -1.344,1.56 -0.88,0.552 -2.144,0.552 -1.256,0 -2.144,-0.536 -0.88,-0.544 -1.344,-1.544 -0.464,-1.008 -0.464,-2.4 0,-1.328 0.464,-2.336 0.464,-1.008 1.352,-1.568 0.888,-0.568 2.144,-0.568 z m 0,1.592 q -0.888,0 -1.328,0.696 -0.432,0.696 -0.432,2.184 0,1.504 0.432,2.2 0.432,0.688 1.32,0.688 0.888,0 1.32,-0.688 0.432,-0.696 0.432,-2.216 0,-1.48 -0.432,-2.168 -0.432,-0.696 -1.312,-0.696 z"
           id="path1808" />
        <path
           d="m 63.268024,-160.7 v -1.464 h 1.192 v -5.552 h -1.192 v -1.456 h 2.8 l 0.392,1.944 q 0.464,-1.08 1.168,-1.624 0.704,-0.552 1.768,-0.552 0.408,0 0.72,0.064 0.32,0.064 0.608,0.168 l -0.632,1.776 q -0.248,-0.064 -0.472,-0.096 -0.224,-0.04 -0.504,-0.04 -0.88,0 -1.536,0.688 -0.648,0.68 -1.008,1.848 v 2.832 h 1.688 v 1.464 z m 5.672,-5.168 v -2.248 l 0.288,-1.056 h 1.496 l -0.376,3.304 z"
           id="path1810" />
        <path
           d="m 84.883976,-170.1 0.256,3.096 -2.856,-1.2 -0.624,1.92 3.024,0.712 -2.024,2.36 1.624,1.176 1.616,-2.64 1.616,2.64 1.624,-1.176 -2.024,-2.36 3.024,-0.712 -0.624,-1.92 -2.856,1.2 0.256,-3.096 z"
           id="path1812" />
        <path
           d="m 93.843951,-162.116 q 0,-0.448 0.216,-0.824 0.224,-0.376 0.6,-0.6 0.376,-0.224 0.832,-0.224 0.464,0 0.84,0.224 0.376,0.224 0.592,0.6 0.224,0.376 0.224,0.824 0,0.448 -0.224,0.832 -0.216,0.376 -0.592,0.6 -0.376,0.224 -0.84,0.224 -0.456,0 -0.832,-0.224 -0.376,-0.224 -0.6,-0.6 -0.216,-0.384 -0.216,-0.832 z"
           id="path1814" />
        <path
           d="m 105.10793,-169.412 q 1.264,0 2.144,0.552 0.88,0.552 1.336,1.56 0.464,1 0.464,2.344 0,1.376 -0.464,2.384 -0.464,1.008 -1.344,1.56 -0.88,0.552 -2.144,0.552 -1.256,0 -2.144,-0.536 -0.88,-0.544 -1.344,-1.544 -0.464,-1.008 -0.464,-2.4 0,-1.328 0.464,-2.336 0.464,-1.008 1.352,-1.568 0.888,-0.568 2.144,-0.568 z m 0,1.592 q -0.888,0 -1.328,0.696 -0.432,0.696 -0.432,2.184 0,1.504 0.432,2.2 0.432,0.688 1.32,0.688 0.888,0 1.32,-0.688 0.432,-0.696 0.432,-2.216 0,-1.48 -0.432,-2.168 -0.432,-0.696 -1.312,-0.696 z"
           id="path1816" />
        <path
           d="m 113.2999,-168.22 q 0.424,-0.56 1,-0.872 0.584,-0.32 1.256,-0.32 1.112,0 1.8,0.552 0.696,0.544 1.016,1.544 0.328,1 0.328,2.36 0,1.304 -0.384,2.32 -0.384,1.016 -1.144,1.6 -0.752,0.576 -1.848,0.576 -1.376,0 -2.168,-1.048 l -0.096,0.808 h -1.872 v -11.856 l 2.112,-0.224 z m 1.48,6.184 q 0.808,0 1.264,-0.688 0.456,-0.688 0.456,-2.208 0,-1.072 -0.192,-1.704 -0.184,-0.64 -0.536,-0.912 -0.344,-0.28 -0.832,-0.28 -0.528,0 -0.936,0.32 -0.4,0.32 -0.704,0.792 v 3.792 q 0.272,0.424 0.64,0.656 0.368,0.232 0.84,0.232 z"
           id="path1818" />
        <path
           d="m 126.90788,-169.172 v 6.4 q 0,1.688 -0.672,2.792 -0.664,1.104 -1.96,1.76 -1.296,0.656 -3.176,1.008 l -0.344,-1.616 q 1.28,-0.264 2.176,-0.696 0.904,-0.432 1.384,-1.176 0.48,-0.744 0.48,-1.936 v -5.04 h -3.216 v -1.496 z m -1.504,-4.272 q 0.576,0 0.944,0.36 0.368,0.36 0.368,0.896 0,0.536 -0.368,0.904 -0.368,0.36 -0.944,0.36 -0.584,0 -0.952,-0.36 -0.368,-0.368 -0.368,-0.904 0,-0.536 0.368,-0.896 0.368,-0.36 0.952,-0.36 z"
           id="path1820" />
      </g>
    </g>
    <!-- rdc&#45;&gt;obj1 -->
    <g
       id="edge1"
       class="edge">
      <title
         id="title1718">rdc-&gt;obj1</title>
      <path
         fill="none"
         stroke="#696969"
         d="m 71.5,-219.31 c 0,8.02 0,17.76 0,26.74"
         id="path1720" />
      <path
         id="polygon1722"
         style="fill:#696969;stroke:#696969"
         d="m 75,-192.53 -3.5,10 -3.5,-10 z" />
    </g>
    <!-- glb -->
    <g
       id="node2"
       class="node">
      <title
         id="title1725">glb</title>
      <path
         id="polygon1727"
         style="fill:#b0e2ff;stroke:#b0e2ff"
         d="m 196,-219.5 v -36 h 65 v 36 z" />
      <g
         aria-label="*.glb"
         id="text1729"
         style="font-size:16px;font-family:'Fira Code SemiBold';text-anchor:middle">
        <path
           d="m 208.28406,-243.1 0.256,3.096 -2.856,-1.2 -0.624,1.92 3.024,0.712 -2.024,2.36 1.624,1.176 1.616,-2.64 1.616,2.64 1.624,-1.176 -2.024,-2.36 3.024,-0.712 -0.624,-1.92 -2.856,1.2 0.256,-3.096 z"
           id="path1825" />
        <path
           d="m 217.24404,-235.116 q 0,-0.448 0.216,-0.824 0.224,-0.376 0.6,-0.6 0.376,-0.224 0.832,-0.224 0.464,0 0.84,0.224 0.376,0.224 0.592,0.6 0.224,0.376 0.224,0.824 0,0.448 -0.224,0.832 -0.216,0.376 -0.592,0.6 -0.376,0.224 -0.84,0.224 -0.456,0 -0.832,-0.224 -0.376,-0.224 -0.6,-0.6 -0.216,-0.384 -0.216,-0.832 z"
           id="path1827" />
        <path
           d="m 232.29201,-243.364 0.528,1.648 q -0.48,0.168 -1.08,0.24 -0.6,0.064 -1.376,0.064 0.776,0.336 1.176,0.856 0.408,0.512 0.408,1.304 0,0.824 -0.424,1.472 -0.416,0.648 -1.192,1.016 -0.768,0.368 -1.832,0.368 -0.328,0 -0.584,-0.032 -0.256,-0.032 -0.496,-0.088 -0.16,0.088 -0.248,0.256 -0.088,0.168 -0.088,0.344 0,0.24 0.184,0.416 0.192,0.168 0.816,0.168 h 1.44 q 0.936,0 1.64,0.32 0.712,0.312 1.104,0.848 0.4,0.536 0.4,1.232 0,1.28 -1.112,2 -1.112,0.72 -3.248,0.72 -1.528,0 -2.384,-0.312 -0.848,-0.312 -1.192,-0.912 -0.344,-0.592 -0.344,-1.432 h 1.88 q 0,0.408 0.16,0.672 0.168,0.264 0.616,0.392 0.456,0.128 1.304,0.128 0.848,0 1.328,-0.136 0.488,-0.136 0.688,-0.392 0.2,-0.248 0.2,-0.584 0,-0.456 -0.384,-0.712 -0.384,-0.256 -1.088,-0.256 h -1.4 q -1.28,0 -1.864,-0.496 -0.584,-0.504 -0.584,-1.16 0,-0.448 0.24,-0.856 0.248,-0.416 0.704,-0.704 -0.784,-0.416 -1.136,-0.992 -0.344,-0.584 -0.344,-1.408 0,-0.92 0.464,-1.6 0.464,-0.68 1.288,-1.056 0.824,-0.376 1.896,-0.376 0.984,0.008 1.672,-0.12 0.696,-0.128 1.224,-0.352 0.536,-0.224 1.04,-0.488 z m -3.896,2.368 q -0.752,0 -1.152,0.44 -0.392,0.44 -0.392,1.168 0,0.752 0.408,1.192 0.408,0.44 1.144,0.44 0.728,0 1.104,-0.424 0.384,-0.432 0.384,-1.232 0,-0.8 -0.384,-1.192 -0.376,-0.392 -1.112,-0.392 z"
           id="path1829" />
        <path
           d="m 238.61999,-245.556 v 9.392 q 0,0.552 0.32,0.784 0.328,0.232 0.88,0.232 0.344,0 0.664,-0.072 0.32,-0.08 0.608,-0.192 l 0.52,1.44 q -0.4,0.2 -0.976,0.352 -0.568,0.16 -1.32,0.16 -1.384,0 -2.096,-0.792 -0.712,-0.792 -0.712,-2.136 v -7.672 h -2.536 v -1.496 z"
           id="path1831" />
        <path
           d="m 246.29996,-241.22 q 0.424,-0.56 1,-0.872 0.584,-0.32 1.256,-0.32 1.112,0 1.8,0.552 0.696,0.544 1.016,1.544 0.328,1 0.328,2.36 0,1.304 -0.384,2.32 -0.384,1.016 -1.144,1.6 -0.752,0.576 -1.848,0.576 -1.376,0 -2.168,-1.048 l -0.096,0.808 h -1.872 v -11.856 l 2.112,-0.224 z m 1.48,6.184 q 0.808,0 1.264,-0.688 0.456,-0.688 0.456,-2.208 0,-1.072 -0.192,-1.704 -0.184,-0.64 -0.536,-0.912 -0.344,-0.28 -0.832,-0.28 -0.528,0 -0.936,0.32 -0.4,0.32 -0.704,0.792 v 3.792 q 0.272,0.424 0.64,0.656 0.368,0.232 0.84,0.232 z"
           id="path1833" />
      </g>
    </g>
    <!-- obj2 -->
    <g
       id="node4"
       class="node">
      <title
         id="title1732">obj2</title>
      <path
         id="polygon1734"
         style="fill:#63b8ff;stroke:#63b8ff"
         d="m 161.5,-73.5 v -36 h 134 v 36 z" />
      <g
         aria-label="*.o or *.obj"
         id="text1736"
         style="font-size:16px;font-family:'Fira Code SemiBold';text-anchor:middle">
        <path
           d="m 174.68415,-97.099997 0.256,3.096 -2.856,-1.2 -0.624,1.92 3.024,0.712 -2.024,2.36 1.624,1.176 1.616,-2.64 1.616,2.64 1.624,-1.176 -2.024,-2.36 3.024,-0.712 -0.624,-1.92 -2.856,1.2 0.256,-3.096 z"
           id="path1837" />
        <path
           d="m 183.64412,-89.115997 q 0,-0.448 0.216,-0.824 0.224,-0.376 0.6,-0.6 0.376,-0.224 0.832,-0.224 0.464,0 0.84,0.224 0.376,0.224 0.592,0.6 0.224,0.376 0.224,0.824 0,0.448 -0.224,0.832 -0.216,0.376 -0.592,0.6 -0.376,0.224 -0.84,0.224 -0.456,0 -0.832,-0.224 -0.376,-0.224 -0.6,-0.6 -0.216,-0.384 -0.216,-0.832 z"
           id="path1839" />
        <path
           d="m 194.9081,-96.411997 q 1.264,0 2.144,0.552 0.88,0.552 1.336,1.56 0.464,1 0.464,2.344 0,1.376 -0.464,2.384 -0.464,1.008 -1.344,1.56 -0.88,0.552 -2.144,0.552 -1.256,0 -2.144,-0.536 -0.88,-0.544 -1.344,-1.544 -0.464,-1.008 -0.464,-2.4 0,-1.328 0.464,-2.336 0.464,-1.008 1.352,-1.568 0.888,-0.568 2.144,-0.568 z m 0,1.592 q -0.888,0 -1.328,0.696 -0.432,0.696 -0.432,2.184 0,1.504 0.432,2.2 0.432,0.688 1.32,0.688 0.888,0 1.32,-0.688 0.432,-0.696 0.432,-2.216 0,-1.48 -0.432,-2.168 -0.432,-0.696 -1.312,-0.696 z"
           id="path1841" />
        <path
           d="m 214.10805,-96.411997 q 1.264,0 2.144,0.552 0.88,0.552 1.336,1.56 0.464,1 0.464,2.344 0,1.376 -0.464,2.384 -0.464,1.008 -1.344,1.56 -0.88,0.552 -2.144,0.552 -1.256,0 -2.144,-0.536 -0.88,-0.544 -1.344,-1.544 -0.464,-1.008 -0.464,-2.4 0,-1.328 0.464,-2.336 0.464,-1.008 1.352,-1.568 0.888,-0.568 2.144,-0.568 z m 0,1.592 q -0.888,0 -1.328,0.696 -0.432,0.696 -0.432,2.184 0,1.504 0.432,2.2 0.432,0.688 1.32,0.688 0.888,0 1.32,-0.688 0.432,-0.696 0.432,-2.216 0,-1.48 -0.432,-2.168 -0.432,-0.696 -1.312,-0.696 z"
           id="path1843" />
        <path
           d="m 220.26802,-87.699997 v -1.464 h 1.192 v -5.552 h -1.192 v -1.456 h 2.8 l 0.392,1.944 q 0.464,-1.08 1.168,-1.624 0.704,-0.552 1.768,-0.552 0.408,0 0.72,0.064 0.32,0.064 0.608,0.168 l -0.632,1.776 q -0.248,-0.064 -0.472,-0.096 -0.224,-0.04 -0.504,-0.04 -0.88,0 -1.536,0.688 -0.648,0.68 -1.008,1.848 v 2.832 h 1.688 v 1.464 z m 5.672,-5.168 v -2.248 l 0.288,-1.056 h 1.496 l -0.376,3.304 z"
           id="path1845" />
        <path
           d="m 241.88398,-97.099997 0.256,3.096 -2.856,-1.2 -0.624,1.92 3.024,0.712 -2.024,2.36 1.624,1.176 1.616,-2.64 1.616,2.64 1.624,-1.176 -2.024,-2.36 3.024,-0.712 -0.624,-1.92 -2.856,1.2 0.256,-3.096 z"
           id="path1847" />
        <path
           d="m 250.84395,-89.115997 q 0,-0.448 0.216,-0.824 0.224,-0.376 0.6,-0.6 0.376,-0.224 0.832,-0.224 0.464,0 0.84,0.224 0.376,0.224 0.592,0.6 0.224,0.376 0.224,0.824 0,0.448 -0.224,0.832 -0.216,0.376 -0.592,0.6 -0.376,0.224 -0.84,0.224 -0.456,0 -0.832,-0.224 -0.376,-0.224 -0.6,-0.6 -0.216,-0.384 -0.216,-0.832 z"
           id="path1849" />
        <path
           d="m 262.10793,-96.411997 q 1.264,0 2.144,0.552 0.88,0.552 1.336,1.56 0.464,1 0.464,2.344 0,1.376 -0.464,2.384 -0.464,1.008 -1.344,1.56 -0.88,0.552 -2.144,0.552 -1.256,0 -2.144,-0.536 -0.88,-0.544 -1.344,-1.544 -0.464,-1.008 -0.464,-2.4 0,-1.328 0.464,-2.336 0.464,-1.008 1.352,-1.568 0.888,-0.568 2.144,-0.568 z m 0,1.592 q -0.888,0 -1.328,0.696 -0.432,0.696 -0.432,2.184 0,1.504 0.432,2.2 0.432,0.688 1.32,0.688 0.888,0 1.32,-0.688 0.432,-0.696 0.432,-2.216 0,-1.48 -0.432,-2.168 -0.432,-0.696 -1.312,-0.696 z"
           id="path1851" />
        <path
           d="m 270.2999,-95.219997 q 0.424,-0.56 1,-0.872 0.584,-0.32 1.256,-0.32 1.112,0 1.8,0.552 0.696,0.544 1.016,1.544 0.328,1 0.328,2.36 0,1.304 -0.384,2.32 -0.384,1.016 -1.144,1.6 -0.752,0.576 -1.848,0.576 -1.376,0 -2.168,-1.048 l -0.096,0.808 h -1.872 v -11.856 l 2.112,-0.224 z m 1.48,6.184 q 0.808,0 1.264,-0.688 0.456,-0.688 0.456,-2.208 0,-1.072 -0.192,-1.704 -0.184,-0.64 -0.536,-0.912 -0.344,-0.28 -0.832,-0.28 -0.528,0 -0.936,0.32 -0.4,0.32 -0.704,0.792 v 3.792 q 0.272,0.424 0.64,0.656 0.368,0.232 0.84,0.232 z"
           id="path1853" />
        <path
           d="m 283.90788,-96.171997 v 6.4 q 0,1.688 -0.672,2.792 -0.664,1.104 -1.96,1.76 -1.296,0.656 -3.176,1.008 l -0.344,-1.616 q 1.28,-0.264 2.176,-0.696 0.904,-0.432 1.384,-1.176 0.48,-0.744 0.48,-1.936 v -5.04 h -3.216 v -1.496 z m -1.504,-4.272003 q 0.576,0 0.944,0.36 0.368,0.360003 0.368,0.896003 0,0.536 -0.368,0.904 -0.368,0.36 -0.944,0.36 -0.584,0 -0.952,-0.36 -0.368,-0.368 -0.368,-0.904 0,-0.536 0.368,-0.896003 0.368,-0.36 0.952,-0.36 z"
           id="path1855" />
      </g>
    </g>
    <!-- glb&#45;&gt;obj2 -->
    <g
       id="edge2"
       class="edge">
      <title
         id="title1739">glb-&gt;obj2</title>
      <path
         fill="none"
         stroke="#696969"
         d="m 228.5,-219.42 c 0,24.58 0,70.17 0,99.49"
         id="path1741" />
      <path
         id="polygon1743"
         style="fill:#696969;stroke:#696969"
         d="m 232,-119.56 -3.5,10 -3.5,-10 z" />
    </g>
    <!-- libmerlincuda -->
    <g
       id="node5"
       class="node">
      <title
         id="title1746">libmerlincuda</title>
      <path
         id="polygon1748"
         style="fill:#1e90ff;stroke:#1e90ff"
         d="m 0,-73.5 v -36 h 143 v 36 z" />
      <g
         aria-label="libmerlincuda"
         id="text1750"
         style="font-size:16px;font-family:'Fira Code SemiBold';text-anchor:middle">
        <path
           d="m 14.420159,-99.555997 v 9.392 q 0,0.552 0.32,0.784 0.328,0.232 0.88,0.232 0.344,0 0.664,-0.072 0.32,-0.08 0.608,-0.192 l 0.52,1.44 q -0.4,0.2 -0.976,0.352 -0.568,0.16 -1.32,0.16 -1.384,0 -2.096,-0.792 -0.712,-0.792 -0.712,-2.136 v -7.672 H 9.7721587 v -1.496 z"
           id="path1860" />
        <path
           d="m 24.860134,-96.171997 v 6.976 h 2.232 v 1.496 h -6.824 v -1.496 h 2.48 v -5.48 h -2.4 v -1.496 z m -1.368,-4.272003 q 0.584,0 0.944,0.36 0.368,0.360003 0.368,0.896003 0,0.536 -0.368,0.904 -0.36,0.36 -0.944,0.36 -0.584,0 -0.952,-0.36 -0.368,-0.368 -0.368,-0.904 0,-0.536 0.368,-0.896003 0.368,-0.36 0.952,-0.36 z"
           id="path1862" />
        <path
           d="m 31.70011,-95.219997 q 0.424,-0.56 1,-0.872 0.584,-0.32 1.256,-0.32 1.112,0 1.8,0.552 0.696,0.544 1.016,1.544 0.328,1 0.328,2.36 0,1.304 -0.384,2.32 -0.384,1.016 -1.144,1.6 -0.752,0.576 -1.848,0.576 -1.376,0 -2.168,-1.048 l -0.096,0.808 h -1.872 v -11.856 l 2.112,-0.224 z m 1.48,6.184 q 0.808,0 1.264,-0.688 0.456,-0.688 0.456,-2.208 0,-1.072 -0.192,-1.704 -0.184,-0.64 -0.536,-0.912 -0.344,-0.28 -0.832,-0.28 -0.528,0 -0.936,0.32 -0.4,0.32 -0.704,0.792 v 3.792 q 0.272,0.424 0.64,0.656 0.368,0.232 0.84,0.232 z"
           id="path1864" />
        <path
           d="m 45.212085,-96.411997 q 0.544,0 0.928,0.232 0.384,0.224 0.592,0.76 0.208,0.528 0.208,1.44 v 6.28 h -1.84 v -6.016 q 0,-0.576 -0.096,-0.816 -0.088,-0.24 -0.408,-0.24 -0.264,0 -0.536,0.16 -0.264,0.152 -0.552,0.552 v 6.36 h -1.592 v -6.016 q 0,-0.576 -0.096,-0.816 -0.088,-0.24 -0.408,-0.24 -0.272,0 -0.536,0.16 -0.264,0.152 -0.552,0.552 v 6.36 h -1.864 v -8.472 h 1.576 l 0.136,0.88 q 0.376,-0.528 0.792,-0.824 0.416,-0.296 1,-0.296 0.48,0 0.848,0.24 0.376,0.232 0.536,0.8 0.368,-0.464 0.824,-0.752 0.456,-0.288 1.04,-0.288 z"
           id="path1866" />
        <path
           d="m 50.588061,-91.291997 q 0.064,0.792 0.36,1.288 0.304,0.496 0.776,0.728 0.472,0.232 1.048,0.232 0.608,0 1.144,-0.192 0.536,-0.192 1.056,-0.536 l 0.88,1.208 q -0.592,0.496 -1.416,0.8 -0.816,0.304 -1.8,0.304 -1.376,0 -2.32,-0.568 -0.936,-0.568 -1.416,-1.576 -0.48,-1.008 -0.48,-2.32 0,-1.264 0.472,-2.28 0.472,-1.016 1.36,-1.608 0.888,-0.6 2.144,-0.6 1.168,0 2.016,0.512 0.848,0.512 1.312,1.472 0.464,0.952 0.464,2.296 0,0.216 -0.016,0.44 -0.008,0.224 -0.024,0.4 z m 1.816,-3.632 q -0.768,0 -1.264,0.552 -0.488,0.544 -0.576,1.728 h 3.568 q -0.016,-1.072 -0.448,-1.672 -0.424,-0.608 -1.28,-0.608 z"
           id="path1868" />
        <path
           d="m 58.468037,-87.699997 v -1.464 h 1.192 v -5.552 h -1.192 v -1.456 h 2.8 l 0.392,1.944 q 0.464,-1.08 1.168,-1.624 0.704,-0.552 1.768,-0.552 0.408,0 0.72,0.064 0.32,0.064 0.608,0.168 l -0.632,1.776 q -0.248,-0.064 -0.472,-0.096 -0.224,-0.04 -0.504,-0.04 -0.88,0 -1.536,0.688 -0.648,0.68 -1.008,1.848 v 2.832 h 1.688 v 1.464 z m 5.672,-5.168 v -2.248 l 0.288,-1.056 h 1.496 l -0.376,3.304 z"
           id="path1870" />
        <path
           d="m 72.020012,-99.555997 v 9.392 q 0,0.552 0.32,0.784 0.328,0.232 0.88,0.232 0.344,0 0.664,-0.072 0.32,-0.08 0.608,-0.192 l 0.52,1.44 q -0.4,0.2 -0.976,0.352 -0.568,0.16 -1.32,0.16 -1.384,0 -2.096,-0.792 -0.712,-0.792 -0.712,-2.136 v -7.672 h -2.536 v -1.496 z"
           id="path1872" />
        <path
           d="m 82.459988,-96.171997 v 6.976 h 2.232 v 1.496 h -6.824 v -1.496 h 2.48 v -5.48 h -2.4 v -1.496 z m -1.368,-4.272003 q 0.584,0 0.944,0.36 0.368,0.360003 0.368,0.896003 0,0.536 -0.368,0.904 -0.36,0.36 -0.944,0.36 -0.584,0 -0.952,-0.36 -0.368,-0.368 -0.368,-0.904 0,-0.536 0.368,-0.896003 0.368,-0.36 0.952,-0.36 z"
           id="path1874" />
        <path
           d="m 87.187963,-87.699997 v -8.472 h 1.84 l 0.152,1.048 q 0.544,-0.64 1.224,-0.96 0.68,-0.328 1.464,-0.328 1.144,0 1.744,0.664 0.6,0.656 0.6,1.848 v 6.2 h -2.112 v -5.376 q 0,-0.64 -0.08,-1.024 -0.08,-0.392 -0.304,-0.56 -0.224,-0.176 -0.648,-0.176 -0.344,0 -0.664,0.152 -0.312,0.152 -0.592,0.408 -0.272,0.256 -0.512,0.568 v 6.008 z"
           id="path1876" />
        <path
           d="m 101.05194,-89.155997 q 0.56,0 1.048,-0.208 0.496,-0.208 0.952,-0.528 l 0.96,1.352 q -0.56,0.472 -1.352,0.776 -0.792,0.304 -1.696,0.304 -1.328001,0 -2.280001,-0.552 -0.944,-0.56 -1.456,-1.552 -0.504,-1 -0.504,-2.32 0,-1.304 0.512,-2.328 0.52,-1.032 1.472,-1.616 0.96,-0.584 2.288001,-0.584 0.912,0 1.648,0.264 0.744,0.256 1.36,0.768 l -0.936,1.296 q -0.472,-0.328 -0.976,-0.496 -0.496,-0.176 -1.032,-0.176 -0.936,0 -1.528001,0.68 -0.584,0.672 -0.584,2.192 0,1 0.272,1.6 0.28,0.6 0.752,0.864 0.480001,0.264 1.080001,0.264 z"
           id="path1878" />
        <path
           d="m 108.49991,-96.171997 v 5.872 q 0,0.688 0.272,0.968 0.272,0.28 0.792,0.28 0.496,0 0.968,-0.296 0.472,-0.304 0.768,-0.768 v -6.056 h 2.112 v 8.472 h -1.84 l -0.112,-1.04 q -0.456,0.624 -1.168,0.952 -0.712,0.328 -1.472,0.328 -1.224,0 -1.832,-0.688 -0.6,-0.696 -0.6,-1.896 v -6.128 z"
           id="path1880" />
        <path
           d="m 120.89989,-99.779997 2.112,0.224 v 11.856 h -1.872 l -0.128,-1 q -0.392,0.56 -0.984,0.904 -0.592,0.336 -1.376,0.336 -1.072,0 -1.776,-0.56 -0.696,-0.56 -1.04,-1.568 -0.336,-1.016 -0.336,-2.36 0,-1.296 0.4,-2.304 0.4,-1.008 1.152,-1.584 0.76,-0.576 1.8,-0.576 0.624,0 1.136,0.216 0.512,0.216 0.912,0.64 z m -1.48,4.944 q -0.8,0 -1.264,0.696 -0.456,0.688 -0.456,2.2 0,1.064 0.192,1.704 0.192,0.632 0.544,0.912 0.352,0.28 0.832,0.28 0.528,0 0.928,-0.312 0.408,-0.32 0.704,-0.792 v -3.856 q -0.296,-0.392 -0.664,-0.608 -0.36,-0.224 -0.816,-0.224 z"
           id="path1882" />
        <path
           d="m 132.34787,-89.931997 q 0,0.488 0.144,0.712 0.144,0.216 0.464,0.328 l -0.456,1.416 q -0.68,-0.072 -1.16,-0.336 -0.472,-0.272 -0.728,-0.808 -0.48,0.584 -1.216,0.872 -0.728,0.288 -1.528,0.288 -1.296,0 -2.056,-0.736 -0.76,-0.736 -0.76,-1.912 0,-1.352 1.056,-2.08 1.064,-0.736 3.008,-0.736 h 1.184 v -0.456 q 0,-0.752 -0.464,-1.088 -0.464,-0.344 -1.336,-0.344 -0.408,0 -1.024,0.112 -0.608,0.104 -1.256,0.328 l -0.504,-1.448 q 0.808,-0.304 1.624,-0.448 0.824,-0.144 1.496,-0.144 1.784,0 2.648,0.76 0.864,0.752 0.864,2.136 z m -3.792,0.944 q 0.48,0 0.968,-0.272 0.496,-0.272 0.776,-0.76 v -1.648 h -0.832 q -1.176,0 -1.704,0.376 -0.52,0.376 -0.52,1.064 0,0.592 0.336,0.92 0.336,0.32 0.976,0.32 z"
           id="path1884" />
      </g>
    </g>
    <!-- obj1&#45;&gt;libmerlincuda -->
    <g
       id="edge3"
       class="edge">
      <title
         id="title1753">obj1-&gt;libmerlincuda</title>
      <path
         fill="none"
         stroke="#27408b"
         d="m 71.5,-146.31 c 0,8.02 0,17.76 0,26.74"
         id="path1755" />
      <path
         id="polygon1757"
         style="fill:#27408b;stroke:#27408b"
         d="m 75,-119.53 -3.5,10 -3.5,-10 z" />
    </g>
    <!-- libmerlinglobal -->
    <g
       id="node6"
       class="node">
      <title
         id="title1760">libmerlinglobal</title>
      <path
         id="polygon1762"
         style="fill:#1e90ff;stroke:#1e90ff"
         d="m 68,-0.5 v -36 h 163 v 36 z" />
      <g
         aria-label="libmerlinglobal"
         id="text1764"
         style="font-size:16px;font-family:'Fira Code SemiBold';text-anchor:middle">
        <path
           d="m 82.820183,-26.556 v 9.392 q 0,0.552 0.32,0.784 0.328,0.232 0.88,0.232 0.344,0 0.664,-0.072 0.32,-0.08 0.608,-0.192 l 0.52,1.44 q -0.4,0.2 -0.976,0.352 -0.568,0.16 -1.32,0.16 -1.384,0 -2.096,-0.792 -0.712,-0.792 -0.712,-2.136 v -7.672 h -2.536 v -1.496 z"
           id="path1889" />
        <path
           d="m 93.260159,-23.172 v 6.976 h 2.232 v 1.496 h -6.824 v -1.496 h 2.48 v -5.48 h -2.4 v -1.496 z m -1.368,-4.272 q 0.584,0 0.944,0.36 0.368,0.36 0.368,0.896 0,0.536 -0.368,0.904 -0.36,0.36 -0.944,0.36 -0.584,0 -0.952,-0.36 -0.368,-0.368 -0.368,-0.904 0,-0.536 0.368,-0.896 0.368,-0.36 0.952,-0.36 z"
           id="path1891" />
        <path
           d="m 100.10013,-22.22 q 0.424,-0.56 1,-0.872 0.584,-0.32 1.256,-0.32 1.112,0 1.8,0.552 0.696,0.544 1.016,1.544 0.328,1 0.328,2.36 0,1.304 -0.384,2.32 -0.384,1.016 -1.144,1.6 -0.752,0.576 -1.848,0.576 -1.376,0 -2.167996,-1.048 l -0.096,0.808 h -1.872 v -11.856 l 2.111996,-0.224 z m 1.48,6.184 q 0.808,0 1.264,-0.688 0.456,-0.688 0.456,-2.208 0,-1.072 -0.192,-1.704 -0.184,-0.64 -0.536,-0.912 -0.344,-0.28 -0.832,-0.28 -0.528,0 -0.936,0.32 -0.4,0.32 -0.704,0.792 v 3.792 q 0.272,0.424 0.64,0.656 0.368,0.232 0.84,0.232 z"
           id="path1893" />
        <path
           d="m 113.61211,-23.412 q 0.544,0 0.928,0.232 0.384,0.224 0.592,0.76 0.208,0.528 0.208,1.44 v 6.28 h -1.84 v -6.016 q 0,-0.576 -0.096,-0.816 -0.088,-0.24 -0.408,-0.24 -0.264,0 -0.536,0.16 -0.264,0.152 -0.552,0.552 v 6.36 h -1.592 v -6.016 q 0,-0.576 -0.096,-0.816 -0.088,-0.24 -0.408,-0.24 -0.272,0 -0.536,0.16 -0.264,0.152 -0.552,0.552 v 6.36 h -1.864 v -8.472 h 1.576 l 0.136,0.88 q 0.376,-0.528 0.792,-0.824 0.416,-0.296 1,-0.296 0.48,0 0.848,0.24 0.376,0.232 0.536,0.8 0.368,-0.464 0.824,-0.752 0.456,-0.288 1.04,-0.288 z"
           id="path1895" />
        <path
           d="m 118.98809,-18.292 q 0.064,0.792 0.36,1.288 0.304,0.496 0.776,0.728 0.472,0.232 1.048,0.232 0.608,0 1.144,-0.192 0.536,-0.192 1.056,-0.536 l 0.88,1.208 q -0.592,0.496 -1.416,0.8 -0.816,0.304 -1.8,0.304 -1.376,0 -2.32,-0.568 -0.936,-0.568 -1.416,-1.576 -0.48,-1.008 -0.48,-2.32 0,-1.264 0.472,-2.28 0.472,-1.016 1.36,-1.608 0.888,-0.6 2.144,-0.6 1.168,0 2.016,0.512 0.848,0.512 1.312,1.472 0.464,0.952 0.464,2.296 0,0.216 -0.016,0.44 -0.008,0.224 -0.024,0.4 z m 1.816,-3.632 q -0.768,0 -1.264,0.552 -0.488,0.544 -0.576,1.728 h 3.568 q -0.016,-1.072 -0.448,-1.672 -0.424,-0.608 -1.28,-0.608 z"
           id="path1897" />
        <path
           d="m 126.86806,-14.7 v -1.464 h 1.192 v -5.552 h -1.192 v -1.456 h 2.8 l 0.392,1.944 q 0.464,-1.08 1.168,-1.624 0.704,-0.552 1.768,-0.552 0.408,0 0.72,0.064 0.32,0.064 0.608,0.168 l -0.632,1.776 q -0.248,-0.064 -0.472,-0.096 -0.224,-0.04 -0.504,-0.04 -0.88,0 -1.536,0.688 -0.648,0.68 -1.008,1.848 v 2.832 h 1.688 v 1.464 z m 5.672,-5.168 v -2.248 l 0.288,-1.056 h 1.496 l -0.376,3.304 z"
           id="path1899" />
        <path
           d="m 140.42004,-26.556 v 9.392 q 0,0.552 0.32,0.784 0.328,0.232 0.88,0.232 0.344,0 0.664,-0.072 0.32,-0.08 0.608,-0.192 l 0.52,1.44 q -0.4,0.2 -0.976,0.352 -0.568,0.16 -1.32,0.16 -1.384,0 -2.096,-0.792 -0.712,-0.792 -0.712,-2.136 v -7.672 h -2.536 v -1.496 z"
           id="path1901" />
        <path
           d="m 150.86001,-23.172 v 6.976 h 2.232 v 1.496 h -6.824 v -1.496 h 2.48 v -5.48 h -2.4 v -1.496 z m -1.368,-4.272 q 0.584,0 0.944,0.36 0.368,0.36 0.368,0.896 0,0.536 -0.368,0.904 -0.36,0.36 -0.944,0.36 -0.584,0 -0.952,-0.36 -0.368,-0.368 -0.368,-0.904 0,-0.536 0.368,-0.896 0.368,-0.36 0.952,-0.36 z"
           id="path1903" />
        <path
           d="m 155.58799,-14.7 v -8.472 h 1.84 l 0.152,1.048 q 0.544,-0.64 1.224,-0.96 0.68,-0.328 1.464,-0.328 1.144,0 1.744,0.664 0.6,0.656 0.6,1.848 v 6.2 h -2.112 v -5.376 q 0,-0.64 -0.08,-1.024 -0.08,-0.392 -0.304,-0.56 -0.224,-0.176 -0.648,-0.176 -0.344,0 -0.664,0.152 -0.312,0.152 -0.592,0.408 -0.272,0.256 -0.512,0.568 v 6.008 z"
           id="path1905" />
        <path
           d="m 172.49196,-24.364 0.528,1.648 q -0.48,0.168 -1.08,0.24 -0.6,0.064 -1.376,0.064 0.776,0.336 1.176,0.856 0.408,0.512 0.408,1.304 0,0.824 -0.424,1.472 -0.416,0.648 -1.192,1.016 -0.768,0.368 -1.832,0.368 -0.328,0 -0.584,-0.032 -0.256,-0.032 -0.496,-0.088 -0.16,0.088 -0.248,0.256 -0.088,0.168 -0.088,0.344 0,0.24 0.184,0.416 0.192,0.168 0.816,0.168 h 1.44 q 0.936,0 1.64,0.32 0.712,0.312 1.104,0.848 0.4,0.536 0.4,1.232 0,1.28 -1.112,2 -1.112,0.72 -3.248,0.72 -1.528,0 -2.384,-0.312 -0.848,-0.312 -1.192,-0.912 -0.344,-0.592 -0.344,-1.432 h 1.88 q 0,0.408 0.16,0.672 0.168,0.264 0.616,0.392 0.456,0.128 1.304,0.128 0.848,0 1.328,-0.136 0.488,-0.136 0.688,-0.392 0.2,-0.248 0.2,-0.584 0,-0.456 -0.384,-0.712 -0.384,-0.256 -1.088,-0.256 h -1.4 q -1.28,0 -1.864,-0.496 -0.584,-0.504 -0.584,-1.16 0,-0.448 0.24,-0.856 0.248,-0.416 0.704,-0.704 -0.784,-0.416 -1.136,-0.992 -0.344,-0.584 -0.344,-1.408 0,-0.92 0.464,-1.6 0.464,-0.68 1.288,-1.056 0.824,-0.376 1.896,-0.376 0.984,0.008 1.672,-0.12 0.696,-0.128 1.224,-0.352 0.536,-0.224 1.04,-0.488 z m -3.896,2.368 q -0.752,0 -1.152,0.44 -0.392,0.44 -0.392,1.168 0,0.752 0.408,1.192 0.408,0.44 1.144,0.44 0.728,0 1.104,-0.424 0.384,-0.432 0.384,-1.232 0,-0.8 -0.384,-1.192 -0.376,-0.392 -1.112,-0.392 z"
           id="path1907" />
        <path
           d="m 178.81994,-26.556 v 9.392 q 0,0.552 0.32,0.784 0.328,0.232 0.88,0.232 0.344,0 0.664,-0.072 0.32,-0.08 0.608,-0.192 l 0.52,1.44 q -0.4,0.2 -0.976,0.352 -0.568,0.16 -1.32,0.16 -1.384,0 -2.096,-0.792 -0.712,-0.792 -0.712,-2.136 v -7.672 h -2.536 v -1.496 z"
           id="path1909" />
        <path
           d="m 187.90791,-23.412 q 1.264,0 2.144,0.552 0.88,0.552 1.336,1.56 0.464,1 0.464,2.344 0,1.376 -0.464,2.384 -0.464,1.008 -1.344,1.56 -0.88,0.552 -2.144,0.552 -1.256,0 -2.144,-0.536 -0.88,-0.544 -1.344,-1.544 -0.464,-1.008 -0.464,-2.4 0,-1.328 0.464,-2.336 0.464,-1.008 1.352,-1.568 0.888,-0.568 2.144,-0.568 z m 0,1.592 q -0.888,0 -1.328,0.696 -0.432,0.696 -0.432,2.184 0,1.504 0.432,2.2 0.432,0.688 1.32,0.688 0.888,0 1.32,-0.688 0.432,-0.696 0.432,-2.216 0,-1.48 -0.432,-2.168 -0.432,-0.696 -1.312,-0.696 z"
           id="path1911" />
        <path
           d="m 196.09989,-22.22 q 0.424,-0.56 1,-0.872 0.584,-0.32 1.256,-0.32 1.112,0 1.8,0.552 0.696,0.544 1.016,1.544 0.328,1 0.328,2.36 0,1.304 -0.384,2.32 -0.384,1.016 -1.144,1.6 -0.752,0.576 -1.848,0.576 -1.376,0 -2.168,-1.048 l -0.096,0.808 h -1.872 v -11.856 l 2.112,-0.224 z m 1.48,6.184 q 0.808,0 1.264,-0.688 0.456,-0.688 0.456,-2.208 0,-1.072 -0.192,-1.704 -0.184,-0.64 -0.536,-0.912 -0.344,-0.28 -0.832,-0.28 -0.528,0 -0.936,0.32 -0.4,0.32 -0.704,0.792 v 3.792 q 0.272,0.424 0.64,0.656 0.368,0.232 0.84,0.232 z"
           id="path1913" />
        <path
           d="m 210.34787,-16.932 q 0,0.488 0.144,0.712 0.144,0.216 0.464,0.328 l -0.456,1.416 q -0.68,-0.072 -1.16,-0.336 -0.472,-0.272 -0.728,-0.808 -0.48,0.584 -1.216,0.872 -0.728,0.288 -1.528,0.288 -1.296,0 -2.056,-0.736 -0.76,-0.736 -0.76,-1.912 0,-1.352 1.056,-2.08 1.064,-0.736 3.008,-0.736 h 1.184 v -0.456 q 0,-0.752 -0.464,-1.088 -0.464,-0.344 -1.336,-0.344 -0.408,0 -1.024,0.112 -0.608,0.104 -1.256,0.328 l -0.504,-1.448 q 0.808,-0.304 1.624,-0.448 0.824,-0.144 1.496,-0.144 1.784,0 2.648,0.76 0.864,0.752 0.864,2.136 z m -3.792,0.944 q 0.48,0 0.968,-0.272 0.496,-0.272 0.776,-0.76 v -1.648 h -0.832 q -1.176,0 -1.704,0.376 -0.52,0.376 -0.52,1.064 0,0.592 0.336,0.92 0.336,0.32 0.976,0.32 z"
           id="path1915" />
        <path
           d="m 217.21984,-26.556 v 9.392 q 0,0.552 0.32,0.784 0.328,0.232 0.88,0.232 0.344,0 0.664,-0.072 0.32,-0.08 0.608,-0.192 l 0.52,1.44 q -0.4,0.2 -0.976,0.352 -0.568,0.16 -1.32,0.16 -1.384,0 -2.096,-0.792 -0.712,-0.792 -0.712,-2.136 v -7.672 h -2.536 v -1.496 z"
           id="path1917" />
      </g>
    </g>
    <!-- obj2&#45;&gt;libmerlinglobal -->
    <g
       id="edge4"
       class="edge">
      <title
         id="title1767">obj2-&gt;libmerlinglobal</title>
      <path
         fill="none"
         stroke="#27408b"
         d="m 209.38,-73.31 c -10,8.98 -22.39,20.12 -33.3,29.92"
         id="path1769" />
      <path
         id="polygon1771"
         style="fill:#27408b;stroke:#27408b"
         d="m 178.22,-40.61 -9.77,4.08 5.1,-9.29 z" />
    </g>
    <!-- libmerlincuda&#45;&gt;libmerlinglobal -->
    <g
       id="edge5"
       class="edge">
      <title
         id="title1774">libmerlincuda-&gt;libmerlinglobal</title>
      <path
         fill="none"
         stroke="#27408b"
         d="m 90.38,-73.31 c 9.87,8.98 22.1,20.12 32.88,29.92"
         id="path1776" />
      <path
         id="polygon1778"
         style="fill:#27408b;stroke:#27408b"
         d="m 125.75,-45.85 5.04,9.32 -9.75,-4.14 z" />
    </g>
  </g>
</svg>
