<?xml version="1.0" encoding="UTF-8" standalone="no"?>
<!DOCTYPE svg PUBLIC "-//W3C//DTD SVG 1.1//EN"
 "http://www.w3.org/Graphics/SVG/1.1/DTD/svg11.dtd">
<!-- Generated by graphviz version 2.43.0 (0)
 -->
<!-- Title: G Pages: 1 -->
<svg width="474pt" height="469pt"
 viewBox="0.00 0.00 474.00 469.00" xmlns="http://www.w3.org/2000/svg" xmlns:xlink="http://www.w3.org/1999/xlink">
<g id="graph0" class="graph" transform="scale(1 1) rotate(0) translate(4 465)">
<title>G</title>
<polygon fill="white" stroke="transparent" points="-4,4 -4,-465 470,-465 470,4 -4,4"/>
<g id="clust1" class="cluster">
<title>cluster_0</title>
<polygon fill="none" stroke="black" points="100,-304 100,-453 350,-453 350,-304 100,-304"/>
<text text-anchor="middle" x="225" y="-311.8" font-family="Fira Code SemiBold" font-size="14.00">System and Compiler</text>
</g>
<g id="clust3" class="cluster">
<title>cluster_1</title>
<polygon fill="none" stroke="black" points="8,-8 8,-230 276,-230 276,-8 8,-8"/>
<text text-anchor="middle" x="142" y="-15.8" font-family="Fira Code SemiBold" font-size="14.00">Basic utils</text>
</g>
<g id="clust5" class="cluster">
<title>cluster_2</title>
<polygon fill="none" stroke="black" points="284,-8 284,-230 458,-230 458,-8 284,-8"/>
<text text-anchor="middle" x="371" y="-15.8" font-family="Fira Code SemiBold" font-size="14.00">cuda</text>
</g>
<!-- platform -->
<g id="node1" class="node">
<title>platform</title>
<polygon fill="none" stroke="black" points="108.5,-408.5 108.5,-444.5 191.5,-444.5 191.5,-408.5 108.5,-408.5"/>
<text text-anchor="middle" x="150" y="-422.8" font-family="Fira Code SemiBold" font-size="14.00">platform</text>
</g>
<!-- cuda_decorator -->
<g id="node2" class="node">
<title>cuda_decorator</title>
<polygon fill="none" stroke="black" points="210,-408.5 210,-444.5 342,-444.5 342,-408.5 210,-408.5"/>
<text text-anchor="middle" x="276" y="-422.8" font-family="Fira Code SemiBold" font-size="14.00">cuda_decorator</text>
</g>
<!-- exports -->
<g id="node3" class="node">
<title>exports</title>
<polygon fill="none" stroke="black" points="108,-335.5 108,-371.5 182,-371.5 182,-335.5 108,-335.5"/>
<text text-anchor="middle" x="145" y="-349.8" font-family="Fira Code SemiBold" font-size="14.00">exports</text>
</g>
<!-- exports&#45;&gt;platform -->
<g id="edge1" class="edge">
<title>exports&#45;&gt;platform</title>
<path fill="none" stroke="black" d="M146.21,-371.69C146.78,-379.71 147.46,-389.45 148.09,-398.43"/>
<polygon fill="black" stroke="black" points="144.61,-398.74 148.8,-408.47 151.59,-398.25 144.61,-398.74"/>
</g>
<!-- vector -->
<g id="node4" class="node">
<title>vector</title>
<polygon fill="none" stroke="black" points="16,-185.5 16,-221.5 82,-221.5 82,-185.5 16,-185.5"/>
<text text-anchor="middle" x="49" y="-199.8" font-family="Fira Code SemiBold" font-size="14.00">vector</text>
</g>
<!-- filelock -->
<g id="node5" class="node">
<title>filelock</title>
<polygon fill="none" stroke="black" points="184.5,-185.5 184.5,-221.5 267.5,-221.5 267.5,-185.5 184.5,-185.5"/>
<text text-anchor="middle" x="226" y="-199.8" font-family="Fira Code SemiBold" font-size="14.00">filelock</text>
</g>
<!-- logger -->
<g id="node6" class="node">
<title>logger</title>
<polygon fill="none" stroke="black" points="100,-185.5 100,-221.5 166,-221.5 166,-185.5 100,-185.5"/>
<text text-anchor="middle" x="133" y="-199.8" font-family="Fira Code SemiBold" font-size="14.00">logger</text>
</g>
<!-- logger&#45;&gt;platform -->
<g id="edge11" class="edge">
<title>logger&#45;&gt;platform</title>
<path fill="none" stroke="black" d="M152.98,-230C165.06,-246.89 179.67,-270.31 188.02,-294.36"/>
<polygon fill="black" stroke="black" points="184.7,-295.48 191,-304 191.39,-293.41 184.7,-295.48"/>
</g>
<!-- utils -->
<g id="node7" class="node">
<title>utils</title>
<polygon fill="none" stroke="black" points="68,-112.5 68,-148.5 126,-148.5 126,-112.5 68,-112.5"/>
<text text-anchor="middle" x="97" y="-126.8" font-family="Fira Code SemiBold" font-size="14.00">utils</text>
</g>
<!-- utils&#45;&gt;vector -->
<g id="edge2" class="edge">
<title>utils&#45;&gt;vector</title>
<path fill="none" stroke="black" d="M85.38,-148.69C79.6,-157.23 72.51,-167.73 66.12,-177.18"/>
<polygon fill="black" stroke="black" points="63.21,-175.23 60.51,-185.47 69.01,-179.15 63.21,-175.23"/>
</g>
<!-- utils&#45;&gt;logger -->
<g id="edge3" class="edge">
<title>utils&#45;&gt;logger</title>
<path fill="none" stroke="black" d="M105.71,-148.69C109.92,-156.97 115.05,-167.09 119.72,-176.31"/>
<polygon fill="black" stroke="black" points="116.72,-178.13 124.37,-185.47 122.96,-174.97 116.72,-178.13"/>
</g>
<!-- iterator -->
<g id="node8" class="node">
<title>iterator</title>
<polygon fill="none" stroke="black" points="35.5,-39.5 35.5,-75.5 118.5,-75.5 118.5,-39.5 35.5,-39.5"/>
<text text-anchor="middle" x="77" y="-53.8" font-family="Fira Code SemiBold" font-size="14.00">iterator</text>
</g>
<!-- iterator&#45;&gt;vector -->
<g id="edge5" class="edge">
<title>iterator&#45;&gt;vector</title>
<path fill="none" stroke="black" d="M70.21,-75.58C66.35,-85.96 61.75,-99.56 59,-112 54.38,-132.93 51.85,-157.09 50.49,-175.17"/>
<polygon fill="black" stroke="black" points="46.99,-175.09 49.8,-185.31 53.97,-175.57 46.99,-175.09"/>
</g>
<!-- iterator&#45;&gt;utils -->
<g id="edge4" class="edge">
<title>iterator&#45;&gt;utils</title>
<path fill="none" stroke="black" d="M81.84,-75.69C84.13,-83.8 86.91,-93.66 89.46,-102.72"/>
<polygon fill="black" stroke="black" points="86.12,-103.79 92.2,-112.47 92.86,-101.9 86.12,-103.79"/>
</g>
<!-- device -->
<g id="node9" class="node">
<title>device</title>
<polygon fill="none" stroke="black" points="292,-185.5 292,-221.5 358,-221.5 358,-185.5 292,-185.5"/>
<text text-anchor="middle" x="325" y="-199.8" font-family="Fira Code SemiBold" font-size="14.00">device</text>
</g>
<!-- device&#45;&gt;platform -->
<g id="edge12" class="edge">
<title>device&#45;&gt;platform</title>
<path fill="none" stroke="black" d="M309.63,-230C299.21,-246.84 284.19,-270.39 266.69,-295.56"/>
<polygon fill="black" stroke="black" points="263.65,-293.8 260.78,-304 269.39,-297.82 263.65,-293.8"/>
</g>
<!-- context -->
<g id="node10" class="node">
<title>context</title>
<polygon fill="none" stroke="black" points="376,-185.5 376,-221.5 450,-221.5 450,-185.5 376,-185.5"/>
<text text-anchor="middle" x="413" y="-199.8" font-family="Fira Code SemiBold" font-size="14.00">context</text>
</g>
<!-- stream -->
<g id="node11" class="node">
<title>stream</title>
<polygon fill="none" stroke="black" points="336,-112.5 336,-148.5 402,-148.5 402,-112.5 336,-112.5"/>
<text text-anchor="middle" x="369" y="-126.8" font-family="Fira Code SemiBold" font-size="14.00">stream</text>
</g>
<!-- stream&#45;&gt;device -->
<g id="edge7" class="edge">
<title>stream&#45;&gt;device</title>
<path fill="none" stroke="black" d="M358.35,-148.69C353.11,-157.15 346.68,-167.52 340.87,-176.89"/>
<polygon fill="black" stroke="black" points="337.85,-175.13 335.55,-185.47 343.8,-178.81 337.85,-175.13"/>
</g>
<!-- stream&#45;&gt;context -->
<g id="edge6" class="edge">
<title>stream&#45;&gt;context</title>
<path fill="none" stroke="black" d="M379.65,-148.69C384.89,-157.15 391.32,-167.52 397.13,-176.89"/>
<polygon fill="black" stroke="black" points="394.2,-178.81 402.45,-185.47 400.15,-175.13 394.2,-178.81"/>
</g>
<!-- event -->
<g id="node12" class="node">
<title>event</title>
<polygon fill="none" stroke="black" points="340,-39.5 340,-75.5 398,-75.5 398,-39.5 340,-39.5"/>
<text text-anchor="middle" x="369" y="-53.8" font-family="Fira Code SemiBold" font-size="14.00">event</text>
</g>
<!-- event&#45;&gt;device -->
<g id="edge9" class="edge">
<title>event&#45;&gt;device</title>
<path fill="none" stroke="black" d="M350.95,-75.51C341.94,-85.23 331.94,-98.21 327,-112 319.74,-132.28 319.68,-156.8 321.19,-175.19"/>
<polygon fill="black" stroke="black" points="317.72,-175.65 322.22,-185.24 324.68,-174.93 317.72,-175.65"/>
</g>
<!-- event&#45;&gt;context -->
<g id="edge8" class="edge">
<title>event&#45;&gt;context</title>
<path fill="none" stroke="black" d="M387.05,-75.51C396.06,-85.23 406.06,-98.21 411,-112 418.26,-132.28 418.32,-156.8 416.81,-175.19"/>
<polygon fill="black" stroke="black" points="413.32,-174.93 415.78,-185.24 420.28,-175.65 413.32,-174.93"/>
</g>
<!-- event&#45;&gt;stream -->
<g id="edge10" class="edge">
<title>event&#45;&gt;stream</title>
<path fill="none" stroke="black" d="M369,-75.69C369,-83.71 369,-93.45 369,-102.43"/>
<polygon fill="black" stroke="black" points="365.5,-102.47 369,-112.47 372.5,-102.47 365.5,-102.47"/>
</g>
</g>
</svg>
