<?xml version="1.0" encoding="UTF-8" standalone="no"?>
<!-- Generated by graphviz version 2.43.0 (0)
 -->

<!-- Title: EnvCompilation Pages: 1 -->

<svg
   width="110.625pt"
   height="143.25pt"
   viewBox="0 0 110.25127 143.25"
   version="1.1"
   id="svg8"
   sodipodi:docname="env_comp.svg"
   inkscape:version="1.3.1 (9b9bdc1480, 2023-11-25, custom)"
   xmlns:inkscape="http://www.inkscape.org/namespaces/inkscape"
   xmlns:sodipodi="http://sodipodi.sourceforge.net/DTD/sodipodi-0.dtd"
   xmlns="http://www.w3.org/2000/svg"
   xmlns:svg="http://www.w3.org/2000/svg">
  <defs
     id="defs8" />
  <sodipodi:namedview
     id="namedview8"
     pagecolor="#ffffff"
     bordercolor="#000000"
     borderopacity="0.25"
     inkscape:showpageshadow="2"
     inkscape:pageopacity="0.0"
     inkscape:pagecheckerboard="0"
     inkscape:deskcolor="#d1d1d1"
     inkscape:document-units="pt"
     showgrid="false"
     inkscape:zoom="3.2984293"
     inkscape:cx="98.228572"
     inkscape:cy="127.33333"
     inkscape:window-width="1850"
     inkscape:window-height="1016"
     inkscape:window-x="70"
     inkscape:window-y="27"
     inkscape:window-maximized="1"
     inkscape:current-layer="svg8" />
  <g
     id="graph0"
     class="graph"
     transform="matrix(0.74999999,0,0,0.74999999,2.7500033,140.25)">
    <title
       id="title1">EnvCompilation</title>
    <path
       id="polygon1"
       style="fill:#ffffff"
       d="M -4,4 V -187 H 143.5 V 4 Z" />
    <!-- cpp -->
    <g
       id="node1"
       class="node">
      <title
         id="title2">cpp</title>
      <path
         id="polygon2"
         style="fill:#b0e2ff;stroke:#b0e2ff"
         d="m 0,-146.5 v -36 h 65 v 36 z" />
      <path
         d="m 12.284061,-170.1 0.256,3.096 -2.856,-1.2 -0.624,1.92 3.024,0.712 -2.024,2.36 1.624,1.176 1.616,-2.64 1.616,2.64 1.624,-1.176 -2.024,-2.36 3.024,-0.712 -0.624,-1.92 -2.856,1.2 0.256,-3.096 z m 8.959976,7.984 q 0,-0.448 0.216,-0.824 0.224,-0.376 0.6,-0.6 0.376,-0.224 0.832,-0.224 0.464,0 0.84,0.224 0.376,0.224 0.592,0.6 0.224,0.376 0.224,0.824 0,0.448 -0.224,0.832 -0.216,0.376 -0.592,0.6 -0.376,0.224 -0.84,0.224 -0.456,0 -0.832,-0.224 -0.376,-0.224 -0.6,-0.6 -0.216,-0.384 -0.216,-0.832 z m 12.007975,-0.04 q 0.56,0 1.048,-0.208 0.496,-0.208 0.952,-0.528 l 0.96,1.352 q -0.56,0.472 -1.352,0.776 -0.792,0.304 -1.696,0.304 -1.328,0 -2.28,-0.552 -0.944,-0.56 -1.456,-1.552 -0.504,-1 -0.504,-2.32 0,-1.304 0.512,-2.328 0.52,-1.032 1.472,-1.616 0.96,-0.584 2.288,-0.584 0.912,0 1.648,0.264 0.744,0.256 1.36,0.768 l -0.936,1.296 q -0.472,-0.328 -0.976,-0.496 -0.496,-0.176 -1.032,-0.176 -0.936,0 -1.528,0.68 -0.584,0.672 -0.584,2.192 0,1 0.272,1.6 0.28,0.6 0.752,0.864 0.48,0.264 1.08,0.264 z m 9.711976,-7.256 q 1.12,0 1.792,0.552 0.68,0.544 0.984,1.544 0.312,1 0.312,2.36 0,1.304 -0.376,2.32 -0.376,1.016 -1.104,1.6 -0.72,0.576 -1.776,0.576 -1.296,0 -2.096,-0.92 v 3.944 l -2.112,0.224 v -11.96 h 1.856 l 0.112,1.032 q 0.504,-0.656 1.128,-0.96 0.624,-0.312 1.28,-0.312 z m -0.616,1.584 q -0.536,0 -0.944,0.32 -0.4,0.32 -0.704,0.792 v 3.792 q 0.288,0.432 0.656,0.648 0.368,0.216 0.832,0.216 0.808,0 1.232,-0.672 0.432,-0.68 0.432,-2.2 0,-1.072 -0.176,-1.704 -0.168,-0.64 -0.504,-0.912 -0.336,-0.28 -0.824,-0.28 z m 10.215975,-1.584 q 1.12,0 1.792,0.552 0.68,0.544 0.984,1.544 0.312,1 0.312,2.36 0,1.304 -0.376,2.32 -0.376,1.016 -1.104,1.6 -0.72,0.576 -1.776,0.576 -1.296,0 -2.096,-0.92 v 3.944 l -2.112,0.224 v -11.96 h 1.856 l 0.112,1.032 q 0.504,-0.656 1.128,-0.96 0.624,-0.312 1.28,-0.312 z m -0.616,1.584 q -0.536,0 -0.944,0.32 -0.4,0.32 -0.704,0.792 v 3.792 q 0.288,0.432 0.656,0.648 0.368,0.216 0.832,0.216 0.808,0 1.232,-0.672 0.432,-0.68 0.432,-2.2 0,-1.072 -0.176,-1.704 -0.168,-0.64 -0.504,-0.912 -0.336,-0.28 -0.824,-0.28 z"
         id="text2"
         style="font-size:16px;font-family:'Fira Code SemiBold';text-anchor:middle"
         aria-label="*.cpp" />
    </g>
    <!-- obj -->
    <g
       id="node3"
       class="node">
      <title
         id="title3">obj</title>
      <path
         id="polygon3"
         style="fill:#63b8ff;stroke:#63b8ff"
         d="m 4.5,-73.5 v -36 h 134 v 36 z" />
      <path
         d="m 17.684146,-97.099997 0.256,3.096 -2.856,-1.2 -0.624,1.92 3.024,0.712 -2.024,2.36 1.624,1.176 1.616,-2.64 1.616,2.64 1.624,-1.176 -2.024,-2.36 3.024,-0.712 -0.624,-1.92 -2.856,1.2 0.256,-3.096 z m 8.959976,7.984 q 0,-0.448 0.216,-0.824 0.224,-0.376 0.6,-0.6 0.376,-0.224 0.832,-0.224 0.464,0 0.84,0.224 0.376,0.224 0.592,0.6 0.224,0.376 0.224,0.824 0,0.448 -0.224,0.832 -0.216,0.376 -0.592,0.6 -0.376,0.224 -0.84,0.224 -0.456,0 -0.832,-0.224 -0.376,-0.224 -0.6,-0.6 -0.216,-0.384 -0.216,-0.832 z m 11.263976,-7.296 q 1.264,0 2.144,0.552 0.88,0.552 1.336,1.56 0.464,1 0.464,2.344 0,1.376 -0.464,2.384 -0.464,1.008 -1.344,1.56 -0.88,0.552 -2.144,0.552 -1.256,0 -2.144,-0.536 -0.88,-0.544 -1.344,-1.544 -0.464,-1.008 -0.464,-2.4 0,-1.328 0.464,-2.336 0.464,-1.008 1.352,-1.568 0.888,-0.568 2.144,-0.568 z m 0,1.592 q -0.888,0 -1.328,0.696 -0.432,0.696 -0.432,2.184 0,1.504 0.432,2.2 0.432,0.688 1.32,0.688 0.888,0 1.32,-0.688 0.432,-0.696 0.432,-2.216 0,-1.48 -0.432,-2.168 -0.432,-0.696 -1.312,-0.696 z m 19.199951,-1.592 q 1.264,0 2.144,0.552 0.88,0.552 1.336,1.56 0.464,1 0.464,2.344 0,1.376 -0.464,2.384 -0.464,1.008 -1.344,1.56 -0.88,0.552 -2.144,0.552 -1.256,0 -2.144,-0.536 -0.88,-0.544 -1.344,-1.544 -0.464,-1.008 -0.464,-2.4 0,-1.328 0.464,-2.336 0.464,-1.008 1.352,-1.568 0.888,-0.568 2.144,-0.568 z m 0,1.592 q -0.888,0 -1.328,0.696 -0.432,0.696 -0.432,2.184 0,1.504 0.432,2.2 0.432,0.688 1.32,0.688 0.888,0 1.32,-0.688 0.432,-0.696 0.432,-2.216 0,-1.48 -0.432,-2.168 -0.432,-0.696 -1.312,-0.696 z m 6.159975,7.12 v -1.464 h 1.192 v -5.552 h -1.192 v -1.456 h 2.8 l 0.392,1.944 q 0.464,-1.08 1.168,-1.624 0.704,-0.552 1.768,-0.552 0.408,0 0.72,0.064 0.32,0.064 0.608,0.168 l -0.632,1.776 q -0.248,-0.064 -0.472,-0.096 -0.224,-0.04 -0.504,-0.04 -0.88,0 -1.536,0.688 -0.648,0.68 -1.008,1.848 v 2.832 h 1.688 v 1.464 z m 5.672,-5.168 v -2.248 l 0.288,-1.056 h 1.496 l -0.376,3.304 z m 15.943952,-4.232 0.256,3.096 -2.856,-1.2 -0.624,1.92 3.024,0.712 -2.024,2.36 1.624,1.176 1.616,-2.64 1.616,2.64 1.624,-1.176 -2.024,-2.36 3.024,-0.712 -0.624,-1.92 -2.856,1.2 0.256,-3.096 z m 8.959975,7.984 q 0,-0.448 0.216,-0.824 0.224,-0.376 0.6,-0.6 0.376,-0.224 0.832,-0.224 0.464,0 0.84,0.224 0.376,0.224 0.592,0.6 0.224,0.376 0.224,0.824 0,0.448 -0.224,0.832 -0.216,0.376 -0.592,0.6 -0.376,0.224 -0.84,0.224 -0.456,0 -0.832,-0.224 -0.376,-0.224 -0.6,-0.6 -0.216,-0.384 -0.216,-0.832 z m 11.263979,-7.296 q 1.264,0 2.144,0.552 0.88,0.552 1.336,1.56 0.464,1 0.464,2.344 0,1.376 -0.464,2.384 -0.464,1.008 -1.344,1.56 -0.88,0.552 -2.144,0.552 -1.256,0 -2.144,-0.536 -0.88,-0.544 -1.344,-1.544 -0.464,-1.008 -0.464,-2.4 0,-1.328 0.464,-2.336 0.464,-1.008 1.352,-1.568 0.888,-0.568 2.144,-0.568 z m 0,1.592 q -0.888,0 -1.328,0.696 -0.432,0.696 -0.432,2.184 0,1.504 0.432,2.2 0.432,0.688 1.32,0.688 0.888,0 1.32,-0.688 0.432,-0.696 0.432,-2.216 0,-1.48 -0.432,-2.168 -0.432,-0.696 -1.312,-0.696 z m 8.19197,-0.4 q 0.424,-0.56 1,-0.872 0.584,-0.32 1.256,-0.32 1.112,0 1.8,0.552 0.696,0.544 1.016,1.544 0.328,1 0.328,2.36 0,1.304 -0.384,2.32 -0.384,1.016 -1.144,1.6 -0.752,0.576 -1.848,0.576 -1.376,0 -2.168,-1.048 l -0.096,0.808 h -1.872 v -11.856 l 2.112,-0.224 z m 1.48,6.184 q 0.808,0 1.264,-0.688 0.456,-0.688 0.456,-2.208 0,-1.072 -0.192,-1.704 -0.184,-0.64 -0.536,-0.912 -0.344,-0.28 -0.832,-0.28 -0.528,0 -0.936,0.32 -0.4,0.32 -0.704,0.792 v 3.792 q 0.272,0.424 0.64,0.656 0.368,0.232 0.84,0.232 z m 12.12798,-7.136 v 6.4 q 0,1.688 -0.672,2.792 -0.664,1.104 -1.96,1.76 -1.296,0.656 -3.176,1.008 l -0.344,-1.616 q 1.28,-0.264 2.176,-0.696 0.904,-0.432 1.384,-1.176 0.48,-0.744 0.48,-1.936 v -5.04 h -3.216 v -1.496 z m -1.504,-4.272003 q 0.576,0 0.944,0.36 0.368,0.360003 0.368,0.896003 0,0.536 -0.368,0.904 -0.368,0.36 -0.944,0.36 -0.584,0 -0.952,-0.36 -0.368,-0.368 -0.368,-0.904 0,-0.536 0.368,-0.896003 0.368,-0.36 0.952,-0.36 z"
         id="text3"
         style="font-size:16px;font-family:'Fira Code SemiBold';text-anchor:middle"
         aria-label="*.o or *.obj" />
    </g>
    <!-- cpp&#45;&gt;obj -->
    <g
       id="edge1"
       class="edge">
      <title
         id="title4">cpp-&gt;obj</title>
      <path
         fill="none"
         stroke="#696969"
         d="m 41.94,-146.31 c 4.6,8.37 10.23,18.61 15.33,27.91"
         id="path4" />
      <path
         id="polygon4"
         style="fill:#696969;stroke:#696969"
         d="m 62.15,-109.53 -7.89,-7.08 6.14,-3.37 z" />
    </g>
    <!-- cu -->
    <g
       id="node2"
       class="node">
      <title
         id="title5">cu</title>
      <path
         id="polygon5"
         style="fill:#b0e2ff;stroke:#b0e2ff"
         d="m 83.5,-146.5 v -36 h 56 v 36 z" />
      <path
         d="m 96.084049,-170.1 0.256,3.096 -2.856,-1.2 -0.624,1.92 3.024,0.712 -2.024,2.36 1.624,1.176 1.616,-2.64 1.616,2.64 1.624001,-1.176 -2.024001,-2.36 3.024001,-0.712 -0.624,-1.92 -2.856001,1.2 0.256,-3.096 z m 8.959971,7.984 q 0,-0.448 0.216,-0.824 0.224,-0.376 0.6,-0.6 0.376,-0.224 0.832,-0.224 0.464,0 0.84,0.224 0.376,0.224 0.592,0.6 0.224,0.376 0.224,0.824 0,0.448 -0.224,0.832 -0.216,0.376 -0.592,0.6 -0.376,0.224 -0.84,0.224 -0.456,0 -0.832,-0.224 -0.376,-0.224 -0.6,-0.6 -0.216,-0.384 -0.216,-0.832 z m 12.00798,-0.04 q 0.56,0 1.048,-0.208 0.496,-0.208 0.952,-0.528 l 0.96,1.352 q -0.56,0.472 -1.352,0.776 -0.792,0.304 -1.696,0.304 -1.328,0 -2.28,-0.552 -0.944,-0.56 -1.456,-1.552 -0.504,-1 -0.504,-2.32 0,-1.304 0.512,-2.328 0.52,-1.032 1.472,-1.616 0.96,-0.584 2.288,-0.584 0.912,0 1.648,0.264 0.744,0.256 1.36,0.768 l -0.936,1.296 q -0.472,-0.328 -0.976,-0.496 -0.496,-0.176 -1.032,-0.176 -0.936,0 -1.528,0.68 -0.584,0.672 -0.584,2.192 0,1 0.272,1.6 0.28,0.6 0.752,0.864 0.48,0.264 1.08,0.264 z m 7.44798,-7.016 v 5.872 q 0,0.688 0.272,0.968 0.272,0.28 0.792,0.28 0.496,0 0.968,-0.296 0.472,-0.304 0.768,-0.768 v -6.056 h 2.112 v 8.472 h -1.84 l -0.112,-1.04 q -0.456,0.624 -1.168,0.952 -0.712,0.328 -1.472,0.328 -1.224,0 -1.832,-0.688 -0.6,-0.696 -0.6,-1.896 v -6.128 z"
         id="text5"
         style="font-size:16px;font-family:'Fira Code SemiBold';text-anchor:middle"
         aria-label="*.cu" />
    </g>
    <!-- cu&#45;&gt;obj -->
    <g
       id="edge2"
       class="edge">
      <title
         id="title6">cu-&gt;obj</title>
      <path
         fill="none"
         stroke="#696969"
         d="m 101.82,-146.31 c -4.72,8.37 -10.49,18.61 -15.73,27.91"
         id="path6" />
      <path
         id="polygon6"
         style="fill:#696969;stroke:#696969"
         d="m 81.09,-109.53 1.86,-10.43 6.1,3.44 z" />
    </g>
    <!-- libmerlinenv -->
    <g
       id="node4"
       class="node">
      <title
         id="title7">libmerlinenv</title>
      <path
         id="polygon7"
         style="fill:#1e90ff;stroke:#1e90ff"
         d="m 4.5,-0.5 v -36 h 134 v 36 z" />
      <path
         d="m 19.220146,-26.556 v 9.392 q 0,0.552 0.32,0.784 0.328,0.232 0.88,0.232 0.344,0 0.664,-0.072 0.32,-0.08 0.608,-0.192 l 0.52,1.44 q -0.4,0.2 -0.976,0.352 -0.568,0.16 -1.32,0.16 -1.384,0 -2.096,-0.792 -0.712,-0.792 -0.712,-2.136 v -7.672 h -2.536 v -1.496 z m 10.439976,3.384 v 6.976 h 2.232 v 1.496 h -6.824 v -1.496 h 2.48 v -5.48 h -2.4 v -1.496 z m -1.368,-4.272 q 0.584,0 0.944,0.36 0.368,0.36 0.368,0.896 0,0.536 -0.368,0.904 -0.36,0.36 -0.944,0.36 -0.584,0 -0.952,-0.36 -0.368,-0.368 -0.368,-0.904 0,-0.536 0.368,-0.896 0.368,-0.36 0.952,-0.36 z m 8.207976,5.224 q 0.424,-0.56 1,-0.872 0.584,-0.32 1.256,-0.32 1.112,0 1.8,0.552 0.696,0.544 1.016,1.544 0.328,1 0.328,2.36 0,1.304 -0.384,2.32 -0.384,1.016 -1.144,1.6 -0.752,0.576 -1.848,0.576 -1.376,0 -2.168,-1.048 l -0.096,0.808 h -1.872 v -11.856 l 2.112,-0.224 z m 1.48,6.184 q 0.808,0 1.264,-0.688 0.456,-0.688 0.456,-2.208 0,-1.072 -0.192,-1.704 -0.184,-0.64 -0.536,-0.912 -0.344,-0.28 -0.832,-0.28 -0.528,0 -0.936,0.32 -0.4,0.32 -0.704,0.792 v 3.792 q 0.272,0.424 0.64,0.656 0.368,0.232 0.84,0.232 z m 12.031975,-7.376 q 0.544,0 0.928,0.232 0.384,0.224 0.592,0.76 0.208,0.528 0.208,1.44 v 6.28 h -1.84 v -6.016 q 0,-0.576 -0.096,-0.816 -0.088,-0.24 -0.408,-0.24 -0.264,0 -0.536,0.16 -0.264,0.152 -0.552,0.552 v 6.36 h -1.592 v -6.016 q 0,-0.576 -0.096,-0.816 -0.088,-0.24 -0.408,-0.24 -0.272,0 -0.536,0.16 -0.264,0.152 -0.552,0.552 v 6.36 h -1.864 v -8.472 h 1.576 l 0.136,0.88 q 0.376,-0.528 0.792,-0.824 0.416,-0.296 1,-0.296 0.48,0 0.848,0.24 0.376,0.232 0.536,0.8 0.368,-0.464 0.824,-0.752 0.456,-0.288 1.04,-0.288 z m 5.375976,5.12 q 0.064,0.792 0.36,1.288 0.304,0.496 0.776,0.728 0.472,0.232 1.048,0.232 0.608,0 1.144,-0.192 0.536,-0.192 1.056,-0.536 l 0.88,1.208 q -0.592,0.496 -1.416,0.8 -0.816,0.304 -1.8,0.304 -1.376,0 -2.32,-0.568 -0.936,-0.568 -1.416,-1.576 -0.48,-1.008 -0.48,-2.32 0,-1.264 0.472,-2.28 0.472,-1.016 1.36,-1.608 0.888,-0.6 2.144,-0.6 1.168,0 2.016,0.512 0.848,0.512 1.312,1.472 0.464,0.952 0.464,2.296 0,0.216 -0.016,0.44 -0.008,0.224 -0.024,0.4 z m 1.816,-3.632 q -0.768,0 -1.264,0.552 -0.488,0.544 -0.576,1.728 h 3.568 q -0.016,-1.072 -0.448,-1.672 -0.424,-0.608 -1.28,-0.608 z m 6.063975,7.224 v -1.464 h 1.192 v -5.552 h -1.192 v -1.456 h 2.8 l 0.392,1.944 q 0.464,-1.08 1.168,-1.624 0.704,-0.552 1.768,-0.552 0.408,0 0.72,0.064 0.32,0.064 0.608,0.168 l -0.632,1.776 q -0.248,-0.064 -0.472,-0.096 -0.224,-0.04 -0.504,-0.04 -0.88,0 -1.536,0.688 -0.648,0.68 -1.008,1.848 v 2.832 h 1.688 v 1.464 z m 5.672,-5.168 v -2.248 l 0.288,-1.056 h 1.496 l -0.376,3.304 z M 76.82,-26.556 v 9.392 q 0,0.552 0.32,0.784 0.328,0.232 0.88,0.232 0.344,0 0.664,-0.072 0.32,-0.08 0.608,-0.192 l 0.52,1.44 q -0.4,0.2 -0.976,0.352 -0.568,0.16 -1.32,0.16 -1.384,0 -2.096,-0.792 -0.712,-0.792 -0.712,-2.136 v -7.672 h -2.536 v -1.496 z m 10.439976,3.384 v 6.976 h 2.232 v 1.496 h -6.824 v -1.496 h 2.48 v -5.48 h -2.4 v -1.496 z m -1.368,-4.272 q 0.584,0 0.944,0.36 0.368,0.36 0.368,0.896 0,0.536 -0.368,0.904 -0.36,0.36 -0.944,0.36 -0.584,0 -0.952,-0.36 -0.368,-0.368 -0.368,-0.904 0,-0.536 0.368,-0.896 0.368,-0.36 0.952,-0.36 z m 6.095975,12.744 v -8.472 h 1.84 l 0.152,1.048 q 0.544,-0.64 1.224,-0.96 0.68,-0.328 1.464,-0.328 1.144,0 1.744,0.664 0.6,0.656 0.6,1.848 v 6.2 h -2.112 v -5.376 q 0,-0.64 -0.08,-1.024 -0.08,-0.392 -0.304,-0.56 -0.224,-0.176 -0.648,-0.176 -0.344,0 -0.664,0.152 -0.312,0.152 -0.592,0.408 -0.272,0.256 -0.512,0.568 v 6.008 z m 11.399979,-3.592 q 0.064,0.792 0.36,1.288 0.304,0.496 0.776,0.728 0.472,0.232 1.048,0.232 0.608,0 1.144,-0.192 0.536,-0.192 1.056,-0.536 l 0.88,1.208 q -0.592,0.496 -1.416,0.8 -0.816,0.304 -1.8,0.304 -1.376,0 -2.32,-0.568 -0.936,-0.568 -1.416,-1.576 -0.48,-1.008 -0.48,-2.32 0,-1.264 0.472,-2.28 0.472,-1.016 1.36,-1.608 0.888,-0.6 2.144,-0.6 1.168,0 2.016,0.512 0.848,0.512 1.312,1.472 0.464,0.952 0.464,2.296 0,0.216 -0.016,0.44 -0.008,0.224 -0.024,0.4 z m 1.816,-3.632 q -0.768,0 -1.264,0.552 -0.488,0.544 -0.576,1.728 h 3.568 q -0.016,-1.072 -0.448,-1.672 -0.424,-0.608 -1.28,-0.608 z m 5.98397,7.224 v -8.472 h 1.84 l 0.152,1.048 q 0.544,-0.64 1.224,-0.96 0.68,-0.328 1.464,-0.328 1.144,0 1.744,0.664 0.6,0.656 0.6,1.848 v 6.2 h -2.112 v -5.376 q 0,-0.64 -0.08,-1.024 -0.08,-0.392 -0.304,-0.56 -0.224,-0.176 -0.648,-0.176 -0.344,0 -0.664,0.152 -0.312,0.152 -0.592,0.408 -0.272,0.256 -0.512,0.568 v 6.008 z m 17.27198,-8.472 -2.912,8.472 h -2.48 l -2.928,-8.472 h 2.272 l 1.928,6.784 1.968,-6.784 z"
         id="text7"
         style="font-size:16px;font-family:'Fira Code SemiBold';text-anchor:middle"
         aria-label="libmerlinenv" />
    </g>
    <!-- obj&#45;&gt;libmerlinenv -->
    <g
       id="edge3"
       class="edge">
      <title
         id="title8">obj-&gt;libmerlinenv</title>
      <path
         fill="none"
         stroke="#27408b"
         d="m 71.5,-73.31 c 0,8.02 0,17.76 0,26.74"
         id="path8" />
      <path
         id="polygon8"
         style="fill:#27408b;stroke:#27408b"
         d="m 71.5,-36.53 -3.5,-10 h 7 z" />
    </g>
  </g>
</svg>
