<?xml version="1.0" encoding="UTF-8" standalone="no"?>
<!-- Generated by graphviz version 2.43.0 (0)
 -->

<!-- Title: StaticCompilation Pages: 1 -->

<svg
   width="106.5pt"
   height="143.25pt"
   viewBox="0 0 106.5 143.25"
   version="1.1"
   id="svg6"
   sodipodi:docname="rdc_comp.svg"
   inkscape:version="1.3.1 (9b9bdc1480, 2023-11-25, custom)"
   xmlns:inkscape="http://www.inkscape.org/namespaces/inkscape"
   xmlns:sodipodi="http://sodipodi.sourceforge.net/DTD/sodipodi-0.dtd"
   xmlns="http://www.w3.org/2000/svg"
   xmlns:svg="http://www.w3.org/2000/svg">
  <defs
     id="defs6" />
  <sodipodi:namedview
     id="namedview6"
     pagecolor="#ffffff"
     bordercolor="#000000"
     borderopacity="0.25"
     inkscape:showpageshadow="2"
     inkscape:pageopacity="0.0"
     inkscape:pagecheckerboard="0"
     inkscape:deskcolor="#d1d1d1"
     inkscape:document-units="pt"
     showgrid="false"
     inkscape:zoom="3.2984293"
     inkscape:cx="94.590477"
     inkscape:cy="127.03016"
     inkscape:window-width="1850"
     inkscape:window-height="1016"
     inkscape:window-x="70"
     inkscape:window-y="27"
     inkscape:window-maximized="1"
     inkscape:current-layer="svg6" />
  <g
     id="graph0"
     class="graph"
     transform="matrix(0.75,0,0,0.75,3,140.25)">
    <title
       id="title1">StaticCompilation</title>
    <path
       id="polygon1"
       style="fill:#ffffff"
       d="M -4,4 V -187 H 138 V 4 Z" />
    <!-- rdc -->
    <g
       id="node1"
       class="node">
      <title
         id="title2">rdc</title>
      <path
         id="polygon2"
         style="fill:#b0e2ff;stroke:#b0e2ff"
         d="m 34.5,-146.5 v -36 h 65 v 36 z" />
      <path
         d="m 46.784061,-170.1 0.256,3.096 -2.856,-1.2 -0.624,1.92 3.024,0.712 -2.024,2.36 1.624,1.176 1.616,-2.64 1.616,2.64 1.624,-1.176 -2.024,-2.36 3.024,-0.712 -0.624,-1.92 -2.856,1.2 0.256,-3.096 z m 8.959976,7.984 q 0,-0.448 0.216,-0.824 0.224,-0.376 0.6,-0.6 0.376,-0.224 0.832,-0.224 0.464,0 0.84,0.224 0.376,0.224 0.592,0.6 0.224,0.376 0.224,0.824 0,0.448 -0.224,0.832 -0.216,0.376 -0.592,0.6 -0.376,0.224 -0.84,0.224 -0.456,0 -0.832,-0.224 -0.376,-0.224 -0.6,-0.6 -0.216,-0.384 -0.216,-0.832 z m 7.823975,1.416 v -1.464 h 1.192 v -5.552 h -1.192 v -1.456 h 2.8 l 0.392,1.944 q 0.464,-1.08 1.168,-1.624 0.704,-0.552 1.768,-0.552 0.408,0 0.72,0.064 0.32,0.064 0.608,0.168 l -0.632,1.776 q -0.248,-0.064 -0.472,-0.096 -0.224,-0.04 -0.504,-0.04 -0.88,0 -1.536,0.688 -0.648,0.68 -1.008,1.848 v 2.832 h 1.688 v 1.464 z m 5.672,-5.168 v -2.248 l 0.288,-1.056 h 1.496 l -0.376,3.304 z m 8.759976,-6.912 2.112,0.224 v 11.856 h -1.872 l -0.128,-1 q -0.392,0.56 -0.984,0.904 -0.592,0.336 -1.376,0.336 -1.072,0 -1.776,-0.56 -0.696,-0.56 -1.04,-1.568 -0.336,-1.016 -0.336,-2.36 0,-1.296 0.4,-2.304 0.4,-1.008 1.152,-1.584 0.76,-0.576 1.8,-0.576 0.624,0 1.136,0.216 0.512,0.216 0.912,0.64 z m -1.48,4.944 q -0.8,0 -1.264,0.696 -0.456,0.688 -0.456,2.2 0,1.064 0.192,1.704 0.192,0.632 0.544,0.912 0.352,0.28 0.832,0.28 0.528,0 0.928,-0.312 0.408,-0.32 0.704,-0.792 v -3.856 q -0.296,-0.392 -0.664,-0.608 -0.36,-0.224 -0.816,-0.224 z m 10.431975,5.68 q 0.56,0 1.048,-0.208 0.496,-0.208 0.952,-0.528 l 0.96,1.352 q -0.56,0.472 -1.352,0.776 -0.792,0.304 -1.696,0.304 -1.328,0 -2.28,-0.552 -0.944,-0.56 -1.456,-1.552 -0.504,-1 -0.504,-2.32 0,-1.304 0.512,-2.328 0.52,-1.032 1.472,-1.616 0.96,-0.584 2.288,-0.584 0.912,0 1.648,0.264 0.744,0.256 1.36,0.768 l -0.936,1.296 q -0.472,-0.328 -0.976,-0.496 -0.496,-0.176 -1.032,-0.176 -0.936,0 -1.528,0.68 -0.584,0.672 -0.584,2.192 0,1 0.272,1.6 0.28,0.6 0.752,0.864 0.48,0.264 1.08,0.264 z"
         id="text2"
         style="font-size:16px;font-family:'Fira Code SemiBold';text-anchor:middle"
         aria-label="*.rdc" />
    </g>
    <!-- obj -->
    <g
       id="node2"
       class="node">
      <title
         id="title3">obj</title>
      <path
         id="polygon3"
         style="fill:#63b8ff;stroke:#63b8ff"
         d="m 0,-73.5 v -36 h 134 v 36 z" />
      <path
         d="m 13.184146,-97.099997 0.256,3.096 -2.856,-1.2 -0.6239995,1.92 3.0239995,0.712 -2.024,2.36 1.624,1.176 1.616,-2.64 1.616,2.64 1.624,-1.176 -2.024,-2.36 3.024,-0.712 -0.624,-1.92 -2.856,1.2 0.256,-3.096 z m 8.959976,7.984 q 0,-0.448 0.216,-0.824 0.224,-0.376 0.6,-0.6 0.376,-0.224 0.832,-0.224 0.464,0 0.84,0.224 0.376,0.224 0.592,0.6 0.224,0.376 0.224,0.824 0,0.448 -0.224,0.832 -0.216,0.376 -0.592,0.6 -0.376,0.224 -0.84,0.224 -0.456,0 -0.832,-0.224 -0.376,-0.224 -0.6,-0.6 -0.216,-0.384 -0.216,-0.832 z m 11.263976,-7.296 q 1.264,0 2.144,0.552 0.88,0.552 1.336,1.56 0.464,1 0.464,2.344 0,1.376 -0.464,2.384 -0.464,1.008 -1.344,1.56 -0.88,0.552 -2.144,0.552 -1.256,0 -2.144,-0.536 -0.88,-0.544 -1.344,-1.544 -0.464,-1.008 -0.464,-2.4 0,-1.328 0.464,-2.336 0.464,-1.008 1.352,-1.568 0.888,-0.568 2.144,-0.568 z m 0,1.592 q -0.888,0 -1.328,0.696 -0.432,0.696 -0.432,2.184 0,1.504 0.432,2.2 0.432,0.688 1.32,0.688 0.888,0 1.32,-0.688 0.432,-0.696 0.432,-2.216 0,-1.48 -0.432,-2.168 -0.432,-0.696 -1.312,-0.696 z m 19.199951,-1.592 q 1.264,0 2.144,0.552 0.88,0.552 1.336,1.56 0.464,1 0.464,2.344 0,1.376 -0.464,2.384 -0.464,1.008 -1.344,1.56 -0.88,0.552 -2.144,0.552 -1.256,0 -2.144,-0.536 -0.88,-0.544 -1.344,-1.544 -0.464,-1.008 -0.464,-2.4 0,-1.328 0.464,-2.336 0.464,-1.008 1.352,-1.568 0.888,-0.568 2.144,-0.568 z m 0,1.592 q -0.888,0 -1.328,0.696 -0.432,0.696 -0.432,2.184 0,1.504 0.432,2.2 0.432,0.688 1.32,0.688 0.888,0 1.32,-0.688 0.432,-0.696 0.432,-2.216 0,-1.48 -0.432,-2.168 -0.432,-0.696 -1.312,-0.696 z m 6.159975,7.12 v -1.464 h 1.192 v -5.552 h -1.192 v -1.456 h 2.8 l 0.392,1.944 q 0.464,-1.08 1.168,-1.624 0.704,-0.552 1.768,-0.552 0.408,0 0.72,0.064 0.32,0.064 0.608,0.168 l -0.632,1.776 q -0.248,-0.064 -0.472,-0.096 -0.224,-0.04 -0.504,-0.04 -0.88,0 -1.536,0.688 -0.648,0.68 -1.008,1.848 v 2.832 h 1.688 v 1.464 z m 5.672,-5.168 v -2.248 l 0.288,-1.056 h 1.496 l -0.376,3.304 z m 15.943952,-4.232 0.256,3.096 -2.856,-1.2 -0.624,1.92 3.024,0.712 -2.024,2.36 1.624,1.176 1.616,-2.64 1.616,2.64 1.624,-1.176 -2.024,-2.36 3.024,-0.712 -0.624,-1.92 -2.856,1.2 0.256,-3.096 z m 8.959975,7.984 q 0,-0.448 0.216,-0.824 0.224,-0.376 0.6,-0.6 0.376,-0.224 0.832,-0.224 0.464,0 0.84,0.224 0.376,0.224 0.592,0.6 0.224,0.376 0.224,0.824 0,0.448 -0.224,0.832 -0.216,0.376 -0.592,0.6 -0.376,0.224 -0.84,0.224 -0.456,0 -0.832,-0.224 -0.376,-0.224 -0.6,-0.6 -0.216,-0.384 -0.216,-0.832 z m 11.263979,-7.296 q 1.264,0 2.144,0.552 0.88,0.552 1.336,1.56 0.464,1 0.464,2.344 0,1.376 -0.464,2.384 -0.464,1.008 -1.344,1.56 -0.88,0.552 -2.144,0.552 -1.256003,0 -2.144003,-0.536 -0.88,-0.544 -1.344,-1.544 -0.464,-1.008 -0.464,-2.4 0,-1.328 0.464,-2.336 0.464,-1.008 1.352,-1.568 0.888,-0.568 2.144003,-0.568 z m 0,1.592 q -0.888003,0 -1.328003,0.696 -0.432,0.696 -0.432,2.184 0,1.504 0.432,2.2 0.432,0.688 1.320003,0.688 0.888,0 1.32,-0.688 0.432,-0.696 0.432,-2.216 0,-1.48 -0.432,-2.168 -0.432,-0.696 -1.312,-0.696 z m 8.19197,-0.4 q 0.424,-0.56 1,-0.872 0.584,-0.32 1.256,-0.32 1.112,0 1.8,0.552 0.696,0.544 1.016,1.544 0.328,1 0.328,2.36 0,1.304 -0.384,2.32 -0.384,1.016 -1.144,1.6 -0.752,0.576 -1.848,0.576 -1.376,0 -2.168,-1.048 l -0.096,0.808 h -1.872 v -11.856 l 2.112,-0.224 z m 1.48,6.184 q 0.808,0 1.264,-0.688 0.456,-0.688 0.456,-2.208 0,-1.072 -0.192,-1.704 -0.184,-0.64 -0.536,-0.912 -0.344,-0.28 -0.832,-0.28 -0.528,0 -0.936,0.32 -0.4,0.32 -0.704,0.792 v 3.792 q 0.272,0.424 0.64,0.656 0.368,0.232 0.84,0.232 z m 12.12798,-7.136 v 6.4 q 0,1.688 -0.672,2.792 -0.664,1.104 -1.96,1.76 -1.296,0.656 -3.176,1.008 l -0.344,-1.616 q 1.28,-0.264 2.176,-0.696 0.904,-0.432 1.384,-1.176 0.48,-0.744 0.48,-1.936 v -5.04 h -3.216 v -1.496 z m -1.504,-4.272003 q 0.576,0 0.944,0.36 0.368,0.360003 0.368,0.896003 0,0.536 -0.368,0.904 -0.368,0.36 -0.944,0.36 -0.584,0 -0.952,-0.36 -0.368,-0.368 -0.368,-0.904 0,-0.536 0.368,-0.896003 0.368,-0.36 0.952,-0.36 z"
         id="text3"
         style="font-size:16px;font-family:'Fira Code SemiBold';text-anchor:middle"
         aria-label="*.o or *.obj" />
    </g>
    <!-- rdc&#45;&gt;obj -->
    <g
       id="edge1"
       class="edge">
      <title
         id="title4">rdc-&gt;obj</title>
      <path
         fill="none"
         stroke="#696969"
         d="m 67,-146.31 c 0,8.02 0,17.76 0,26.74"
         id="path4" />
      <path
         id="polygon4"
         style="fill:#696969;stroke:#696969"
         d="m 67,-109.53 -3.5,-10 h 7 z" />
    </g>
    <!-- libmerlinrdc -->
    <g
       id="node3"
       class="node">
      <title
         id="title5">libmerlinrdc</title>
      <path
         id="polygon5"
         style="fill:#1e90ff;stroke:#1e90ff"
         d="m 0,-0.5 v -36 h 134 v 36 z" />
      <path
         d="m 14.720146,-26.556 v 9.392 q 0,0.552 0.32,0.784 0.328,0.232 0.88,0.232 0.344,0 0.664,-0.072 0.32,-0.08 0.608,-0.192 l 0.52,1.44 q -0.4,0.2 -0.976,0.352 -0.568,0.16 -1.32,0.16 -1.384,0 -2.096,-0.792 -0.712,-0.792 -0.712,-2.136 v -7.672 h -2.536 v -1.496 z m 10.439976,3.384 v 6.976 h 2.232 v 1.496 h -6.824 v -1.496 h 2.48 v -5.48 h -2.4 v -1.496 z m -1.368,-4.272 q 0.584,0 0.944,0.36 0.368,0.36 0.368,0.896 0,0.536 -0.368,0.904 -0.36,0.36 -0.944,0.36 -0.584,0 -0.952,-0.36 -0.368,-0.368 -0.368,-0.904 0,-0.536 0.368,-0.896 0.368,-0.36 0.952,-0.36 z m 8.207976,5.224 q 0.424,-0.56 1,-0.872 0.584,-0.32 1.256,-0.32 1.112,0 1.8,0.552 0.696,0.544 1.016,1.544 0.328,1 0.328,2.36 0,1.304 -0.384,2.32 -0.384,1.016 -1.144,1.6 -0.752,0.576 -1.848,0.576 -1.376,0 -2.168,-1.048 l -0.096,0.808 h -1.872 v -11.856 l 2.112,-0.224 z m 1.48,6.184 q 0.808,0 1.264,-0.688 0.456,-0.688 0.456,-2.208 0,-1.072 -0.192,-1.704 -0.184,-0.64 -0.536,-0.912 -0.344,-0.28 -0.832,-0.28 -0.528,0 -0.936,0.32 -0.4,0.32 -0.704,0.792 v 3.792 q 0.272,0.424 0.64,0.656 0.368,0.232 0.84,0.232 z m 12.031975,-7.376 q 0.544,0 0.928,0.232 0.384,0.224 0.592,0.76 0.208,0.528 0.208,1.44 v 6.28 h -1.84 v -6.016 q 0,-0.576 -0.096,-0.816 -0.088,-0.24 -0.408,-0.24 -0.264,0 -0.536,0.16 -0.264,0.152 -0.552,0.552 v 6.36 h -1.592 v -6.016 q 0,-0.576 -0.096,-0.816 -0.088,-0.24 -0.408,-0.24 -0.272,0 -0.536,0.16 -0.264,0.152 -0.552,0.552 v 6.36 h -1.864 v -8.472 h 1.576 l 0.136,0.88 q 0.376,-0.528 0.792,-0.824 0.416,-0.296 1,-0.296 0.48,0 0.848,0.24 0.376,0.232 0.536,0.8 0.368,-0.464 0.824,-0.752 0.456,-0.288 1.04,-0.288 z m 5.375976,5.12 q 0.064,0.792 0.36,1.288 0.304,0.496 0.776,0.728 0.472,0.232 1.048,0.232 0.608,0 1.144,-0.192 0.536,-0.192 1.056,-0.536 l 0.88,1.208 q -0.592,0.496 -1.416,0.8 -0.816,0.304 -1.8,0.304 -1.376,0 -2.32,-0.568 -0.936,-0.568 -1.416,-1.576 -0.48,-1.008 -0.48,-2.32 0,-1.264 0.472,-2.28 0.472,-1.016 1.36,-1.608 0.888,-0.6 2.144,-0.6 1.168,0 2.016,0.512 0.848,0.512 1.312,1.472 0.464,0.952 0.464,2.296 0,0.216 -0.016,0.44 -0.008,0.224 -0.024,0.4 z m 1.816,-3.632 q -0.768,0 -1.264,0.552 -0.488,0.544 -0.576,1.728 h 3.568 q -0.016,-1.072 -0.448,-1.672 -0.424,-0.608 -1.28,-0.608 z m 6.063975,7.224 v -1.464 h 1.192 v -5.552 h -1.192 v -1.456 h 2.8 l 0.392,1.944 q 0.464,-1.08 1.168,-1.624 0.704,-0.552 1.768,-0.552 0.408,0 0.72,0.064 0.32,0.064 0.608,0.168 l -0.632,1.776 q -0.248,-0.064 -0.472,-0.096 -0.224,-0.04 -0.504,-0.04 -0.88,0 -1.536,0.688 -0.648,0.68 -1.008,1.848 v 2.832 h 1.688 v 1.464 z m 5.672,-5.168 v -2.248 l 0.288,-1.056 h 1.496 l -0.376,3.304 z M 72.32,-26.556 v 9.392 q 0,0.552 0.32,0.784 0.328,0.232 0.88,0.232 0.344,0 0.664,-0.072 0.32,-0.08 0.608,-0.192 l 0.52,1.44 q -0.4,0.2 -0.976,0.352 -0.568,0.16 -1.32,0.16 -1.384,0 -2.096,-0.792 -0.712,-0.792 -0.712,-2.136 v -7.672 h -2.536 v -1.496 z m 10.439976,3.384 v 6.976 h 2.232 v 1.496 h -6.824 v -1.496 h 2.48 v -5.48 h -2.4 v -1.496 z m -1.368,-4.272 q 0.584,0 0.944,0.36 0.368,0.36 0.368,0.896 0,0.536 -0.368,0.904 -0.36,0.36 -0.944,0.36 -0.584,0 -0.952,-0.36 -0.368,-0.368 -0.368,-0.904 0,-0.536 0.368,-0.896 0.368,-0.36 0.952,-0.36 z m 6.095975,12.744 v -8.472 h 1.84 l 0.152,1.048 q 0.544,-0.64 1.224,-0.96 0.68,-0.328 1.464,-0.328 1.144,0 1.744,0.664 0.6,0.656 0.6,1.848 v 6.2 h -2.112 v -5.376 q 0,-0.64 -0.08,-1.024 -0.08,-0.392 -0.304,-0.56 -0.224,-0.176 -0.648,-0.176 -0.344,0 -0.664,0.152 -0.312,0.152 -0.592,0.408 -0.272,0.256 -0.512,0.568 v 6.008 z m 9.679976,0 v -1.464 h 1.192 v -5.552 h -1.192 v -1.456 h 2.8 l 0.392003,1.944 q 0.464,-1.08 1.168,-1.624 0.704,-0.552 1.768,-0.552 0.408,0 0.72,0.064 0.32,0.064 0.608,0.168 l -0.632,1.776 q -0.248,-0.064 -0.472,-0.096 -0.224,-0.04 -0.504,-0.04 -0.88,0 -1.536,0.688 -0.648,0.68 -1.008,1.848 v 2.832 h 1.688 v 1.464 z m 5.672003,-5.168 v -2.248 l 0.288,-1.056 h 1.496 l -0.376,3.304 z m 8.75997,-6.912 2.112,0.224 V -14.7 h -1.872 l -0.128,-1 q -0.392,0.56 -0.984,0.904 -0.592,0.336 -1.376,0.336 -1.072,0 -1.776,-0.56 -0.696,-0.56 -1.04,-1.568 -0.336,-1.016 -0.336,-2.36 0,-1.296 0.4,-2.304 0.4,-1.008 1.152,-1.584 0.76,-0.576 1.8,-0.576 0.624,0 1.136,0.216 0.512,0.216 0.912,0.64 z m -1.48,4.944 q -0.8,0 -1.264,0.696 -0.456,0.688 -0.456,2.2 0,1.064 0.192,1.704 0.192,0.632 0.544,0.912 0.352,0.28 0.832,0.28 0.528,0 0.928,-0.312 0.408,-0.32 0.704,-0.792 v -3.856 q -0.296,-0.392 -0.664,-0.608 -0.36,-0.224 -0.816,-0.224 z m 10.43198,5.68 q 0.56,0 1.048,-0.208 0.496,-0.208 0.952,-0.528 l 0.96,1.352 q -0.56,0.472 -1.352,0.776 -0.792,0.304 -1.696,0.304 -1.328,0 -2.28,-0.552 -0.944,-0.56 -1.456,-1.552 -0.504,-1 -0.504,-2.32 0,-1.304 0.512,-2.328 0.52,-1.032 1.472,-1.616 0.96,-0.584 2.288,-0.584 0.912,0 1.648,0.264 0.744,0.256 1.36,0.768 l -0.936,1.296 q -0.472,-0.328 -0.976,-0.496 -0.496,-0.176 -1.032,-0.176 -0.936,0 -1.528,0.68 -0.584,0.672 -0.584,2.192 0,1 0.272,1.6 0.28,0.6 0.752,0.864 0.48,0.264 1.08,0.264 z"
         id="text5"
         style="font-size:16px;font-family:'Fira Code SemiBold';text-anchor:middle"
         aria-label="libmerlinrdc" />
    </g>
    <!-- obj&#45;&gt;libmerlinrdc -->
    <g
       id="edge2"
       class="edge">
      <title
         id="title6">obj-&gt;libmerlinrdc</title>
      <path
         fill="none"
         stroke="#27408b"
         d="m 67,-73.31 c 0,8.02 0,17.76 0,26.74"
         id="path6" />
      <path
         id="polygon6"
         style="fill:#27408b;stroke:#27408b"
         d="m 67,-36.53 -3.5,-10 h 7 z" />
    </g>
  </g>
</svg>
