<?xml version="1.0" encoding="UTF-8" standalone="no"?>
<!-- Generated by graphviz version 2.43.0 (0)
 -->

<!-- Title: StaticCompilation Pages: 1 -->

<svg
   width="128.25pt"
   height="143.25pt"
   viewBox="0 0 128.25 143.25"
   version="1.1"
   id="svg1514"
   sodipodi:docname="shared_comp.svg"
   inkscape:version="1.2.2 (732a01da63, 2022-12-09, custom)"
   xmlns:inkscape="http://www.inkscape.org/namespaces/inkscape"
   xmlns:sodipodi="http://sodipodi.sourceforge.net/DTD/sodipodi-0.dtd"
   xmlns="http://www.w3.org/2000/svg"
   xmlns:svg="http://www.w3.org/2000/svg">
  <defs
     id="defs1518" />
  <sodipodi:namedview
     id="namedview1516"
     pagecolor="#ffffff"
     bordercolor="#000000"
     borderopacity="0.25"
     inkscape:showpageshadow="2"
     inkscape:pageopacity="0.0"
     inkscape:pagecheckerboard="0"
     inkscape:deskcolor="#d1d1d1"
     inkscape:document-units="pt"
     showgrid="false"
     inkscape:zoom="3.3376963"
     inkscape:cx="113.85098"
     inkscape:cy="127.48314"
     inkscape:window-width="1846"
     inkscape:window-height="1016"
     inkscape:window-x="74"
     inkscape:window-y="27"
     inkscape:window-maximized="1"
     inkscape:current-layer="svg1514" />
  <g
     id="graph0"
     class="graph"
     transform="matrix(0.75,0,0,0.75,3,140.25)">
    <title
       id="title1460">StaticCompilation</title>
    <path
       id="polygon1462"
       style="fill:#ffffff"
       d="M -4,4 V -187 H 167 V 4 Z" />
    <!-- cpp -->
    <g
       id="node1"
       class="node">
      <title
         id="title1464">cpp</title>
      <path
         id="polygon1466"
         style="fill:#b0e2ff;stroke:#b0e2ff"
         d="m 10,-146.5 v -36 h 65 v 36 z" />
      <g
         aria-label="*.cpp"
         id="text1468"
         style="font-size:16px;font-family:'Fira Code SemiBold';text-anchor:middle">
        <path
           d="m 22.284061,-170.1 0.256,3.096 -2.856,-1.2 -0.624,1.92 3.024,0.712 -2.024,2.36 1.624,1.176 1.616,-2.64 1.616,2.64 1.624,-1.176 -2.024,-2.36 3.024,-0.712 -0.624,-1.92 -2.856,1.2 0.256,-3.096 z"
           id="path1522" />
        <path
           d="m 31.244037,-162.116 q 0,-0.448 0.216,-0.824 0.224,-0.376 0.6,-0.6 0.376,-0.224 0.832,-0.224 0.464,0 0.84,0.224 0.376,0.224 0.592,0.6 0.224,0.376 0.224,0.824 0,0.448 -0.224,0.832 -0.216,0.376 -0.592,0.6 -0.376,0.224 -0.84,0.224 -0.456,0 -0.832,-0.224 -0.376,-0.224 -0.6,-0.6 -0.216,-0.384 -0.216,-0.832 z"
           id="path1524" />
        <path
           d="m 43.252012,-162.156 q 0.56,0 1.048,-0.208 0.496,-0.208 0.952,-0.528 l 0.96,1.352 q -0.56,0.472 -1.352,0.776 -0.792,0.304 -1.696,0.304 -1.328,0 -2.28,-0.552 -0.944,-0.56 -1.456,-1.552 -0.504,-1 -0.504,-2.32 0,-1.304 0.512,-2.328 0.52,-1.032 1.472,-1.616 0.96,-0.584 2.288,-0.584 0.912,0 1.648,0.264 0.744,0.256 1.36,0.768 l -0.936,1.296 q -0.472,-0.328 -0.976,-0.496 -0.496,-0.176 -1.032,-0.176 -0.936,0 -1.528,0.68 -0.584,0.672 -0.584,2.192 0,1 0.272,1.6 0.28,0.6 0.752,0.864 0.48,0.264 1.08,0.264 z"
           id="path1526" />
        <path
           d="m 52.963988,-169.412 q 1.12,0 1.792,0.552 0.68,0.544 0.984,1.544 0.312,1 0.312,2.36 0,1.304 -0.376,2.32 -0.376,1.016 -1.104,1.6 -0.72,0.576 -1.776,0.576 -1.296,0 -2.096,-0.92 v 3.944 l -2.112,0.224 v -11.96 h 1.856 l 0.112,1.032 q 0.504,-0.656 1.128,-0.96 0.624,-0.312 1.28,-0.312 z m -0.616,1.584 q -0.536,0 -0.944,0.32 -0.4,0.32 -0.704,0.792 v 3.792 q 0.288,0.432 0.656,0.648 0.368,0.216 0.832,0.216 0.808,0 1.232,-0.672 0.432,-0.68 0.432,-2.2 0,-1.072 -0.176,-1.704 -0.168,-0.64 -0.504,-0.912 -0.336,-0.28 -0.824,-0.28 z"
           id="path1528" />
        <path
           d="m 62.563963,-169.412 q 1.12,0 1.792,0.552 0.68,0.544 0.984,1.544 0.312,1 0.312,2.36 0,1.304 -0.376,2.32 -0.376,1.016 -1.104,1.6 -0.72,0.576 -1.776,0.576 -1.296,0 -2.096,-0.92 v 3.944 l -2.112,0.224 v -11.96 h 1.856 l 0.112,1.032 q 0.504,-0.656 1.128,-0.96 0.624,-0.312 1.28,-0.312 z m -0.616,1.584 q -0.536,0 -0.944,0.32 -0.4,0.32 -0.704,0.792 v 3.792 q 0.288,0.432 0.656,0.648 0.368,0.216 0.832,0.216 0.808,0 1.232,-0.672 0.432,-0.68 0.432,-2.2 0,-1.072 -0.176,-1.704 -0.168,-0.64 -0.504,-0.912 -0.336,-0.28 -0.824,-0.28 z"
           id="path1530" />
      </g>
    </g>
    <!-- obj -->
    <g
       id="node3"
       class="node">
      <title
         id="title1471">obj</title>
      <path
         id="polygon1473"
         style="fill:#63b8ff;stroke:#63b8ff"
         d="m 14.5,-73.5 v -36 h 134 v 36 z" />
      <g
         aria-label="*.o or *.obj"
         id="text1475"
         style="font-size:16px;font-family:'Fira Code SemiBold';text-anchor:middle">
        <path
           d="m 27.684146,-97.099997 0.256,3.096 -2.856,-1.2 -0.624,1.92 3.024,0.712 -2.024,2.36 1.624,1.176 1.616,-2.64 1.616,2.64 1.624,-1.176 -2.024,-2.36 3.024,-0.712 -0.624,-1.92 -2.856,1.2 0.256,-3.096 z"
           id="path1534" />
        <path
           d="m 36.644122,-89.115997 q 0,-0.448 0.216,-0.824 0.224,-0.376 0.6,-0.6 0.376,-0.224 0.832,-0.224 0.464,0 0.84,0.224 0.376,0.224 0.592,0.6 0.224,0.376 0.224,0.824 0,0.448 -0.224,0.832 -0.216,0.376 -0.592,0.6 -0.376,0.224 -0.84,0.224 -0.456,0 -0.832,-0.224 -0.376,-0.224 -0.6,-0.6 -0.216,-0.384 -0.216,-0.832 z"
           id="path1536" />
        <path
           d="m 47.908098,-96.411997 q 1.264,0 2.144,0.552 0.88,0.552 1.336,1.56 0.464,1 0.464,2.344 0,1.376 -0.464,2.384 -0.464,1.008 -1.344,1.56 -0.88,0.552 -2.144,0.552 -1.256,0 -2.144,-0.536 -0.88,-0.544 -1.344,-1.544 -0.464,-1.008 -0.464,-2.4 0,-1.328 0.464,-2.336 0.464,-1.008 1.352,-1.568 0.888,-0.568 2.144,-0.568 z m 0,1.592 q -0.888,0 -1.328,0.696 -0.432,0.696 -0.432,2.184 0,1.504 0.432,2.2 0.432,0.688 1.32,0.688 0.888,0 1.32,-0.688 0.432,-0.696 0.432,-2.216 0,-1.48 -0.432,-2.168 -0.432,-0.696 -1.312,-0.696 z"
           id="path1538" />
        <path
           d="m 67.108049,-96.411997 q 1.264,0 2.144,0.552 0.88,0.552 1.336,1.56 0.464,1 0.464,2.344 0,1.376 -0.464,2.384 -0.464,1.008 -1.344,1.56 -0.88,0.552 -2.144,0.552 -1.256,0 -2.144,-0.536 -0.88,-0.544 -1.344,-1.544 -0.464,-1.008 -0.464,-2.4 0,-1.328 0.464,-2.336 0.464,-1.008 1.352,-1.568 0.888,-0.568 2.144,-0.568 z m 0,1.592 q -0.888,0 -1.328,0.696 -0.432,0.696 -0.432,2.184 0,1.504 0.432,2.2 0.432,0.688 1.32,0.688 0.888,0 1.32,-0.688 0.432,-0.696 0.432,-2.216 0,-1.48 -0.432,-2.168 -0.432,-0.696 -1.312,-0.696 z"
           id="path1540" />
        <path
           d="m 73.268024,-87.699997 v -1.464 h 1.192 v -5.552 h -1.192 v -1.456 h 2.8 l 0.392,1.944 q 0.464,-1.08 1.168,-1.624 0.704,-0.552 1.768,-0.552 0.408,0 0.72,0.064 0.32,0.064 0.608,0.168 l -0.632,1.776 q -0.248,-0.064 -0.472,-0.096 -0.224,-0.04 -0.504,-0.04 -0.88,0 -1.536,0.688 -0.648,0.68 -1.008,1.848 v 2.832 h 1.688 v 1.464 z m 5.672,-5.168 v -2.248 l 0.288,-1.056 h 1.496 l -0.376,3.304 z"
           id="path1542" />
        <path
           d="m 94.883976,-97.099997 0.256,3.096 -2.856,-1.2 -0.624,1.92 3.024,0.712 -2.024,2.36 1.624,1.176 1.616,-2.64 1.616,2.64 1.624,-1.176 -2.024,-2.36 3.024004,-0.712 -0.624004,-1.92 -2.856,1.2 0.256,-3.096 z"
           id="path1544" />
        <path
           d="m 103.84395,-89.115997 q 0,-0.448 0.216,-0.824 0.224,-0.376 0.6,-0.6 0.376,-0.224 0.832,-0.224 0.464,0 0.84,0.224 0.376,0.224 0.592,0.6 0.224,0.376 0.224,0.824 0,0.448 -0.224,0.832 -0.216,0.376 -0.592,0.6 -0.376,0.224 -0.84,0.224 -0.456,0 -0.832,-0.224 -0.376,-0.224 -0.6,-0.6 -0.216,-0.384 -0.216,-0.832 z"
           id="path1546" />
        <path
           d="m 115.10793,-96.411997 q 1.264,0 2.144,0.552 0.88,0.552 1.336,1.56 0.464,1 0.464,2.344 0,1.376 -0.464,2.384 -0.464,1.008 -1.344,1.56 -0.88,0.552 -2.144,0.552 -1.256,0 -2.144,-0.536 -0.88,-0.544 -1.344,-1.544 -0.464,-1.008 -0.464,-2.4 0,-1.328 0.464,-2.336 0.464,-1.008 1.352,-1.568 0.888,-0.568 2.144,-0.568 z m 0,1.592 q -0.888,0 -1.328,0.696 -0.432,0.696 -0.432,2.184 0,1.504 0.432,2.2 0.432,0.688 1.32,0.688 0.888,0 1.32,-0.688 0.432,-0.696 0.432,-2.216 0,-1.48 -0.432,-2.168 -0.432,-0.696 -1.312,-0.696 z"
           id="path1548" />
        <path
           d="m 123.2999,-95.219997 q 0.424,-0.56 1,-0.872 0.584,-0.32 1.256,-0.32 1.112,0 1.8,0.552 0.696,0.544 1.016,1.544 0.328,1 0.328,2.36 0,1.304 -0.384,2.32 -0.384,1.016 -1.144,1.6 -0.752,0.576 -1.848,0.576 -1.376,0 -2.168,-1.048 l -0.096,0.808 h -1.872 v -11.856 l 2.112,-0.224 z m 1.48,6.184 q 0.808,0 1.264,-0.688 0.456,-0.688 0.456,-2.208 0,-1.072 -0.192,-1.704 -0.184,-0.64 -0.536,-0.912 -0.344,-0.28 -0.832,-0.28 -0.528,0 -0.936,0.32 -0.4,0.32 -0.704,0.792 v 3.792 q 0.272,0.424 0.64,0.656 0.368,0.232 0.84,0.232 z"
           id="path1550" />
        <path
           d="m 136.90788,-96.171997 v 6.4 q 0,1.688 -0.672,2.792 -0.664,1.104 -1.96,1.76 -1.296,0.656 -3.176,1.008 l -0.344,-1.616 q 1.28,-0.264 2.176,-0.696 0.904,-0.432 1.384,-1.176 0.48,-0.744 0.48,-1.936 v -5.04 h -3.216 v -1.496 z m -1.504,-4.272003 q 0.576,0 0.944,0.36 0.368,0.360003 0.368,0.896003 0,0.536 -0.368,0.904 -0.368,0.36 -0.944,0.36 -0.584,0 -0.952,-0.36 -0.368,-0.368 -0.368,-0.904 0,-0.536 0.368,-0.896003 0.368,-0.36 0.952,-0.36 z"
           id="path1552" />
      </g>
    </g>
    <!-- cpp&#45;&gt;obj -->
    <g
       id="edge1"
       class="edge">
      <title
         id="title1478">cpp-&gt;obj</title>
      <path
         fill="none"
         stroke="#696969"
         d="m 51.94,-146.31 c 4.6,8.37 10.23,18.61 15.33,27.91"
         id="path1480" />
      <path
         id="polygon1482"
         style="fill:#696969;stroke:#696969"
         d="m 70.4,-119.98 1.75,10.45 -7.89,-7.08 z" />
    </g>
    <!-- cu -->
    <g
       id="node2"
       class="node">
      <title
         id="title1485">cu</title>
      <path
         id="polygon1487"
         style="fill:#b0e2ff;stroke:#b0e2ff"
         d="m 93.5,-146.5 v -36 h 56 v 36 z" />
      <g
         aria-label="*.cu"
         id="text1489"
         style="font-size:16px;font-family:'Fira Code SemiBold';text-anchor:middle">
        <path
           d="m 106.08405,-170.1 0.256,3.096 -2.856,-1.2 -0.624,1.92 3.024,0.712 -2.024,2.36 1.624,1.176 1.616,-2.64 1.616,2.64 1.624,-1.176 -2.024,-2.36 3.024,-0.712 -0.624,-1.92 -2.856,1.2 0.256,-3.096 z"
           id="path1557" />
        <path
           d="m 115.04402,-162.116 q 0,-0.448 0.216,-0.824 0.224,-0.376 0.6,-0.6 0.376,-0.224 0.832,-0.224 0.464,0 0.84,0.224 0.376,0.224 0.592,0.6 0.224,0.376 0.224,0.824 0,0.448 -0.224,0.832 -0.216,0.376 -0.592,0.6 -0.376,0.224 -0.84,0.224 -0.456,0 -0.832,-0.224 -0.376,-0.224 -0.6,-0.6 -0.216,-0.384 -0.216,-0.832 z"
           id="path1559" />
        <path
           d="m 127.052,-162.156 q 0.56,0 1.048,-0.208 0.496,-0.208 0.952,-0.528 l 0.96,1.352 q -0.56,0.472 -1.352,0.776 -0.792,0.304 -1.696,0.304 -1.328,0 -2.28,-0.552 -0.944,-0.56 -1.456,-1.552 -0.504,-1 -0.504,-2.32 0,-1.304 0.512,-2.328 0.52,-1.032 1.472,-1.616 0.96,-0.584 2.288,-0.584 0.912,0 1.648,0.264 0.744,0.256 1.36,0.768 l -0.936,1.296 q -0.472,-0.328 -0.976,-0.496 -0.496,-0.176 -1.032,-0.176 -0.936,0 -1.528,0.68 -0.584,0.672 -0.584,2.192 0,1 0.272,1.6 0.28,0.6 0.752,0.864 0.48,0.264 1.08,0.264 z"
           id="path1561" />
        <path
           d="m 134.49998,-169.172 v 5.872 q 0,0.688 0.272,0.968 0.272,0.28 0.792,0.28 0.496,0 0.968,-0.296 0.472,-0.304 0.768,-0.768 v -6.056 h 2.112 v 8.472 h -1.84 l -0.112,-1.04 q -0.456,0.624 -1.168,0.952 -0.712,0.328 -1.472,0.328 -1.224,0 -1.832,-0.688 -0.6,-0.696 -0.6,-1.896 v -6.128 z"
           id="path1563" />
      </g>
    </g>
    <!-- cu&#45;&gt;obj -->
    <g
       id="edge2"
       class="edge">
      <title
         id="title1492">cu-&gt;obj</title>
      <path
         fill="none"
         stroke="#696969"
         d="m 111.82,-146.31 c -4.72,8.37 -10.49,18.61 -15.73,27.91"
         id="path1494" />
      <path
         id="polygon1496"
         style="fill:#696969;stroke:#696969"
         d="m 99.05,-116.52 -7.96,6.99 1.86,-10.43 z" />
    </g>
    <!-- libmerlinshared -->
    <g
       id="node4"
       class="node">
      <title
         id="title1499">libmerlinshared</title>
      <path
         id="polygon1501"
         style="fill:#1e90ff;stroke:#1e90ff"
         d="m 0,-0.5 v -36 h 163 v 36 z" />
      <g
         aria-label="libmerlinshared"
         id="text1503"
         style="font-size:16px;font-family:'Fira Code SemiBold';text-anchor:middle">
        <path
           d="m 14.820183,-26.556 v 9.392 q 0,0.552 0.32,0.784 0.328,0.232 0.88,0.232 0.344,0 0.664,-0.072 0.32,-0.08 0.608,-0.192 l 0.52,1.44 q -0.4,0.2 -0.976,0.352 -0.568,0.16 -1.32,0.16 -1.384,0 -2.096,-0.792 -0.712,-0.792 -0.712,-2.136 v -7.672 h -2.536 v -1.496 z"
           id="path1568" />
        <path
           d="m 25.260159,-23.172 v 6.976 h 2.232 v 1.496 h -6.824 v -1.496 h 2.48 v -5.48 h -2.4 v -1.496 z m -1.368,-4.272 q 0.584,0 0.944,0.36 0.368,0.36 0.368,0.896 0,0.536 -0.368,0.904 -0.36,0.36 -0.944,0.36 -0.584,0 -0.952,-0.36 -0.368,-0.368 -0.368,-0.904 0,-0.536 0.368,-0.896 0.368,-0.36 0.952,-0.36 z"
           id="path1570" />
        <path
           d="m 32.100134,-22.22 q 0.424,-0.56 1,-0.872 0.584,-0.32 1.256,-0.32 1.112,0 1.8,0.552 0.696,0.544 1.016,1.544 0.328,1 0.328,2.36 0,1.304 -0.384,2.32 -0.384,1.016 -1.144,1.6 -0.752,0.576 -1.848,0.576 -1.376,0 -2.168,-1.048 l -0.096,0.808 h -1.872 v -11.856 l 2.112,-0.224 z m 1.48,6.184 q 0.808,0 1.264,-0.688 0.456,-0.688 0.456,-2.208 0,-1.072 -0.192,-1.704 -0.184,-0.64 -0.536,-0.912 -0.344,-0.28 -0.832,-0.28 -0.528,0 -0.936,0.32 -0.4,0.32 -0.704,0.792 v 3.792 q 0.272,0.424 0.64,0.656 0.368,0.232 0.84,0.232 z"
           id="path1572" />
        <path
           d="m 45.61211,-23.412 q 0.544,0 0.928,0.232 0.384,0.224 0.592,0.76 0.208,0.528 0.208,1.44 v 6.28 h -1.84 v -6.016 q 0,-0.576 -0.096,-0.816 -0.088,-0.24 -0.408,-0.24 -0.264,0 -0.536,0.16 -0.264,0.152 -0.552,0.552 v 6.36 h -1.592 v -6.016 q 0,-0.576 -0.096,-0.816 -0.088,-0.24 -0.408,-0.24 -0.272,0 -0.536,0.16 -0.264,0.152 -0.552,0.552 v 6.36 h -1.864 v -8.472 h 1.576 l 0.136,0.88 q 0.376,-0.528 0.792,-0.824 0.416,-0.296 1,-0.296 0.48,0 0.848,0.24 0.376,0.232 0.536,0.8 0.368,-0.464 0.824,-0.752 0.456,-0.288 1.04,-0.288 z"
           id="path1574" />
        <path
           d="m 50.988085,-18.292 q 0.064,0.792 0.36,1.288 0.304,0.496 0.776,0.728 0.472,0.232 1.048,0.232 0.608,0 1.144,-0.192 0.536,-0.192 1.056,-0.536 l 0.88,1.208 q -0.592,0.496 -1.416,0.8 -0.816,0.304 -1.8,0.304 -1.376,0 -2.32,-0.568 -0.936,-0.568 -1.416,-1.576 -0.48,-1.008 -0.48,-2.32 0,-1.264 0.472,-2.28 0.472,-1.016 1.36,-1.608 0.888,-0.6 2.144,-0.6 1.168,0 2.016,0.512 0.848,0.512 1.312,1.472 0.464,0.952 0.464,2.296 0,0.216 -0.016,0.44 -0.008,0.224 -0.024,0.4 z m 1.816,-3.632 q -0.768,0 -1.264,0.552 -0.488,0.544 -0.576,1.728 h 3.568 q -0.016,-1.072 -0.448,-1.672 -0.424,-0.608 -1.28,-0.608 z"
           id="path1576" />
        <path
           d="m 58.868061,-14.7 v -1.464 h 1.192 v -5.552 h -1.192 v -1.456 h 2.8 l 0.392,1.944 q 0.464,-1.08 1.168,-1.624 0.704,-0.552 1.768,-0.552 0.408,0 0.72,0.064 0.32,0.064 0.608,0.168 l -0.632,1.776 q -0.248,-0.064 -0.472,-0.096 -0.224,-0.04 -0.504,-0.04 -0.88,0 -1.536,0.688 -0.648,0.68 -1.008,1.848 v 2.832 h 1.688 v 1.464 z m 5.672,-5.168 v -2.248 l 0.288,-1.056 h 1.496 l -0.376,3.304 z"
           id="path1578" />
        <path
           d="m 72.420037,-26.556 v 9.392 q 0,0.552 0.32,0.784 0.328,0.232 0.88,0.232 0.344,0 0.664,-0.072 0.32,-0.08 0.608,-0.192 l 0.52,1.44 q -0.4,0.2 -0.976,0.352 -0.568,0.16 -1.32,0.16 -1.384,0 -2.096,-0.792 -0.712,-0.792 -0.712,-2.136 v -7.672 h -2.536 v -1.496 z"
           id="path1580" />
        <path
           d="m 82.860012,-23.172 v 6.976 h 2.232 v 1.496 h -6.824 v -1.496 h 2.48 v -5.48 h -2.4 v -1.496 z m -1.368,-4.272 q 0.584,0 0.944,0.36 0.368,0.36 0.368,0.896 0,0.536 -0.368,0.904 -0.36,0.36 -0.944,0.36 -0.584,0 -0.952,-0.36 -0.368,-0.368 -0.368,-0.904 0,-0.536 0.368,-0.896 0.368,-0.36 0.952,-0.36 z"
           id="path1582" />
        <path
           d="m 87.587988,-14.7 v -8.472 h 1.84 l 0.152,1.048 q 0.544,-0.64 1.224,-0.96 0.68,-0.328 1.464,-0.328 1.144,0 1.744,0.664 0.6,0.656 0.6,1.848 v 6.2 h -2.112 v -5.376 q 0,-0.64 -0.08,-1.024 -0.08,-0.392 -0.304,-0.56 -0.224,-0.176 -0.648,-0.176 -0.344,0 -0.664,0.152 -0.312,0.152 -0.592,0.408 -0.272,0.256 -0.512,0.568 v 6.008 z"
           id="path1584" />
        <path
           d="m 100.41196,-16.02 q 0.744,0 1.192,-0.256 0.456,-0.264 0.456,-0.736 0,-0.312 -0.152,-0.528 -0.144,-0.216 -0.576,-0.4 -0.432,-0.192 -1.296,-0.424 -0.815997,-0.208 -1.431997,-0.512 -0.608,-0.312 -0.952,-0.8 -0.336,-0.488 -0.336,-1.232 0,-0.744 0.416,-1.304 0.416,-0.568 1.2,-0.88 0.792,-0.32 1.903997,-0.32 1.088,0 1.904,0.288 0.816,0.28 1.4,0.704 l -0.864,1.288 q -0.512,-0.328 -1.112,-0.528 -0.592,-0.208 -1.28,-0.208 -0.744,0 -1.087997,0.216 -0.336,0.216 -0.336,0.6 0,0.272 0.168,0.464 0.176,0.184 0.623997,0.36 0.456,0.168 1.296,0.408 0.824,0.224 1.432,0.528 0.616,0.304 0.952,0.808 0.336,0.504 0.336,1.32 0,0.92 -0.536,1.52 -0.536,0.6 -1.416,0.896 -0.872,0.288 -1.896,0.288 -1.199997,0 -2.095997,-0.344 -0.896,-0.344 -1.52,-0.888 l 1.096,-1.232 q 0.496,0.392 1.128,0.648 0.64,0.256 1.383997,0.256 z"
           id="path1586" />
        <path
           d="m 108.89994,-26.756 v 4.536 q 0.528,-0.6 1.184,-0.896 0.664,-0.296 1.384,-0.296 1.168,0 1.752,0.664 0.592,0.656 0.592,1.848 v 6.2 h -2.112 v -5.728 q 0,-0.768 -0.24,-1.088 -0.232,-0.32 -0.8,-0.32 -0.336,0 -0.656,0.16 -0.312,0.152 -0.592,0.416 -0.272,0.264 -0.512,0.592 v 5.968 h -2.112 v -11.848 z"
           id="path1588" />
        <path
           d="m 123.14791,-16.932 q 0,0.488 0.144,0.712 0.144,0.216 0.464,0.328 l -0.456,1.416 q -0.68,-0.072 -1.16,-0.336 -0.472,-0.272 -0.728,-0.808 -0.48,0.584 -1.216,0.872 -0.728,0.288 -1.528,0.288 -1.296,0 -2.056,-0.736 -0.76,-0.736 -0.76,-1.912 0,-1.352 1.056,-2.08 1.064,-0.736 3.008,-0.736 h 1.184 v -0.456 q 0,-0.752 -0.464,-1.088 -0.464,-0.344 -1.336,-0.344 -0.408,0 -1.024,0.112 -0.608,0.104 -1.256,0.328 l -0.504,-1.448 q 0.808,-0.304 1.624,-0.448 0.824,-0.144 1.496,-0.144 1.784,0 2.648,0.76 0.864,0.752 0.864,2.136 z m -3.792,0.944 q 0.48,0 0.968,-0.272 0.496,-0.272 0.776,-0.76 v -1.648 h -0.832 q -1.176,0 -1.704,0.376 -0.52,0.376 -0.52,1.064 0,0.592 0.336,0.92 0.336,0.32 0.976,0.32 z"
           id="path1590" />
        <path
           d="m 126.06789,-14.7 v -1.464 h 1.192 v -5.552 h -1.192 v -1.456 h 2.8 l 0.392,1.944 q 0.464,-1.08 1.168,-1.624 0.704,-0.552 1.768,-0.552 0.408,0 0.72,0.064 0.32,0.064 0.608,0.168 l -0.632,1.776 q -0.248,-0.064 -0.472,-0.096 -0.224,-0.04 -0.504,-0.04 -0.88,0 -1.536,0.688 -0.648,0.68 -1.008,1.848 v 2.832 h 1.688 v 1.464 z m 5.672,-5.168 v -2.248 l 0.288,-1.056 h 1.496 l -0.376,3.304 z"
           id="path1592" />
        <path
           d="m 137.38787,-18.292 q 0.064,0.792 0.36,1.288 0.304,0.496 0.776,0.728 0.472,0.232 1.048,0.232 0.608,0 1.144,-0.192 0.536,-0.192 1.056,-0.536 l 0.88,1.208 q -0.592,0.496 -1.416,0.8 -0.816,0.304 -1.8,0.304 -1.376,0 -2.32,-0.568 -0.936,-0.568 -1.416,-1.576 -0.48,-1.008 -0.48,-2.32 0,-1.264 0.472,-2.28 0.472,-1.016 1.36,-1.608 0.888,-0.6 2.144,-0.6 1.168,0 2.016,0.512 0.848,0.512 1.312,1.472 0.464,0.952 0.464,2.296 0,0.216 -0.016,0.44 -0.008,0.224 -0.024,0.4 z m 1.816,-3.632 q -0.768,0 -1.264,0.552 -0.488,0.544 -0.576,1.728 h 3.568 q -0.016,-1.072 -0.448,-1.672 -0.424,-0.608 -1.28,-0.608 z"
           id="path1594" />
        <path
           d="m 150.09984,-26.78 2.112,0.224 V -14.7 h -1.872 l -0.128,-1 q -0.392,0.56 -0.984,0.904 -0.592,0.336 -1.376,0.336 -1.072,0 -1.776,-0.56 -0.696,-0.56 -1.04,-1.568 -0.336,-1.016 -0.336,-2.36 0,-1.296 0.4,-2.304 0.4,-1.008 1.152,-1.584 0.76,-0.576 1.8,-0.576 0.624,0 1.136,0.216 0.512,0.216 0.912,0.64 z m -1.48,4.944 q -0.8,0 -1.264,0.696 -0.456,0.688 -0.456,2.2 0,1.064 0.192,1.704 0.192,0.632 0.544,0.912 0.352,0.28 0.832,0.28 0.528,0 0.928,-0.312 0.408,-0.32 0.704,-0.792 v -3.856 q -0.296,-0.392 -0.664,-0.608 -0.36,-0.224 -0.816,-0.224 z"
           id="path1596" />
      </g>
    </g>
    <!-- obj&#45;&gt;libmerlinshared -->
    <g
       id="edge3"
       class="edge">
      <title
         id="title1506">obj-&gt;libmerlinshared</title>
      <path
         fill="none"
         stroke="#27408b"
         d="m 81.5,-73.31 c 0,8.02 0,17.76 0,26.74"
         id="path1508" />
      <path
         id="polygon1510"
         style="fill:#27408b;stroke:#27408b"
         d="m 85,-46.53 -3.5,10 -3.5,-10 z" />
    </g>
  </g>
</svg>
