<?xml version="1.0" encoding="UTF-8" standalone="no"?>
<!-- Generated by graphviz version 2.43.0 (0)
 -->

<!-- Title: StaticCompilation Pages: 1 -->

<svg
   width="235.5pt"
   height="143.25pt"
   viewBox="0 0 235.5 143.25"
   version="1.1"
   id="svg100"
   sodipodi:docname="static_comp.svg"
   inkscape:version="1.2.2 (732a01da63, 2022-12-09, custom)"
   xmlns:inkscape="http://www.inkscape.org/namespaces/inkscape"
   xmlns:sodipodi="http://sodipodi.sourceforge.net/DTD/sodipodi-0.dtd"
   xmlns="http://www.w3.org/2000/svg"
   xmlns:svg="http://www.w3.org/2000/svg">
  <defs
     id="defs104" />
  <sodipodi:namedview
     id="namedview102"
     pagecolor="#ffffff"
     bordercolor="#000000"
     borderopacity="0.25"
     inkscape:showpageshadow="2"
     inkscape:pageopacity="0.0"
     inkscape:pagecheckerboard="0"
     inkscape:deskcolor="#d1d1d1"
     inkscape:document-units="pt"
     showgrid="false"
     inkscape:zoom="3.1289809"
     inkscape:cx="209.33333"
     inkscape:cy="127.35776"
     inkscape:window-width="1846"
     inkscape:window-height="1016"
     inkscape:window-x="74"
     inkscape:window-y="27"
     inkscape:window-maximized="1"
     inkscape:current-layer="svg100" />
  <g
     id="graph0"
     class="graph"
     transform="matrix(0.75,0,0,0.75,3,140.25)">
    <title
       id="title18">StaticCompilation</title>
    <path
       id="polygon20"
       style="fill:#ffffff"
       d="M -4,4 V -187 H 310 V 4 Z" />
    <!-- cpp -->
    <g
       id="node1"
       class="node">
      <title
         id="title22">cpp</title>
      <path
         id="polygon24"
         style="fill:#b0e2ff;stroke:#b0e2ff"
         d="m 0,-146.5 v -36 h 65 v 36 z" />
      <g
         aria-label="*.cpp"
         id="text26"
         style="font-size:16px;font-family:'Fira Code SemiBold';text-anchor:middle">
        <path
           d="m 12.284061,-170.1 0.256,3.096 -2.856,-1.2 -0.624,1.92 3.024,0.712 -2.024,2.36 1.624,1.176 1.616,-2.64 1.616,2.64 1.624,-1.176 -2.024,-2.36 3.024,-0.712 -0.624,-1.92 -2.856,1.2 0.256,-3.096 z"
           id="path212" />
        <path
           d="m 21.244037,-162.116 q 0,-0.448 0.216,-0.824 0.224,-0.376 0.6,-0.6 0.376,-0.224 0.832,-0.224 0.464,0 0.84,0.224 0.376,0.224 0.592,0.6 0.224,0.376 0.224,0.824 0,0.448 -0.224,0.832 -0.216,0.376 -0.592,0.6 -0.376,0.224 -0.84,0.224 -0.456,0 -0.832,-0.224 -0.376,-0.224 -0.6,-0.6 -0.216,-0.384 -0.216,-0.832 z"
           id="path214" />
        <path
           d="m 33.252012,-162.156 q 0.56,0 1.048,-0.208 0.496,-0.208 0.952,-0.528 l 0.96,1.352 q -0.56,0.472 -1.352,0.776 -0.792,0.304 -1.696,0.304 -1.328,0 -2.28,-0.552 -0.944,-0.56 -1.456,-1.552 -0.504,-1 -0.504,-2.32 0,-1.304 0.512,-2.328 0.52,-1.032 1.472,-1.616 0.96,-0.584 2.288,-0.584 0.912,0 1.648,0.264 0.744,0.256 1.36,0.768 l -0.936,1.296 q -0.472,-0.328 -0.976,-0.496 -0.496,-0.176 -1.032,-0.176 -0.936,0 -1.528,0.68 -0.584,0.672 -0.584,2.192 0,1 0.272,1.6 0.28,0.6 0.752,0.864 0.48,0.264 1.08,0.264 z"
           id="path216" />
        <path
           d="m 42.963988,-169.412 q 1.12,0 1.792,0.552 0.68,0.544 0.984,1.544 0.312,1 0.312,2.36 0,1.304 -0.376,2.32 -0.376,1.016 -1.104,1.6 -0.72,0.576 -1.776,0.576 -1.296,0 -2.096,-0.92 v 3.944 l -2.112,0.224 v -11.96 h 1.856 l 0.112,1.032 q 0.504,-0.656 1.128,-0.96 0.624,-0.312 1.28,-0.312 z m -0.616,1.584 q -0.536,0 -0.944,0.32 -0.4,0.32 -0.704,0.792 v 3.792 q 0.288,0.432 0.656,0.648 0.368,0.216 0.832,0.216 0.808,0 1.232,-0.672 0.432,-0.68 0.432,-2.2 0,-1.072 -0.176,-1.704 -0.168,-0.64 -0.504,-0.912 -0.336,-0.28 -0.824,-0.28 z"
           id="path218" />
        <path
           d="m 52.563963,-169.412 q 1.12,0 1.792,0.552 0.68,0.544 0.984,1.544 0.312,1 0.312,2.36 0,1.304 -0.376,2.32 -0.376,1.016 -1.104,1.6 -0.72,0.576 -1.776,0.576 -1.296,0 -2.096,-0.92 v 3.944 l -2.112,0.224 v -11.96 h 1.856 l 0.112,1.032 q 0.504,-0.656 1.128,-0.96 0.624,-0.312 1.28,-0.312 z m -0.616,1.584 q -0.536,0 -0.944,0.32 -0.4,0.32 -0.704,0.792 v 3.792 q 0.288,0.432 0.656,0.648 0.368,0.216 0.832,0.216 0.808,0 1.232,-0.672 0.432,-0.68 0.432,-2.2 0,-1.072 -0.176,-1.704 -0.168,-0.64 -0.504,-0.912 -0.336,-0.28 -0.824,-0.28 z"
           id="path220" />
      </g>
    </g>
    <!-- obj -->
    <g
       id="node5"
       class="node">
      <title
         id="title29">obj</title>
      <path
         id="polygon31"
         style="fill:#63b8ff;stroke:#63b8ff"
         d="m 83.5,-73.5 v -36 h 134 v 36 z" />
      <g
         aria-label="*.o or *.obj"
         id="text33"
         style="font-size:16px;font-family:'Fira Code SemiBold';text-anchor:middle">
        <path
           d="m 96.684146,-97.099997 0.256,3.096 -2.856,-1.2 -0.624,1.92 3.024,0.712 -2.024,2.36 1.624,1.176 1.616,-2.64 1.616,2.64 1.624004,-1.176 -2.024004,-2.36 3.024004,-0.712 -0.624,-1.92 -2.856004,1.2 0.256,-3.096 z"
           id="path224" />
        <path
           d="m 105.64412,-89.115997 q 0,-0.448 0.216,-0.824 0.224,-0.376 0.6,-0.6 0.376,-0.224 0.832,-0.224 0.464,0 0.84,0.224 0.376,0.224 0.592,0.6 0.224,0.376 0.224,0.824 0,0.448 -0.224,0.832 -0.216,0.376 -0.592,0.6 -0.376,0.224 -0.84,0.224 -0.456,0 -0.832,-0.224 -0.376,-0.224 -0.6,-0.6 -0.216,-0.384 -0.216,-0.832 z"
           id="path226" />
        <path
           d="m 116.9081,-96.411997 q 1.264,0 2.144,0.552 0.88,0.552 1.336,1.56 0.464,1 0.464,2.344 0,1.376 -0.464,2.384 -0.464,1.008 -1.344,1.56 -0.88,0.552 -2.144,0.552 -1.256,0 -2.144,-0.536 -0.88,-0.544 -1.344,-1.544 -0.464,-1.008 -0.464,-2.4 0,-1.328 0.464,-2.336 0.464,-1.008 1.352,-1.568 0.888,-0.568 2.144,-0.568 z m 0,1.592 q -0.888,0 -1.328,0.696 -0.432,0.696 -0.432,2.184 0,1.504 0.432,2.2 0.432,0.688 1.32,0.688 0.888,0 1.32,-0.688 0.432,-0.696 0.432,-2.216 0,-1.48 -0.432,-2.168 -0.432,-0.696 -1.312,-0.696 z"
           id="path228" />
        <path
           d="m 136.10805,-96.411997 q 1.264,0 2.144,0.552 0.88,0.552 1.336,1.56 0.464,1 0.464,2.344 0,1.376 -0.464,2.384 -0.464,1.008 -1.344,1.56 -0.88,0.552 -2.144,0.552 -1.256,0 -2.144,-0.536 -0.88,-0.544 -1.344,-1.544 -0.464,-1.008 -0.464,-2.4 0,-1.328 0.464,-2.336 0.464,-1.008 1.352,-1.568 0.888,-0.568 2.144,-0.568 z m 0,1.592 q -0.888,0 -1.328,0.696 -0.432,0.696 -0.432,2.184 0,1.504 0.432,2.2 0.432,0.688 1.32,0.688 0.888,0 1.32,-0.688 0.432,-0.696 0.432,-2.216 0,-1.48 -0.432,-2.168 -0.432,-0.696 -1.312,-0.696 z"
           id="path230" />
        <path
           d="m 142.26802,-87.699997 v -1.464 h 1.192 v -5.552 h -1.192 v -1.456 h 2.8 l 0.392,1.944 q 0.464,-1.08 1.168,-1.624 0.704,-0.552 1.768,-0.552 0.408,0 0.72,0.064 0.32,0.064 0.608,0.168 l -0.632,1.776 q -0.248,-0.064 -0.472,-0.096 -0.224,-0.04 -0.504,-0.04 -0.88,0 -1.536,0.688 -0.648,0.68 -1.008,1.848 v 2.832 h 1.688 v 1.464 z m 5.672,-5.168 v -2.248 l 0.288,-1.056 h 1.496 l -0.376,3.304 z"
           id="path232" />
        <path
           d="m 163.88398,-97.099997 0.256,3.096 -2.856,-1.2 -0.624,1.92 3.024,0.712 -2.024,2.36 1.624,1.176 1.616,-2.64 1.616,2.64 1.624,-1.176 -2.024,-2.36 3.024,-0.712 -0.624,-1.92 -2.856,1.2 0.256,-3.096 z"
           id="path234" />
        <path
           d="m 172.84395,-89.115997 q 0,-0.448 0.216,-0.824 0.224,-0.376 0.6,-0.6 0.376,-0.224 0.832,-0.224 0.464,0 0.84,0.224 0.376,0.224 0.592,0.6 0.224,0.376 0.224,0.824 0,0.448 -0.224,0.832 -0.216,0.376 -0.592,0.6 -0.376,0.224 -0.84,0.224 -0.456,0 -0.832,-0.224 -0.376,-0.224 -0.6,-0.6 -0.216,-0.384 -0.216,-0.832 z"
           id="path236" />
        <path
           d="m 184.10793,-96.411997 q 1.264,0 2.144,0.552 0.88,0.552 1.336,1.56 0.464,1 0.464,2.344 0,1.376 -0.464,2.384 -0.464,1.008 -1.344,1.56 -0.88,0.552 -2.144,0.552 -1.256,0 -2.144,-0.536 -0.88,-0.544 -1.344,-1.544 -0.464,-1.008 -0.464,-2.4 0,-1.328 0.464,-2.336 0.464,-1.008 1.352,-1.568 0.888,-0.568 2.144,-0.568 z m 0,1.592 q -0.888,0 -1.328,0.696 -0.432,0.696 -0.432,2.184 0,1.504 0.432,2.2 0.432,0.688 1.32,0.688 0.888,0 1.32,-0.688 0.432,-0.696 0.432,-2.216 0,-1.48 -0.432,-2.168 -0.432,-0.696 -1.312,-0.696 z"
           id="path238" />
        <path
           d="m 192.2999,-95.219997 q 0.424,-0.56 1,-0.872 0.584,-0.32 1.256,-0.32 1.112,0 1.8,0.552 0.696,0.544 1.016,1.544 0.328,1 0.328,2.36 0,1.304 -0.384,2.32 -0.384,1.016 -1.144,1.6 -0.752,0.576 -1.848,0.576 -1.376,0 -2.168,-1.048 l -0.096,0.808 h -1.872 v -11.856 l 2.112,-0.224 z m 1.48,6.184 q 0.808,0 1.264,-0.688 0.456,-0.688 0.456,-2.208 0,-1.072 -0.192,-1.704 -0.184,-0.64 -0.536,-0.912 -0.344,-0.28 -0.832,-0.28 -0.528,0 -0.936,0.32 -0.4,0.32 -0.704,0.792 v 3.792 q 0.272,0.424 0.64,0.656 0.368,0.232 0.84,0.232 z"
           id="path240" />
        <path
           d="m 205.90788,-96.171997 v 6.4 q 0,1.688 -0.672,2.792 -0.664,1.104 -1.96,1.76 -1.296,0.656 -3.176,1.008 l -0.344,-1.616 q 1.28,-0.264 2.176,-0.696 0.904,-0.432 1.384,-1.176 0.48,-0.744 0.48,-1.936 v -5.04 h -3.216 v -1.496 z m -1.504,-4.272003 q 0.576,0 0.944,0.36 0.368,0.360003 0.368,0.896003 0,0.536 -0.368,0.904 -0.368,0.36 -0.944,0.36 -0.584,0 -0.952,-0.36 -0.368,-0.368 -0.368,-0.904 0,-0.536 0.368,-0.896003 0.368,-0.36 0.952,-0.36 z"
           id="path242" />
      </g>
    </g>
    <!-- cpp&#45;&gt;obj -->
    <g
       id="edge1"
       class="edge">
      <title
         id="title36">cpp-&gt;obj</title>
      <path
         fill="none"
         stroke="#696969"
         d="m 60.76,-146.49 c 15.8,9.5 35.67,21.45 52.69,31.7"
         id="path38" />
      <path
         id="polygon40"
         style="fill:#696969;stroke:#696969"
         d="m 115.29,-117.77 6.77,8.16 -10.38,-2.16 z" />
    </g>
    <!-- cu -->
    <g
       id="node2"
       class="node">
      <title
         id="title43">cu</title>
      <path
         id="polygon45"
         style="fill:#b0e2ff;stroke:#b0e2ff"
         d="m 83.5,-146.5 v -36 h 56 v 36 z" />
      <g
         aria-label="*.cu"
         id="text47"
         style="font-size:16px;font-family:'Fira Code SemiBold';text-anchor:middle">
        <path
           d="m 96.084049,-170.1 0.256,3.096 -2.856,-1.2 -0.624,1.92 3.024,0.712 -2.024,2.36 1.624,1.176 1.616,-2.64 1.616,2.64 1.624001,-1.176 -2.024001,-2.36 3.024001,-0.712 -0.624,-1.92 -2.856001,1.2 0.256,-3.096 z"
           id="path247" />
        <path
           d="m 105.04402,-162.116 q 0,-0.448 0.216,-0.824 0.224,-0.376 0.6,-0.6 0.376,-0.224 0.832,-0.224 0.464,0 0.84,0.224 0.376,0.224 0.592,0.6 0.224,0.376 0.224,0.824 0,0.448 -0.224,0.832 -0.216,0.376 -0.592,0.6 -0.376,0.224 -0.84,0.224 -0.456,0 -0.832,-0.224 -0.376,-0.224 -0.6,-0.6 -0.216,-0.384 -0.216,-0.832 z"
           id="path249" />
        <path
           d="m 117.052,-162.156 q 0.56,0 1.048,-0.208 0.496,-0.208 0.952,-0.528 l 0.96,1.352 q -0.56,0.472 -1.352,0.776 -0.792,0.304 -1.696,0.304 -1.328,0 -2.28,-0.552 -0.944,-0.56 -1.456,-1.552 -0.504,-1 -0.504,-2.32 0,-1.304 0.512,-2.328 0.52,-1.032 1.472,-1.616 0.96,-0.584 2.288,-0.584 0.912,0 1.648,0.264 0.744,0.256 1.36,0.768 l -0.936,1.296 q -0.472,-0.328 -0.976,-0.496 -0.496,-0.176 -1.032,-0.176 -0.936,0 -1.528,0.68 -0.584,0.672 -0.584,2.192 0,1 0.272,1.6 0.28,0.6 0.752,0.864 0.48,0.264 1.08,0.264 z"
           id="path251" />
        <path
           d="m 124.49998,-169.172 v 5.872 q 0,0.688 0.272,0.968 0.272,0.28 0.792,0.28 0.496,0 0.968,-0.296 0.472,-0.304 0.768,-0.768 v -6.056 h 2.112 v 8.472 h -1.84 l -0.112,-1.04 q -0.456,0.624 -1.168,0.952 -0.712,0.328 -1.472,0.328 -1.224,0 -1.832,-0.688 -0.6,-0.696 -0.6,-1.896 v -6.128 z"
           id="path253" />
      </g>
    </g>
    <!-- cu&#45;&gt;obj -->
    <g
       id="edge2"
       class="edge">
      <title
         id="title50">cu-&gt;obj</title>
      <path
         fill="none"
         stroke="#696969"
         d="m 120.94,-146.31 c 4.6,8.37 10.23,18.61 15.33,27.91"
         id="path52" />
      <path
         id="polygon54"
         style="fill:#696969;stroke:#696969"
         d="m 139.4,-119.98 1.75,10.45 -7.89,-7.08 z" />
    </g>
    <!-- rdc -->
    <g
       id="node3"
       class="node">
      <title
         id="title57">rdc</title>
      <path
         id="polygon59"
         style="fill:#b0e2ff;stroke:#b0e2ff"
         d="m 158,-146.5 v -36 h 65 v 36 z" />
      <g
         aria-label="*.rdc"
         id="text61"
         style="font-size:16px;font-family:'Fira Code SemiBold';text-anchor:middle">
        <path
           d="m 170.28406,-170.1 0.256,3.096 -2.856,-1.2 -0.624,1.92 3.024,0.712 -2.024,2.36 1.624,1.176 1.616,-2.64 1.616,2.64 1.624,-1.176 -2.024,-2.36 3.024,-0.712 -0.624,-1.92 -2.856,1.2 0.256,-3.096 z"
           id="path258" />
        <path
           d="m 179.24404,-162.116 q 0,-0.448 0.216,-0.824 0.224,-0.376 0.6,-0.6 0.376,-0.224 0.832,-0.224 0.464,0 0.84,0.224 0.376,0.224 0.592,0.6 0.224,0.376 0.224,0.824 0,0.448 -0.224,0.832 -0.216,0.376 -0.592,0.6 -0.376,0.224 -0.84,0.224 -0.456,0 -0.832,-0.224 -0.376,-0.224 -0.6,-0.6 -0.216,-0.384 -0.216,-0.832 z"
           id="path260" />
        <path
           d="m 187.06801,-160.7 v -1.464 h 1.192 v -5.552 h -1.192 v -1.456 h 2.8 l 0.392,1.944 q 0.464,-1.08 1.168,-1.624 0.704,-0.552 1.768,-0.552 0.408,0 0.72,0.064 0.32,0.064 0.608,0.168 l -0.632,1.776 q -0.248,-0.064 -0.472,-0.096 -0.224,-0.04 -0.504,-0.04 -0.88,0 -1.536,0.688 -0.648,0.68 -1.008,1.848 v 2.832 h 1.688 v 1.464 z m 5.672,-5.168 v -2.248 l 0.288,-1.056 h 1.496 l -0.376,3.304 z"
           id="path262" />
        <path
           d="m 201.49999,-172.78 2.112,0.224 v 11.856 h -1.872 l -0.128,-1 q -0.392,0.56 -0.984,0.904 -0.592,0.336 -1.376,0.336 -1.072,0 -1.776,-0.56 -0.696,-0.56 -1.04,-1.568 -0.336,-1.016 -0.336,-2.36 0,-1.296 0.4,-2.304 0.4,-1.008 1.152,-1.584 0.76,-0.576 1.8,-0.576 0.624,0 1.136,0.216 0.512,0.216 0.912,0.64 z m -1.48,4.944 q -0.8,0 -1.264,0.696 -0.456,0.688 -0.456,2.2 0,1.064 0.192,1.704 0.192,0.632 0.544,0.912 0.352,0.28 0.832,0.28 0.528,0 0.928,-0.312 0.408,-0.32 0.704,-0.792 v -3.856 q -0.296,-0.392 -0.664,-0.608 -0.36,-0.224 -0.816,-0.224 z"
           id="path264" />
        <path
           d="m 210.45196,-162.156 q 0.56,0 1.048,-0.208 0.496,-0.208 0.952,-0.528 l 0.96,1.352 q -0.56,0.472 -1.352,0.776 -0.792,0.304 -1.696,0.304 -1.328,0 -2.28,-0.552 -0.944,-0.56 -1.456,-1.552 -0.504,-1 -0.504,-2.32 0,-1.304 0.512,-2.328 0.52,-1.032 1.472,-1.616 0.96,-0.584 2.288,-0.584 0.912,0 1.648,0.264 0.744,0.256 1.36,0.768 l -0.936,1.296 q -0.472,-0.328 -0.976,-0.496 -0.496,-0.176 -1.032,-0.176 -0.936,0 -1.528,0.68 -0.584,0.672 -0.584,2.192 0,1 0.272,1.6 0.28,0.6 0.752,0.864 0.48,0.264 1.08,0.264 z"
           id="path266" />
      </g>
    </g>
    <!-- rdc&#45;&gt;obj -->
    <g
       id="edge3"
       class="edge">
      <title
         id="title64">rdc-&gt;obj</title>
      <path
         fill="none"
         stroke="#696969"
         d="m 180.82,-146.31 c -4.72,8.37 -10.49,18.61 -15.73,27.91"
         id="path66" />
      <path
         id="polygon68"
         style="fill:#696969;stroke:#696969"
         d="m 168.05,-116.52 -7.96,6.99 1.86,-10.43 z" />
    </g>
    <!-- glb -->
    <g
       id="node4"
       class="node">
      <title
         id="title71">glb</title>
      <path
         id="polygon73"
         style="fill:#b0e2ff;stroke:#b0e2ff"
         d="m 241,-146.5 v -36 h 65 v 36 z" />
      <g
         aria-label="*.glb"
         id="text75"
         style="font-size:16px;font-family:'Fira Code SemiBold';text-anchor:middle">
        <path
           d="m 253.28406,-170.1 0.256,3.096 -2.856,-1.2 -0.624,1.92 3.024,0.712 -2.024,2.36 1.624,1.176 1.616,-2.64 1.616,2.64 1.624,-1.176 -2.024,-2.36 3.024,-0.712 -0.624,-1.92 -2.856,1.2 0.256,-3.096 z"
           id="path271" />
        <path
           d="m 262.24404,-162.116 q 0,-0.448 0.216,-0.824 0.224,-0.376 0.6,-0.6 0.376,-0.224 0.832,-0.224 0.464,0 0.84,0.224 0.376,0.224 0.592,0.6 0.224,0.376 0.224,0.824 0,0.448 -0.224,0.832 -0.216,0.376 -0.592,0.6 -0.376,0.224 -0.84,0.224 -0.456,0 -0.832,-0.224 -0.376,-0.224 -0.6,-0.6 -0.216,-0.384 -0.216,-0.832 z"
           id="path273" />
        <path
           d="m 277.29201,-170.364 0.528,1.648 q -0.48,0.168 -1.08,0.24 -0.6,0.064 -1.376,0.064 0.776,0.336 1.176,0.856 0.408,0.512 0.408,1.304 0,0.824 -0.424,1.472 -0.416,0.648 -1.192,1.016 -0.768,0.368 -1.832,0.368 -0.328,0 -0.584,-0.032 -0.256,-0.032 -0.496,-0.088 -0.16,0.088 -0.248,0.256 -0.088,0.168 -0.088,0.344 0,0.24 0.184,0.416 0.192,0.168 0.816,0.168 h 1.44 q 0.936,0 1.64,0.32 0.712,0.312 1.104,0.848 0.4,0.536 0.4,1.232 0,1.28 -1.112,2 -1.112,0.72 -3.248,0.72 -1.528,0 -2.384,-0.312 -0.848,-0.312 -1.192,-0.912 -0.344,-0.592 -0.344,-1.432 h 1.88 q 0,0.408 0.16,0.672 0.168,0.264 0.616,0.392 0.456,0.128 1.304,0.128 0.848,0 1.328,-0.136 0.488,-0.136 0.688,-0.392 0.2,-0.248 0.2,-0.584 0,-0.456 -0.384,-0.712 -0.384,-0.256 -1.088,-0.256 h -1.4 q -1.28,0 -1.864,-0.496 -0.584,-0.504 -0.584,-1.16 0,-0.448 0.24,-0.856 0.248,-0.416 0.704,-0.704 -0.784,-0.416 -1.136,-0.992 -0.344,-0.584 -0.344,-1.408 0,-0.92 0.464,-1.6 0.464,-0.68 1.288,-1.056 0.824,-0.376 1.896,-0.376 0.984,0.008 1.672,-0.12 0.696,-0.128 1.224,-0.352 0.536,-0.224 1.04,-0.488 z m -3.896,2.368 q -0.752,0 -1.152,0.44 -0.392,0.44 -0.392,1.168 0,0.752 0.408,1.192 0.408,0.44 1.144,0.44 0.728,0 1.104,-0.424 0.384,-0.432 0.384,-1.232 0,-0.8 -0.384,-1.192 -0.376,-0.392 -1.112,-0.392 z"
           id="path275" />
        <path
           d="m 283.61999,-172.556 v 9.392 q 0,0.552 0.32,0.784 0.328,0.232 0.88,0.232 0.344,0 0.664,-0.072 0.32,-0.08 0.608,-0.192 l 0.52,1.44 q -0.4,0.2 -0.976,0.352 -0.568,0.16 -1.32,0.16 -1.384,0 -2.096,-0.792 -0.712,-0.792 -0.712,-2.136 v -7.672 h -2.536 v -1.496 z"
           id="path277" />
        <path
           d="m 291.29996,-168.22 q 0.424,-0.56 1,-0.872 0.584,-0.32 1.256,-0.32 1.112,0 1.8,0.552 0.696,0.544 1.016,1.544 0.328,1 0.328,2.36 0,1.304 -0.384,2.32 -0.384,1.016 -1.144,1.6 -0.752,0.576 -1.848,0.576 -1.376,0 -2.168,-1.048 l -0.096,0.808 h -1.872 v -11.856 l 2.112,-0.224 z m 1.48,6.184 q 0.808,0 1.264,-0.688 0.456,-0.688 0.456,-2.208 0,-1.072 -0.192,-1.704 -0.184,-0.64 -0.536,-0.912 -0.344,-0.28 -0.832,-0.28 -0.528,0 -0.936,0.32 -0.4,0.32 -0.704,0.792 v 3.792 q 0.272,0.424 0.64,0.656 0.368,0.232 0.84,0.232 z"
           id="path279" />
      </g>
    </g>
    <!-- glb&#45;&gt;obj -->
    <g
       id="edge4"
       class="edge">
      <title
         id="title78">glb-&gt;obj</title>
      <path
         fill="none"
         stroke="#696969"
         d="m 244.04,-146.49 c -16.46,9.5 -37.17,21.45 -54.92,31.7"
         id="path80" />
      <path
         id="polygon82"
         style="fill:#696969;stroke:#696969"
         d="m 190.56,-111.58 -10.41,1.97 6.91,-8.03 z" />
    </g>
    <!-- libmerlin -->
    <g
       id="node6"
       class="node">
      <title
         id="title85">libmerlin</title>
      <path
         id="polygon87"
         style="fill:#1e90ff;stroke:#1e90ff"
         d="m 98.5,-0.5 v -36 h 104 v 36 z" />
      <g
         aria-label="libmerlin"
         id="text89"
         style="font-size:16px;font-family:'Fira Code SemiBold';text-anchor:middle">
        <path
           d="m 112.62011,-26.556 v 9.392 q 0,0.552 0.32,0.784 0.328,0.232 0.88,0.232 0.344,0 0.664,-0.072 0.32,-0.08 0.608,-0.192 l 0.52,1.44 q -0.4,0.2 -0.976,0.352 -0.568,0.16 -1.32,0.16 -1.384,0 -2.096,-0.792 -0.712,-0.792 -0.712,-2.136 v -7.672 h -2.536 v -1.496 z"
           id="path284" />
        <path
           d="m 123.06009,-23.172 v 6.976 h 2.232 v 1.496 h -6.824 v -1.496 h 2.48 v -5.48 h -2.4 v -1.496 z m -1.368,-4.272 q 0.584,0 0.944,0.36 0.368,0.36 0.368,0.896 0,0.536 -0.368,0.904 -0.36,0.36 -0.944,0.36 -0.584,0 -0.952,-0.36 -0.368,-0.368 -0.368,-0.904 0,-0.536 0.368,-0.896 0.368,-0.36 0.952,-0.36 z"
           id="path286" />
        <path
           d="m 129.90006,-22.22 q 0.424,-0.56 1,-0.872 0.584,-0.32 1.256,-0.32 1.112,0 1.8,0.552 0.696,0.544 1.016,1.544 0.328,1 0.328,2.36 0,1.304 -0.384,2.32 -0.384,1.016 -1.144,1.6 -0.752,0.576 -1.848,0.576 -1.376,0 -2.168,-1.048 l -0.096,0.808 h -1.872 v -11.856 l 2.112,-0.224 z m 1.48,6.184 q 0.808,0 1.264,-0.688 0.456,-0.688 0.456,-2.208 0,-1.072 -0.192,-1.704 -0.184,-0.64 -0.536,-0.912 -0.344,-0.28 -0.832,-0.28 -0.528,0 -0.936,0.32 -0.4,0.32 -0.704,0.792 v 3.792 q 0.272,0.424 0.64,0.656 0.368,0.232 0.84,0.232 z"
           id="path288" />
        <path
           d="m 143.41204,-23.412 q 0.544,0 0.928,0.232 0.384,0.224 0.592,0.76 0.208,0.528 0.208,1.44 v 6.28 h -1.84 v -6.016 q 0,-0.576 -0.096,-0.816 -0.088,-0.24 -0.408,-0.24 -0.264,0 -0.536,0.16 -0.264,0.152 -0.552,0.552 v 6.36 h -1.592 v -6.016 q 0,-0.576 -0.096,-0.816 -0.088,-0.24 -0.408,-0.24 -0.272,0 -0.536,0.16 -0.264,0.152 -0.552,0.552 v 6.36 h -1.864 v -8.472 h 1.576 l 0.136,0.88 q 0.376,-0.528 0.792,-0.824 0.416,-0.296 1,-0.296 0.48,0 0.848,0.24 0.376,0.232 0.536,0.8 0.368,-0.464 0.824,-0.752 0.456,-0.288 1.04,-0.288 z"
           id="path290" />
        <path
           d="m 148.78801,-18.292 q 0.064,0.792 0.36,1.288 0.304,0.496 0.776,0.728 0.472,0.232 1.048,0.232 0.608,0 1.144,-0.192 0.536,-0.192 1.056,-0.536 l 0.88,1.208 q -0.592,0.496 -1.416,0.8 -0.816,0.304 -1.8,0.304 -1.376,0 -2.32,-0.568 -0.936,-0.568 -1.416,-1.576 -0.48,-1.008 -0.48,-2.32 0,-1.264 0.472,-2.28 0.472,-1.016 1.36,-1.608 0.888,-0.6 2.144,-0.6 1.168,0 2.016,0.512 0.848,0.512 1.312,1.472 0.464,0.952 0.464,2.296 0,0.216 -0.016,0.44 -0.008,0.224 -0.024,0.4 z m 1.816,-3.632 q -0.768,0 -1.264,0.552 -0.488,0.544 -0.576,1.728 h 3.568 q -0.016,-1.072 -0.448,-1.672 -0.424,-0.608 -1.28,-0.608 z"
           id="path292" />
        <path
           d="m 156.66799,-14.7 v -1.464 h 1.192 v -5.552 h -1.192 v -1.456 h 2.8 l 0.392,1.944 q 0.464,-1.08 1.168,-1.624 0.704,-0.552 1.768,-0.552 0.408,0 0.72,0.064 0.32,0.064 0.608,0.168 l -0.632,1.776 q -0.248,-0.064 -0.472,-0.096 -0.224,-0.04 -0.504,-0.04 -0.88,0 -1.536,0.688 -0.648,0.68 -1.008,1.848 v 2.832 h 1.688 v 1.464 z m 5.672,-5.168 v -2.248 l 0.288,-1.056 h 1.496 l -0.376,3.304 z"
           id="path294" />
        <path
           d="m 170.21996,-26.556 v 9.392 q 0,0.552 0.32,0.784 0.328,0.232 0.88,0.232 0.344,0 0.664,-0.072 0.32,-0.08 0.608,-0.192 l 0.52,1.44 q -0.4,0.2 -0.976,0.352 -0.568,0.16 -1.32,0.16 -1.384,0 -2.096,-0.792 -0.712,-0.792 -0.712,-2.136 v -7.672 h -2.536 v -1.496 z"
           id="path296" />
        <path
           d="m 180.65994,-23.172 v 6.976 h 2.232 v 1.496 h -6.824 v -1.496 h 2.48 v -5.48 h -2.4 v -1.496 z m -1.368,-4.272 q 0.584,0 0.944,0.36 0.368,0.36 0.368,0.896 0,0.536 -0.368,0.904 -0.36,0.36 -0.944,0.36 -0.584,0 -0.952,-0.36 -0.368,-0.368 -0.368,-0.904 0,-0.536 0.368,-0.896 0.368,-0.36 0.952,-0.36 z"
           id="path298" />
        <path
           d="m 185.38791,-14.7 v -8.472 h 1.84 l 0.152,1.048 q 0.544,-0.64 1.224,-0.96 0.68,-0.328 1.464,-0.328 1.144,0 1.744,0.664 0.6,0.656 0.6,1.848 v 6.2 h -2.112 v -5.376 q 0,-0.64 -0.08,-1.024 -0.08,-0.392 -0.304,-0.56 -0.224,-0.176 -0.648,-0.176 -0.344,0 -0.664,0.152 -0.312,0.152 -0.592,0.408 -0.272,0.256 -0.512,0.568 v 6.008 z"
           id="path300" />
      </g>
    </g>
    <!-- obj&#45;&gt;libmerlin -->
    <g
       id="edge5"
       class="edge">
      <title
         id="title92">obj-&gt;libmerlin</title>
      <path
         fill="none"
         stroke="#27408b"
         d="m 150.5,-73.31 c 0,8.02 0,17.76 0,26.74"
         id="path94" />
      <path
         id="polygon96"
         style="fill:#27408b;stroke:#27408b"
         d="m 154,-46.53 -3.5,10 -3.5,-10 z" />
    </g>
  </g>
</svg>
