<?xml version="1.0" encoding="UTF-8" standalone="no"?>
<!-- Generated by graphviz version 6.0.2 (20221011.1828)
 -->

<!-- Title: StaticCompilation Pages: 1 -->

<svg
   width="222pt"
   height="193pt"
   viewBox="0.00 0.00 222.00 193.00"
   version="1.1"
   id="svg72"
   sodipodi:docname="static_comp.svg"
   inkscape:version="1.1.1 (3bf5ae0d25, 2021-09-20)"
   xmlns:inkscape="http://www.inkscape.org/namespaces/inkscape"
   xmlns:sodipodi="http://sodipodi.sourceforge.net/DTD/sodipodi-0.dtd"
   xmlns="http://www.w3.org/2000/svg"
   xmlns:svg="http://www.w3.org/2000/svg">
  <defs
     id="defs76" />
  <sodipodi:namedview
     id="namedview74"
     pagecolor="#505050"
     bordercolor="#eeeeee"
     borderopacity="1"
     inkscape:pageshadow="0"
     inkscape:pageopacity="0"
     inkscape:pagecheckerboard="0"
     inkscape:document-units="pt"
     showgrid="false"
     inkscape:zoom="3.1165803"
     inkscape:cx="148.07897"
     inkscape:cy="128.8271"
     inkscape:window-width="1920"
     inkscape:window-height="991"
     inkscape:window-x="-9"
     inkscape:window-y="-9"
     inkscape:window-maximized="1"
     inkscape:current-layer="svg72" />
  <g
     id="graph0"
     class="graph"
     transform="translate(4,189)">
    <title
       id="title2">StaticCompilation</title>
    <path
       id="polygon4"
       style="fill:#ffffff"
       d="M -4,4 V -189 H 218 V 4 Z" />
    <!-- cpp -->
    <g
       id="node1"
       class="node">
      <title
         id="title6">cpp</title>
      <path
         id="polygon8"
         style="fill:#b0e2ff;stroke:#b0e2ff"
         d="m 0,-148.5 v -36 h 62 v 36 z" />
      <g
         aria-label="*.cpp"
         id="text10"
         style="font-size:14px;font-family:'Fira Code SemiBold';text-anchor:middle">
        <path
           d="m 12.857487,-171.2359 h 1.82359 l -0.229744,2.77846 2.563077,-1.07692 0.56,1.72307 -2.713846,0.63898 1.81641,2.11795 -1.457435,1.05538 -1.450257,-2.36923 -1.450256,2.36923 -1.457436,-1.05538 1.81641,-2.11795 -2.7138461,-0.63898 0.5600001,-1.72307 2.563077,1.07692 z"
           style="font-size:14px;font-family:'Fira Code SemiBold';text-anchor:middle"
           id="path80" />
        <path
           d="m 20.898492,-164.07077 q 0,-0.60308 0.43077,-1.04103 0.430769,-0.43795 1.048205,-0.43795 0.624615,0 1.055384,0.43795 0.43077,0.43795 0.43077,1.04103 0,0.61025 -0.43077,1.0482 -0.430769,0.43795 -1.055384,0.43795 -0.617436,0 -1.048205,-0.43795 -0.43077,-0.43795 -0.43077,-1.0482 z"
           style="font-size:14px;font-family:'Fira Code SemiBold';text-anchor:middle"
           id="path82" />
        <path
           d="m 31.674882,-164.10667 q 0.502564,0 0.940513,-0.18667 0.437949,-0.18666 0.854359,-0.47384 l 0.861538,1.21333 q -0.502564,0.42359 -1.213333,0.69641 -0.710769,0.27282 -1.522051,0.27282 -1.198975,0 -2.053334,-0.49538 -0.847179,-0.49539 -1.299487,-1.39282 -0.452307,-0.89744 -0.452307,-2.08205 0,-1.17026 0.459487,-2.08924 0.466666,-0.91897 1.321025,-1.44307 0.861539,-0.53128 2.053334,-0.53128 0.818461,0 1.478974,0.23692 0.667692,0.22974 1.220513,0.68923 l -0.84,1.16308 q -0.42359,-0.28718 -0.875898,-0.44513 -0.452307,-0.15795 -0.926153,-0.15795 -0.84,0 -1.371282,0.61026 -0.524103,0.60307 -0.524103,1.96718 0,1.34974 0.538461,1.90256 0.538462,0.54564 1.349744,0.54564 z"
           style="font-size:14px;font-family:'Fira Code SemiBold';text-anchor:middle"
           id="path84" />
        <path
           d="m 40.390759,-170.61846 q 0.997949,0 1.608205,0.49538 0.610256,0.48821 0.883077,1.39282 0.28,0.89744 0.28,2.11077 0,1.17026 -0.337436,2.08205 -0.337436,0.9118 -0.990769,1.4359 -0.646154,0.51692 -1.593846,0.51692 -1.163077,0 -1.881026,-0.82564 v 3.53949 l -1.895385,0.20102 v -10.73333 h 1.665641 l 0.100513,0.92615 q 0.445129,-0.58871 1.005129,-0.86153 0.567179,-0.28 1.155897,-0.28 z m -0.552821,1.42153 q -0.481025,0 -0.847179,0.28718 -0.358974,0.28718 -0.631795,0.71077 v 3.40308 q 0.524103,0.77538 1.335385,0.77538 0.725128,0 1.105641,-0.60307 0.387692,-0.61026 0.387692,-1.97436 0,-1.44308 -0.344615,-2.01744 -0.344616,-0.58154 -1.005129,-0.58154 z"
           style="font-size:14px;font-family:'Fira Code SemiBold';text-anchor:middle"
           id="path86" />
        <path
           d="m 49.006123,-170.61846 q 0.997949,0 1.608205,0.49538 0.610257,0.48821 0.883077,1.39282 0.28,0.89744 0.28,2.11077 0,1.17026 -0.337436,2.08205 -0.337436,0.9118 -0.990769,1.4359 -0.646154,0.51692 -1.593846,0.51692 -1.163077,0 -1.881026,-0.82564 v 3.53949 l -1.895384,0.20102 v -10.73333 h 1.665641 l 0.100512,0.92615 q 0.445129,-0.58871 1.005129,-0.86153 0.567179,-0.28 1.155897,-0.28 z m -0.55282,1.42153 q -0.481026,0 -0.84718,0.28718 -0.358974,0.28718 -0.631795,0.71077 v 3.40308 q 0.524103,0.77538 1.335385,0.77538 0.725128,0 1.105641,-0.60307 0.387692,-0.61026 0.387692,-1.97436 0,-1.44308 -0.344615,-2.01744 -0.344616,-0.58154 -1.005128,-0.58154 z"
           style="font-size:14px;font-family:'Fira Code SemiBold';text-anchor:middle"
           id="path88" />
      </g>
    </g>
    <!-- obj -->
    <g
       id="node4"
       class="node">
      <title
         id="title13">obj</title>
      <path
         id="polygon15"
         style="fill:#63b8ff;stroke:#63b8ff"
         d="m 44.5,-75.5 v -36 h 125 v 36 z" />
      <g
         aria-label="*.o or *.obj"
         id="text17"
         style="font-size:14px;font-family:'Fira Code SemiBold';text-anchor:middle">
        <path
           d="m 58.703713,-98.2359 h 1.82359 l -0.229744,2.778461 2.563077,-1.076923 0.56,1.723077 -2.713846,0.638974 1.81641,2.117949 -1.457436,1.055385 -1.450256,-2.369231 -1.450257,2.369231 -1.457435,-1.055385 1.81641,-2.117949 -2.713846,-0.638974 0.56,-1.723077 2.563077,1.076923 z"
           style="font-size:14px;font-family:'Fira Code SemiBold';text-anchor:middle"
           id="path92" />
        <path
           d="m 66.744718,-91.070772 q 0,-0.603077 0.430769,-1.041026 0.43077,-0.437949 1.048205,-0.437949 0.624616,0 1.055385,0.437949 0.430769,0.437949 0.430769,1.041026 0,0.610256 -0.430769,1.048205 -0.430769,0.437949 -1.055385,0.437949 -0.617435,0 -1.048205,-0.437949 -0.430769,-0.437949 -0.430769,-1.048205 z"
           style="font-size:14px;font-family:'Fira Code SemiBold';text-anchor:middle"
           id="path94" />
        <path
           d="m 76.853415,-97.618465 q 1.134359,0 1.924103,0.495385 0.789744,0.495385 1.198974,1.4 0.416411,0.897436 0.416411,2.10359 0,1.852307 -0.926154,2.94359 -0.926154,1.091282 -2.620513,1.091282 -1.694359,0 -2.620513,-1.069744 -0.926154,-1.076923 -0.926154,-2.950769 0,-1.191795 0.416411,-2.096411 0.41641,-0.904615 1.206153,-1.407179 0.796924,-0.509744 1.931282,-0.509744 z m 0,1.428718 q -0.796923,0 -1.191794,0.624616 -0.387693,0.624615 -0.387693,1.96 0,1.349743 0.387693,1.974359 0.387692,0.617436 1.184615,0.617436 0.796923,0 1.184615,-0.617436 0.387693,-0.624616 0.387693,-1.988718 0,-1.328205 -0.387693,-1.945641 -0.387692,-0.624616 -1.177436,-0.624616 z"
           style="font-size:14px;font-family:'Fira Code SemiBold';text-anchor:middle"
           id="path96" />
        <path
           d="m 94.084144,-97.618465 q 1.134359,0 1.924102,0.495385 0.789744,0.495385 1.198975,1.4 0.41641,0.897436 0.41641,2.10359 0,1.852307 -0.926154,2.94359 -0.926154,1.091282 -2.620513,1.091282 -1.694359,0 -2.620513,-1.069744 -0.926154,-1.076923 -0.926154,-2.950769 0,-1.191795 0.416411,-2.096411 0.41641,-0.904615 1.206154,-1.407179 0.796923,-0.509744 1.931282,-0.509744 z m 0,1.428718 q -0.796923,0 -1.191795,0.624616 -0.387693,0.624615 -0.387693,1.96 0,1.349743 0.387693,1.974359 0.387692,0.617436 1.184615,0.617436 0.796923,0 1.184616,-0.617436 0.387692,-0.624616 0.387692,-1.988718 0,-1.328205 -0.387692,-1.945641 -0.387693,-0.624616 -1.177436,-0.624616 z"
           style="font-size:14px;font-family:'Fira Code SemiBold';text-anchor:middle"
           id="path98" />
        <path
           d="m 99.612328,-89.800003 v -1.313846 h 1.069742 v -4.982564 h -1.069742 v -1.306667 h 2.512822 l 0.35179,1.744615 q 0.41641,-0.962051 1.04821,-1.457435 0.63179,-0.495385 1.58667,-0.495385 0.36615,0 0.64615,0.05744 0.28,0.05744 0.54564,0.150769 l -0.33744,2.965128 h -1.26359 v -1.486154 q -0.73948,0.06462 -1.27794,0.674872 -0.53847,0.603077 -0.84718,1.593846 v 2.541539 h 1.51487 v 1.313846 z"
           style="font-size:14px;font-family:'Fira Code SemiBold';text-anchor:middle"
           id="path100" />
        <path
           d="m 119.01126,-98.2359 h 1.82359 l -0.22974,2.778461 2.56307,-1.076923 0.56,1.723077 -2.71384,0.638974 1.81641,2.117949 -1.45744,1.055385 -1.45025,-2.369231 -1.45026,2.369231 -1.45744,-1.055385 1.81641,-2.117949 -2.71384,-0.638974 0.56,-1.723077 2.56308,1.076923 z"
           style="font-size:14px;font-family:'Fira Code SemiBold';text-anchor:middle"
           id="path102" />
        <path
           d="m 127.05227,-91.070772 q 0,-0.603077 0.43077,-1.041026 0.43077,-0.437949 1.0482,-0.437949 0.62462,0 1.05539,0.437949 0.43076,0.437949 0.43076,1.041026 0,0.610256 -0.43076,1.048205 -0.43077,0.437949 -1.05539,0.437949 -0.61743,0 -1.0482,-0.437949 -0.43077,-0.437949 -0.43077,-1.048205 z"
           style="font-size:14px;font-family:'Fira Code SemiBold';text-anchor:middle"
           id="path104" />
        <path
           d="m 137.16096,-97.618465 q 1.13436,0 1.92411,0.495385 0.78974,0.495385 1.19897,1.4 0.41641,0.897436 0.41641,2.10359 0,1.852307 -0.92615,2.94359 -0.92616,1.091282 -2.62052,1.091282 -1.69435,0 -2.62051,-1.069744 -0.92615,-1.076923 -0.92615,-2.950769 0,-1.191795 0.41641,-2.096411 0.41641,-0.904615 1.20615,-1.407179 0.79693,-0.509744 1.93128,-0.509744 z m 0,1.428718 q -0.79692,0 -1.19179,0.624616 -0.38769,0.624615 -0.38769,1.96 0,1.349743 0.38769,1.974359 0.38769,0.617436 1.18461,0.617436 0.79693,0 1.18462,-0.617436 0.38769,-0.624616 0.38769,-1.988718 0,-1.328205 -0.38769,-1.945641 -0.38769,-0.624616 -1.17744,-0.624616 z"
           style="font-size:14px;font-family:'Fira Code SemiBold';text-anchor:middle"
           id="path106" />
        <path
           d="m 144.51274,-96.548721 q 0.38051,-0.495385 0.89743,-0.782564 0.52411,-0.28718 1.12718,-0.28718 1.48616,0 2.15385,1.091282 0.66769,1.084103 0.66769,2.907693 0,1.170256 -0.34461,2.082051 -0.34462,0.911795 -1.02667,1.435897 -0.67487,0.516924 -1.65846,0.516924 -1.24205,0 -1.94564,-0.940513 l -0.0862,0.725128 h -1.68 V -100.44 l 1.89539,-0.20103 z m 1.3282,5.549744 q 0.72513,0 1.13436,-0.617436 0.40923,-0.617436 0.40923,-1.981539 0,-1.443077 -0.37333,-2.017436 -0.37333,-0.581538 -1.02667,-0.581538 -0.47384,0 -0.84,0.287179 -0.35897,0.28718 -0.63179,0.71077 v 3.403077 q 0.2441,0.380512 0.57436,0.588717 0.33025,0.208206 0.75384,0.208206 z"
           style="font-size:14px;font-family:'Fira Code SemiBold';text-anchor:middle"
           id="path108" />
        <path
           d="m 155.37528,-101.23693 q 0.51692,0 0.84718,0.32308 0.33026,0.32308 0.33026,0.8041 0,0.481029 -0.33026,0.811285 -0.33026,0.323077 -0.84718,0.323077 -0.5241,0 -0.85436,-0.323077 -0.33025,-0.330256 -0.33025,-0.811285 0,-0.48102 0.33025,-0.8041 0.33026,-0.32308 0.85436,-0.32308 z m 1.34975,3.83385 v 5.74359 q 0,1.514872 -0.60308,2.505641 -0.5959,0.990769 -1.75898,1.579487 -1.16307,0.588718 -2.85025,0.904615 l -0.30872,-1.450256 q 1.14872,-0.229744 1.95282,-0.617436 0.81128,-0.387692 1.24205,-1.055385 0.43077,-0.667692 0.43077,-1.744615 v -4.523077 h -2.88615 v -1.342564 z"
           style="font-size:14px;font-family:'Fira Code SemiBold';text-anchor:middle"
           id="path110" />
      </g>
    </g>
    <!-- cpp&#45;&gt;obj -->
    <g
       id="edge1"
       class="edge">
      <title
         id="title20">cpp-&gt;obj</title>
      <path
         fill="none"
         stroke="#696969"
         d="m 49.4,-148.31 c 9.61,8.98 21.53,20.12 32.03,29.92"
         id="path22" />
      <path
         id="polygon24"
         style="fill:#696969;stroke:#696969"
         d="m 83.85,-120.91 4.92,9.38 -9.69,-4.27 z" />
    </g>
    <!-- cu -->
    <g
       id="node2"
       class="node">
      <title
         id="title27">cu</title>
      <path
         id="polygon29"
         style="fill:#b0e2ff;stroke:#b0e2ff"
         d="m 80,-148.5 v -36 h 54 v 36 z" />
      <g
         aria-label="*.cu"
         id="text31"
         style="font-size:14px;font-family:'Fira Code SemiBold';text-anchor:middle">
        <path
           d="m 93.165169,-171.2359 h 1.82359 l -0.229744,2.77846 2.563077,-1.07692 0.56,1.72307 -2.713846,0.63898 1.81641,2.11795 -1.457435,1.05538 -1.450257,-2.36923 -1.450256,2.36923 -1.457436,-1.05538 1.81641,-2.11795 -2.713846,-0.63898 0.56,-1.72307 2.563077,1.07692 z"
           style="font-size:14px;font-family:'Fira Code SemiBold';text-anchor:middle"
           id="path115" />
        <path
           d="m 101.20617,-164.07077 q 0,-0.60308 0.43077,-1.04103 0.43077,-0.43795 1.04821,-0.43795 0.62461,0 1.05538,0.43795 0.43077,0.43795 0.43077,1.04103 0,0.61025 -0.43077,1.0482 -0.43077,0.43795 -1.05538,0.43795 -0.61744,0 -1.04821,-0.43795 -0.43077,-0.43795 -0.43077,-1.0482 z"
           style="font-size:14px;font-family:'Fira Code SemiBold';text-anchor:middle"
           id="path117" />
        <path
           d="m 111.98256,-164.10667 q 0.50257,0 0.94052,-0.18667 0.43795,-0.18666 0.85436,-0.47384 l 0.86153,1.21333 q -0.50256,0.42359 -1.21333,0.69641 -0.71077,0.27282 -1.52205,0.27282 -1.19897,0 -2.05333,-0.49538 -0.84718,-0.49539 -1.29949,-1.39282 -0.45231,-0.89744 -0.45231,-2.08205 0,-1.17026 0.45949,-2.08924 0.46667,-0.91897 1.32102,-1.44307 0.86154,-0.53128 2.05334,-0.53128 0.81846,0 1.47897,0.23692 0.66769,0.22974 1.22051,0.68923 l -0.84,1.16308 q -0.42358,-0.28718 -0.87589,-0.44513 -0.45231,-0.15795 -0.92616,-0.15795 -0.84,0 -1.37128,0.61026 -0.5241,0.60307 -0.5241,1.96718 0,1.34974 0.53846,1.90256 0.53846,0.54564 1.34974,0.54564 z"
           style="font-size:14px;font-family:'Fira Code SemiBold';text-anchor:middle"
           id="path119" />
        <path
           d="m 118.66665,-170.40308 v 5.26974 q 0,0.61744 0.2441,0.86872 0.2441,0.25128 0.71077,0.25128 0.44513,0 0.86872,-0.26564 0.42359,-0.27282 0.68923,-0.68923 v -5.43487 h 1.89538 V -162.8 h -1.65128 l -0.10051,-0.93334 q -0.40923,0.56 -1.04821,0.85436 -0.63897,0.29436 -1.32102,0.29436 -1.09847,0 -1.64411,-0.61743 -0.53846,-0.62462 -0.53846,-1.70154 v -5.49949 z"
           style="font-size:14px;font-family:'Fira Code SemiBold';text-anchor:middle"
           id="path121" />
      </g>
    </g>
    <!-- cu&#45;&gt;obj -->
    <g
       id="edge2"
       class="edge">
      <title
         id="title34">cu-&gt;obj</title>
      <path
         fill="none"
         stroke="#696969"
         d="m 107,-148.31 c 0,8.02 0,17.76 0,26.74"
         id="path36" />
      <path
         id="polygon38"
         style="fill:#696969;stroke:#696969"
         d="m 110.5,-121.53 -3.5,10 -3.5,-10 z" />
    </g>
    <!-- rdc -->
    <g
       id="node3"
       class="node">
      <title
         id="title41">rdc</title>
      <path
         id="polygon43"
         style="fill:#b0e2ff;stroke:#b0e2ff"
         d="m 152,-148.5 v -36 h 62 v 36 z" />
      <g
         aria-label="*.rdc"
         id="text45"
         style="font-size:14px;font-family:'Fira Code SemiBold';text-anchor:middle">
        <path
           d="m 164.85749,-171.2359 h 1.82359 l -0.22975,2.77846 2.56308,-1.07692 0.56,1.72307 -2.71385,0.63898 1.81641,2.11795 -1.45743,1.05538 -1.45026,-2.36923 -1.45025,2.36923 -1.45744,-1.05538 1.81641,-2.11795 -2.71385,-0.63898 0.56,-1.72307 2.56308,1.07692 z"
           style="font-size:14px;font-family:'Fira Code SemiBold';text-anchor:middle"
           id="path126" />
        <path
           d="m 172.89849,-164.07077 q 0,-0.60308 0.43077,-1.04103 0.43077,-0.43795 1.04821,-0.43795 0.62461,0 1.05538,0.43795 0.43077,0.43795 0.43077,1.04103 0,0.61025 -0.43077,1.0482 -0.43077,0.43795 -1.05538,0.43795 -0.61744,0 -1.04821,-0.43795 -0.43077,-0.43795 -0.43077,-1.0482 z"
           style="font-size:14px;font-family:'Fira Code SemiBold';text-anchor:middle"
           id="path128" />
        <path
           d="m 179.92001,-162.8 v -1.31385 h 1.06974 v -4.98256 h -1.06974 v -1.30667 h 2.51282 l 0.3518,1.74462 q 0.41641,-0.96206 1.0482,-1.45744 0.6318,-0.49539 1.58667,-0.49539 0.36615,0 0.64615,0.0574 0.28,0.0574 0.54564,0.15077 l -0.33743,2.96513 h -1.26359 v -1.48616 q -0.73949,0.0646 -1.27795,0.67488 -0.53846,0.60307 -0.84718,1.59384 v 2.54154 h 1.51487 V -162.8 Z"
           style="font-size:14px;font-family:'Fira Code SemiBold';text-anchor:middle"
           id="path130" />
        <path
           d="m 192.87178,-173.64103 1.89539,0.20103 v 10.64 h -1.68 l -0.11487,-0.89744 q -0.3518,0.50257 -0.88308,0.81128 -0.53128,0.30154 -1.23487,0.30154 -0.96205,0 -1.59385,-0.50256 -0.62461,-0.50257 -0.93333,-1.40718 -0.30154,-0.9118 -0.30154,-2.11795 0,-1.1559 0.35898,-2.06051 0.36615,-0.9118 1.04102,-1.42872 0.67487,-0.51692 1.60821,-0.51692 1.11282,0 1.83794,0.7682 z m -1.3282,4.43692 q -0.71795,0 -1.13436,0.62462 -0.40923,0.61744 -0.40923,1.97436 0,1.4359 0.38051,2.01743 0.38052,0.58154 1.02667,0.58154 0.47385,0 0.83282,-0.28 0.35897,-0.28718 0.63179,-0.71077 v -3.46051 q -0.26564,-0.35179 -0.59589,-0.54564 -0.32308,-0.20103 -0.73231,-0.20103 z"
           style="font-size:14px;font-family:'Fira Code SemiBold';text-anchor:middle"
           id="path132" />
        <path
           d="m 200.90561,-164.10667 q 0.50256,0 0.94051,-0.18667 0.43795,-0.18666 0.85436,-0.47384 l 0.86154,1.21333 q -0.50256,0.42359 -1.21333,0.69641 -0.71077,0.27282 -1.52205,0.27282 -1.19898,0 -2.05334,-0.49538 -0.84718,-0.49539 -1.29948,-1.39282 -0.45231,-0.89744 -0.45231,-2.08205 0,-1.17026 0.45948,-2.08924 0.46667,-0.91897 1.32103,-1.44307 0.86154,-0.53128 2.05333,-0.53128 0.81847,0 1.47898,0.23692 0.66769,0.22974 1.22051,0.68923 l -0.84,1.16308 q -0.42359,-0.28718 -0.8759,-0.44513 -0.4523,-0.15795 -0.92615,-0.15795 -0.84,0 -1.37128,0.61026 -0.5241,0.60307 -0.5241,1.96718 0,1.34974 0.53846,1.90256 0.53846,0.54564 1.34974,0.54564 z"
           style="font-size:14px;font-family:'Fira Code SemiBold';text-anchor:middle"
           id="path134" />
      </g>
    </g>
    <!-- rdc&#45;&gt;obj -->
    <g
       id="edge3"
       class="edge">
      <title
         id="title48">rdc-&gt;obj</title>
      <path
         fill="none"
         stroke="#696969"
         d="m 164.6,-148.31 c -9.61,8.98 -21.53,20.12 -32.03,29.92"
         id="path50" />
      <path
         id="polygon52"
         style="fill:#696969;stroke:#696969"
         d="m 134.92,-115.8 -9.69,4.27 4.92,-9.38 z" />
    </g>
    <!-- libmerlin -->
    <g
       id="node5"
       class="node">
      <title
         id="title55">libmerlin</title>
      <path
         id="polygon57"
         style="fill:#1e90ff;stroke:#1e90ff"
         d="m 8.5,-0.5 v -38 h 197 v 38 z" />
      <g
         aria-label="libmerlin.a (Linux)"
         id="text59"
         style="font-size:14px;font-family:'Fira Code SemiBold';text-anchor:middle">
        <path
           d="m 29.9284,-33.939999 v 8.428718 q 0,0.495384 0.294359,0.703589 0.294359,0.208206 0.782564,0.208206 0.308718,0 0.595898,-0.06462 0.287179,-0.0718 0.545641,-0.172307 l 0.466666,1.292307 q -0.358974,0.186667 -0.875897,0.323077 -0.509744,0.13641 -1.184615,0.13641 -1.242052,0 -1.881026,-0.710769 -0.638974,-0.710769 -0.638974,-1.916923 v -6.885128 h -2.275898 v -1.342564 z"
           style="font-size:14px;font-family:'Fira Code SemiBold';text-anchor:middle"
           id="path139" />
        <path
           d="m 38.069918,-34.736922 q 0.516923,0 0.84718,0.323077 0.330256,0.323077 0.330256,0.804102 0,0.481026 -0.330256,0.811282 -0.330257,0.323077 -0.84718,0.323077 -0.524102,0 -0.854359,-0.323077 -0.330256,-0.330256 -0.330256,-0.811282 0,-0.481025 0.330256,-0.804102 0.330257,-0.323077 0.854359,-0.323077 z m 1.227692,3.833846 v 6.260513 h 2.003077 v 1.342564 h -6.124102 v -1.342564 h 2.225641 v -4.917949 H 35.24838 v -1.342564 z"
           style="font-size:14px;font-family:'Fira Code SemiBold';text-anchor:middle"
           id="path141" />
        <path
           d="m 45.436051,-30.048717 q 0.380513,-0.495385 0.897436,-0.782564 0.524103,-0.28718 1.12718,-0.28718 1.486154,0 2.153846,1.091282 0.667692,1.084103 0.667692,2.907693 0,1.170256 -0.344615,2.082051 -0.344615,0.911795 -1.026667,1.435897 -0.674872,0.516923 -1.658461,0.516923 -1.242052,0 -1.945641,-0.940512 l -0.08615,0.725128 h -1.68 v -10.64 l 1.895384,-0.201026 z m 1.328206,5.549743 q 0.725128,0 1.134359,-0.617435 0.40923,-0.617436 0.40923,-1.981539 0,-1.443077 -0.373333,-2.017436 -0.373333,-0.581538 -1.026667,-0.581538 -0.473846,0 -0.84,0.287179 -0.358974,0.28718 -0.631795,0.710769 v 3.403077 q 0.244103,0.380513 0.574359,0.588718 0.330257,0.208205 0.753847,0.208205 z"
           style="font-size:14px;font-family:'Fira Code SemiBold';text-anchor:middle"
           id="path143" />
        <path
           d="m 57.562185,-31.118461 q 0.717949,0 1.134359,0.481026 0.41641,0.473846 0.41641,1.701538 v 5.635898 h -1.651282 v -5.398975 q 0,-0.509743 -0.07897,-0.725128 -0.07897,-0.222564 -0.373334,-0.222564 -0.236923,0 -0.481025,0.14359 -0.244103,0.13641 -0.495385,0.495384 v 5.707693 H 54.60424 v -5.398975 q 0,-0.509743 -0.07897,-0.725128 -0.07897,-0.222564 -0.373334,-0.222564 -0.236923,0 -0.481025,0.14359 -0.244103,0.13641 -0.495385,0.495384 v 5.707693 h -1.67282 v -7.603077 h 1.414359 l 0.122051,0.789743 q 0.337436,-0.466666 0.710769,-0.732307 0.373333,-0.272821 0.897436,-0.272821 0.430769,0 0.761026,0.215385 0.337436,0.208205 0.481025,0.717949 0.330257,-0.416411 0.732308,-0.674872 0.409231,-0.258462 0.940513,-0.258462 z"
           style="font-size:14px;font-family:'Fira Code SemiBold';text-anchor:middle"
           id="path145" />
        <path
           d="m 62.38678,-26.523589 q 0.08615,1.069744 0.631795,1.54359 0.545641,0.473846 1.328205,0.473846 0.545641,0 1.026666,-0.172308 0.481026,-0.172307 0.947693,-0.481025 l 0.789743,1.084102 q -0.531282,0.445128 -1.270769,0.717949 -0.732308,0.27282 -1.615385,0.27282 -1.234871,0 -2.082051,-0.509743 -0.84,-0.509744 -1.270769,-1.414359 -0.430769,-0.904616 -0.430769,-2.082051 0,-1.134359 0.41641,-2.046154 0.42359,-0.911795 1.220513,-1.443077 0.804102,-0.538462 1.931282,-0.538462 1.565128,0 2.484102,1.019487 0.918975,1.019488 0.918975,2.821539 0,0.41641 -0.0359,0.753846 z m 1.629743,-3.259487 q -0.689231,0 -1.134359,0.495384 -0.437948,0.495385 -0.516923,1.55077 h 3.202051 q -0.01436,-0.962052 -0.394871,-1.500513 -0.380513,-0.545641 -1.155898,-0.545641 z"
           style="font-size:14px;font-family:'Fira Code SemiBold';text-anchor:middle"
           id="path147" />
        <path
           d="m 69.458554,-23.299999 v -1.313846 h 1.069744 v -4.982564 h -1.069744 v -1.306667 h 2.51282 l 0.351795,1.744615 q 0.416411,-0.962051 1.048205,-1.457436 0.631795,-0.495384 1.586667,-0.495384 0.366154,0 0.646154,0.05744 0.28,0.05744 0.545641,0.150769 l -0.337436,2.965128 h -1.26359 v -1.486154 q -0.739487,0.06462 -1.277948,0.674872 -0.538462,0.603077 -0.84718,1.593846 v 2.541539 h 1.514872 v 1.313846 z"
           style="font-size:14px;font-family:'Fira Code SemiBold';text-anchor:middle"
           id="path149" />
        <path
           d="m 81.620585,-33.939999 v 8.428718 q 0,0.495384 0.294359,0.703589 0.294359,0.208206 0.782564,0.208206 0.308718,0 0.595897,-0.06462 0.28718,-0.0718 0.545641,-0.172307 l 0.466667,1.292307 q -0.358974,0.186667 -0.875898,0.323077 -0.509743,0.13641 -1.184615,0.13641 -1.242051,0 -1.881026,-0.710769 -0.638974,-0.710769 -0.638974,-1.916923 v -6.885128 h -2.275897 v -1.342564 z"
           style="font-size:14px;font-family:'Fira Code SemiBold';text-anchor:middle"
           id="path151" />
        <path
           d="m 89.762103,-34.736922 q 0.516923,0 0.847179,0.323077 0.330257,0.323077 0.330257,0.804102 0,0.481026 -0.330257,0.811282 -0.330256,0.323077 -0.847179,0.323077 -0.524103,0 -0.854359,-0.323077 -0.330257,-0.330256 -0.330257,-0.811282 0,-0.481025 0.330257,-0.804102 0.330256,-0.323077 0.854359,-0.323077 z m 1.227692,3.833846 v 6.260513 h 2.003077 v 1.342564 h -6.124103 v -1.342564 h 2.225641 v -4.917949 h -2.153846 v -1.342564 z"
           style="font-size:14px;font-family:'Fira Code SemiBold';text-anchor:middle"
           id="path153" />
        <path
           d="m 95.232851,-23.299999 v -7.603077 h 1.651282 l 0.136411,0.940513 q 0.983589,-1.155898 2.412307,-1.155898 1.019489,0 1.557949,0.595898 0.54564,0.588718 0.54564,1.658461 v 5.564103 h -1.895384 v -4.824616 q 0,-0.861538 -0.179487,-1.220512 -0.172307,-0.358975 -0.746666,-0.358975 -0.466667,0 -0.868718,0.294359 -0.402052,0.294359 -0.717949,0.717949 v 5.391795 z"
           style="font-size:14px;font-family:'Fira Code SemiBold';text-anchor:middle"
           id="path155" />
        <path
           d="m 105.51386,-24.570768 q 0,-0.603077 0.43077,-1.041026 0.43076,-0.437949 1.0482,-0.437949 0.62462,0 1.05539,0.437949 0.43076,0.437949 0.43076,1.041026 0,0.610256 -0.43076,1.048205 -0.43077,0.437948 -1.05539,0.437948 -0.61744,0 -1.0482,-0.437948 -0.43077,-0.437949 -0.43077,-1.048205 z"
           style="font-size:14px;font-family:'Fira Code SemiBold';text-anchor:middle"
           id="path157" />
        <path
           d="m 118.53025,-25.303076 q 0,0.437949 0.12923,0.638974 0.12923,0.201026 0.41641,0.294359 l -0.40923,1.270769 q -0.60308,-0.06462 -1.03385,-0.301538 -0.43077,-0.244103 -0.66051,-0.725128 -0.43077,0.524102 -1.09128,0.782564 -0.65334,0.258461 -1.37129,0.258461 -1.16307,0 -1.84512,-0.660512 -0.68206,-0.660513 -0.68206,-1.715898 0,-1.213333 0.9477,-1.866667 0.95487,-0.660512 2.69948,-0.660512 h 1.06257 v -0.409231 q 0,-0.674872 -0.42359,-0.97641 -0.41641,-0.308718 -1.1918,-0.308718 -0.36615,0 -0.91897,0.100512 -0.55282,0.09333 -1.12718,0.294359 l -0.45231,-1.299487 q 0.72513,-0.27282 1.45744,-0.402051 0.73948,-0.129231 1.34256,-0.129231 1.60103,0 2.37641,0.682052 0.77539,0.674871 0.77539,1.916923 z m -3.40308,0.847179 q 0.43077,0 0.86872,-0.236923 0.43795,-0.244102 0.69641,-0.689231 v -1.478974 h -0.74667 q -1.05538,0 -1.52923,0.337436 -0.46667,0.337436 -0.46667,0.954872 0,1.11282 1.17744,1.11282 z"
           style="font-size:14px;font-family:'Fira Code SemiBold';text-anchor:middle"
           id="path159" />
        <path
           d="m 132.03482,-28.32564 q 0,1.292307 0.28,2.297436 0.28718,1.005128 0.9118,1.931282 0.62461,0.918974 1.65846,1.967179 l -1.07693,1.005128 q -1.14871,-0.96923 -1.98153,-2.024615 -0.82565,-1.055385 -1.27795,-2.318974 -0.44513,-1.26359 -0.44513,-2.857436 0,-1.593846 0.44513,-2.857436 0.4523,-1.26359 1.27795,-2.318975 0.83282,-1.055384 1.98153,-2.024615 l 1.07693,1.005128 q -0.99077,1.005129 -1.62257,1.931282 -0.62461,0.926154 -0.92615,1.945641 -0.30154,1.019488 -0.30154,2.318975 z"
           style="font-size:14px;font-family:'Fira Code SemiBold';text-anchor:middle"
           id="path161" />
        <path
           d="m 138.70454,-23.299999 v -9.929231 h 1.96718 v 8.335385 h 4.37949 l -0.2082,1.593846 z"
           style="font-size:14px;font-family:'Fira Code SemiBold';text-anchor:middle"
           id="path163" />
        <path
           d="m 150.06965,-34.736922 q 0.51692,0 0.84718,0.323077 0.33026,0.323077 0.33026,0.804102 0,0.481026 -0.33026,0.811282 -0.33026,0.323077 -0.84718,0.323077 -0.5241,0 -0.85436,-0.323077 -0.33025,-0.330256 -0.33025,-0.811282 0,-0.481025 0.33025,-0.804102 0.33026,-0.323077 0.85436,-0.323077 z m 1.22769,3.833846 v 6.260513 h 2.00308 v 1.342564 h -6.1241 v -1.342564 h 2.22564 v -4.917949 h -2.15385 v -1.342564 z"
           style="font-size:14px;font-family:'Fira Code SemiBold';text-anchor:middle"
           id="path165" />
        <path
           d="m 155.54041,-23.299999 v -7.603077 h 1.65128 l 0.13641,0.940513 q 0.98359,-1.155898 2.41231,-1.155898 1.01948,0 1.55795,0.595898 0.54564,0.588718 0.54564,1.658461 v 5.564103 h -1.89539 v -4.824616 q 0,-0.861538 -0.17948,-1.220512 -0.17231,-0.358975 -0.74667,-0.358975 -0.46667,0 -0.86872,0.294359 -0.40205,0.294359 -0.71795,0.717949 v 5.391795 z"
           style="font-size:14px;font-family:'Fira Code SemiBold';text-anchor:middle"
           id="path167" />
        <path
           d="m 166.05115,-30.903076 v 5.269743 q 0,0.617436 0.2441,0.868718 0.2441,0.251282 0.71077,0.251282 0.44513,0 0.86872,-0.265641 0.42359,-0.27282 0.68923,-0.68923 v -5.434872 h 1.89538 v 7.603077 h -1.65128 l -0.10051,-0.933334 q -0.40923,0.56 -1.04821,0.854359 -0.63897,0.294359 -1.32102,0.294359 -1.09846,0 -1.6441,-0.617436 -0.53847,-0.624615 -0.53847,-1.701538 v -5.499487 z"
           style="font-size:14px;font-family:'Fira Code SemiBold';text-anchor:middle"
           id="path169" />
        <path
           d="m 174.1783,-23.299999 h -2.07487 l 2.67077,-3.998975 -2.39795,-3.604102 h 2.15384 l 1.40718,2.570256 1.38565,-2.570256 h 2.05333 l -2.3118,3.525128 2.67795,4.077949 h -2.18256 l -1.70872,-2.986667 z"
           style="font-size:14px;font-family:'Fira Code SemiBold';text-anchor:middle"
           id="path171" />
        <path
           d="m 185.34957,-28.32564 q 0,-1.299487 -0.30154,-2.318975 -0.30154,-1.019487 -0.93333,-1.945641 -0.62462,-0.926153 -1.61539,-1.931282 l 1.07693,-1.005128 q 1.14871,0.969231 1.97435,2.024615 0.83283,1.055385 1.27795,2.318975 0.45231,1.26359 0.45231,2.857436 0,1.593846 -0.45231,2.857436 -0.44512,1.263589 -1.27795,2.318974 -0.82564,1.055385 -1.97435,2.024615 l -1.07693,-1.005128 q 1.03385,-1.048205 1.65846,-1.967179 0.62462,-0.926154 0.90462,-1.931282 0.28718,-1.005129 0.28718,-2.297436 z"
           style="font-size:14px;font-family:'Fira Code SemiBold';text-anchor:middle"
           id="path173" />
      </g>
      <g
         aria-label="merlin.lib (Windows)"
         id="text61"
         style="font-size:14px;font-family:'Fira Code SemiBold';text-anchor:middle">
        <path
           d="m 27.408411,-16.118462 q 0.717948,0 1.134359,0.481026 0.41641,0.473846 0.41641,1.701538 v 5.6358978 h -1.651282 v -5.3989748 q 0,-0.509743 -0.07897,-0.725128 -0.07897,-0.222564 -0.373333,-0.222564 -0.236923,0 -0.481026,0.14359 -0.244102,0.13641 -0.495384,0.495385 v 5.7076918 h -1.428718 v -5.3989748 q 0,-0.509743 -0.07898,-0.725128 -0.07897,-0.222564 -0.373333,-0.222564 -0.236923,0 -0.481026,0.14359 -0.244102,0.13641 -0.495384,0.495385 v 5.7076918 h -1.672821 v -7.6030768 h 1.414359 l 0.122052,0.789743 q 0.337436,-0.466666 0.710769,-0.732307 0.373333,-0.272821 0.897436,-0.272821 0.430769,0 0.761025,0.215385 0.337436,0.208205 0.481026,0.717949 0.330256,-0.416411 0.732308,-0.674872 0.40923,-0.258462 0.940513,-0.258462 z"
           style="font-size:14px;font-family:'Fira Code SemiBold';text-anchor:middle"
           id="path176" />
        <path
           d="m 32.233005,-11.52359 q 0.08615,1.069744 0.631795,1.5435898 0.545641,0.4738462 1.328205,0.4738462 0.545641,0 1.026667,-0.1723077 0.481026,-0.1723077 0.947692,-0.4810253 l 0.789744,1.0841022 q -0.531282,0.4451282 -1.270769,0.7179487 -0.732308,0.2728205 -1.615385,0.2728205 -1.234872,0 -2.082051,-0.5097436 -0.84,-0.5097436 -1.270769,-1.4143588 -0.43077,-0.904616 -0.43077,-2.082051 0,-1.134359 0.416411,-2.046154 0.423589,-0.911795 1.220512,-1.443077 0.804103,-0.538462 1.931282,-0.538462 1.565129,0 2.484103,1.019487 0.918974,1.019488 0.918974,2.821539 0,0.41641 -0.0359,0.753846 z m 1.629744,-3.259487 q -0.689231,0 -1.134359,0.495385 -0.437949,0.495384 -0.516923,1.550769 h 3.202051 q -0.01436,-0.962052 -0.394872,-1.500513 -0.380512,-0.545641 -1.155897,-0.545641 z"
           style="font-size:14px;font-family:'Fira Code SemiBold';text-anchor:middle"
           id="path178" />
        <path
           d="m 39.30478,-8.3000002 v -1.3138461 h 1.069743 V -14.59641 H 39.30478 v -1.306667 h 2.51282 l 0.351795,1.744615 q 0.41641,-0.962051 1.048205,-1.457436 0.631795,-0.495384 1.586667,-0.495384 0.366154,0 0.646154,0.05744 0.28,0.05744 0.545641,0.150769 l -0.337436,2.965128 h -1.26359 v -1.486154 q -0.739487,0.06462 -1.277949,0.674872 -0.538461,0.603077 -0.847179,1.593846 v 2.5415387 h 1.514872 v 1.3138461 z"
           style="font-size:14px;font-family:'Fira Code SemiBold';text-anchor:middle"
           id="path180" />
        <path
           d="m 51.46681,-18.94 v 8.428718 q 0,0.495384 0.294359,0.7035895 0.294359,0.2082051 0.782565,0.2082051 0.308717,0 0.595897,-0.064615 0.287179,-0.071795 0.545641,-0.1723076 l 0.466667,1.2923076 q -0.358975,0.1866667 -0.875898,0.323077 -0.509743,0.1364102 -1.184615,0.1364102 -1.242051,0 -1.881026,-0.7107692 -0.638974,-0.7107692 -0.638974,-1.9169236 v -6.885128 H 47.295528 V -18.94 Z"
           style="font-size:14px;font-family:'Fira Code SemiBold';text-anchor:middle"
           id="path182" />
        <path
           d="m 59.608328,-19.736923 q 0.516923,0 0.84718,0.323077 0.330256,0.323077 0.330256,0.804102 0,0.481026 -0.330256,0.811282 -0.330257,0.323077 -0.84718,0.323077 -0.524102,0 -0.854359,-0.323077 -0.330256,-0.330256 -0.330256,-0.811282 0,-0.481025 0.330256,-0.804102 0.330257,-0.323077 0.854359,-0.323077 z m 1.227693,3.833846 v 6.2605127 h 2.003077 v 1.3425641 h -6.124103 v -1.3425641 h 2.225641 V -14.560513 H 56.78679 v -1.342564 z"
           style="font-size:14px;font-family:'Fira Code SemiBold';text-anchor:middle"
           id="path184" />
        <path
           d="m 65.079077,-8.3000002 v -7.6030768 h 1.651282 l 0.13641,0.940513 q 0.98359,-1.155898 2.412308,-1.155898 1.019487,0 1.557949,0.595898 0.545641,0.588718 0.545641,1.658461 v 5.5641028 h -1.895385 v -4.8246158 q 0,-0.861538 -0.179487,-1.220512 -0.172308,-0.358975 -0.746667,-0.358975 -0.466666,0 -0.868718,0.294359 -0.402051,0.294359 -0.717948,0.717949 v 5.3917948 z"
           style="font-size:14px;font-family:'Fira Code SemiBold';text-anchor:middle"
           id="path186" />
        <path
           d="m 75.360082,-9.5707694 q 0,-0.6030766 0.430769,-1.0410256 0.43077,-0.437949 1.048206,-0.437949 0.624615,0 1.055384,0.437949 0.430769,0.437949 0.430769,1.0410256 0,0.6102564 -0.430769,1.0482051 -0.430769,0.4379487 -1.055384,0.4379487 -0.617436,0 -1.048206,-0.4379487 -0.430769,-0.4379487 -0.430769,-1.0482051 z"
           style="font-size:14px;font-family:'Fira Code SemiBold';text-anchor:middle"
           id="path188" />
        <path
           d="m 85.928267,-18.94 v 8.428718 q 0,0.495384 0.294359,0.7035895 0.294359,0.2082051 0.782564,0.2082051 0.308718,0 0.595897,-0.064615 0.28718,-0.071795 0.545641,-0.1723076 l 0.466667,1.2923076 q -0.358974,0.1866667 -0.875897,0.323077 -0.509744,0.1364102 -1.184616,0.1364102 -1.242051,0 -1.881026,-0.7107692 -0.638974,-0.7107692 -0.638974,-1.9169236 v -6.885128 H 81.756985 V -18.94 Z"
           style="font-size:14px;font-family:'Fira Code SemiBold';text-anchor:middle"
           id="path190" />
        <path
           d="m 94.069785,-19.736923 q 0.516923,0 0.847179,0.323077 0.330257,0.323077 0.330257,0.804102 0,0.481026 -0.330257,0.811282 -0.330256,0.323077 -0.847179,0.323077 -0.524103,0 -0.854359,-0.323077 -0.330257,-0.330256 -0.330257,-0.811282 0,-0.481025 0.330257,-0.804102 0.330256,-0.323077 0.854359,-0.323077 z m 1.227692,3.833846 v 6.2605127 h 2.003077 v 1.3425641 h -6.124103 v -1.3425641 h 2.225641 v -4.9179487 h -2.153846 v -1.342564 z"
           style="font-size:14px;font-family:'Fira Code SemiBold';text-anchor:middle"
           id="path192" />
        <path
           d="m 101.43592,-15.048718 q 0.38051,-0.495385 0.89743,-0.782564 0.52411,-0.28718 1.12718,-0.28718 1.48616,0 2.15385,1.091282 0.66769,1.084103 0.66769,2.907693 0,1.170256 -0.34461,2.082051 -0.34462,0.9117948 -1.02667,1.4358973 -0.67487,0.5169231 -1.65846,0.5169231 -1.24205,0 -1.94564,-0.9405128 l -0.0862,0.7251282 H 99.540533 V -18.94 l 1.895387,-0.201026 z m 1.3282,5.5497435 q 0.72513,0 1.13436,-0.6174355 0.40923,-0.617436 0.40923,-1.981539 0,-1.443077 -0.37333,-2.017436 -0.37333,-0.581538 -1.02667,-0.581538 -0.47384,0 -0.84,0.287179 -0.35897,0.28718 -0.63179,0.710769 v 3.403077 q 0.2441,0.3805132 0.57436,0.5887183 0.33025,0.2082052 0.75384,0.2082052 z"
           style="font-size:14px;font-family:'Fira Code SemiBold';text-anchor:middle"
           id="path194" />
        <path
           d="m 119.11177,-13.325641 q 0,1.292307 0.28,2.297436 0.28718,1.005128 0.9118,1.9312817 0.62461,0.9189744 1.65846,1.9671795 l -1.07692,1.0051282 q -1.14872,-0.9692307 -1.98154,-2.0246154 -0.82564,-1.0553846 -1.27795,-2.318974 -0.44513,-1.26359 -0.44513,-2.857436 0,-1.593846 0.44513,-2.857436 0.45231,-1.26359 1.27795,-2.318974 0.83282,-1.055385 1.98154,-2.024616 l 1.07692,1.005128 q -0.99077,1.005129 -1.62256,1.931282 -0.62462,0.926154 -0.92616,1.945641 -0.30154,1.019488 -0.30154,2.318975 z"
           style="font-size:14px;font-family:'Fira Code SemiBold';text-anchor:middle"
           id="path196" />
        <path
           d="m 132.85329,-18.229231 -1.28513,9.9292308 h -2.16102 l -0.86872,-7.2369228 -0.91897,7.2369228 h -2.20411 l -1.19179,-9.9292308 h 1.87384 l 0.58872,8.141539 0.9477,-6.992821 h 1.8523 l 0.89744,6.992821 0.73231,-8.141539 z"
           style="font-size:14px;font-family:'Fira Code SemiBold';text-anchor:middle"
           id="path198" />
        <path
           d="m 137.14661,-19.736923 q 0.51692,0 0.84717,0.323077 0.33026,0.323077 0.33026,0.804102 0,0.481026 -0.33026,0.811282 -0.33025,0.323077 -0.84717,0.323077 -0.52411,0 -0.85436,-0.323077 -0.33026,-0.330256 -0.33026,-0.811282 0,-0.481025 0.33026,-0.804102 0.33025,-0.323077 0.85436,-0.323077 z m 1.22769,3.833846 v 6.2605127 h 2.00307 v 1.3425641 h -6.1241 v -1.3425641 h 2.22564 v -4.9179487 h -2.15384 v -1.342564 z"
           style="font-size:14px;font-family:'Fira Code SemiBold';text-anchor:middle"
           id="path200" />
        <path
           d="m 142.61735,-8.3000002 v -7.6030768 h 1.65129 l 0.13641,0.940513 q 0.98359,-1.155898 2.4123,-1.155898 1.01949,0 1.55795,0.595898 0.54564,0.588718 0.54564,1.658461 v 5.5641028 h -1.89538 v -4.8246158 q 0,-0.861538 -0.17949,-1.220512 -0.17231,-0.358975 -0.74666,-0.358975 -0.46667,0 -0.86872,0.294359 -0.40205,0.294359 -0.71795,0.717949 v 5.3917948 z"
           style="font-size:14px;font-family:'Fira Code SemiBold';text-anchor:middle"
           id="path202" />
        <path
           d="m 155.64093,-19.141026 1.89539,0.201026 v 10.6399998 h -1.68 l -0.11488,-0.8974359 q -0.35179,0.5025641 -0.88307,0.8112821 -0.53129,0.3015384 -1.23488,0.3015384 -0.96205,0 -1.59384,-0.5025641 -0.62462,-0.5025641 -0.93333,-1.4071795 -0.30154,-0.9117948 -0.30154,-2.1179488 0,-1.155897 0.35897,-2.060513 0.36615,-0.911795 1.04103,-1.428718 0.67487,-0.516923 1.6082,-0.516923 1.11282,0 1.83795,0.768205 z m -1.3282,4.436923 q -0.71795,0 -1.13436,0.624616 -0.40923,0.617436 -0.40923,1.974359 0,1.435897 0.38051,2.017436 0.38051,0.581538 1.02667,0.581538 0.47384,0 0.83282,-0.28 0.35897,-0.28718 0.63179,-0.710769 v -3.460513 q -0.26564,-0.351795 -0.5959,-0.545641 -0.32307,-0.201026 -0.7323,-0.201026 z"
           style="font-size:14px;font-family:'Fira Code SemiBold';text-anchor:middle"
           id="path204" />
        <path
           d="m 163.00706,-16.118462 q 1.13436,0 1.9241,0.495385 0.78974,0.495385 1.19897,1.4 0.41641,0.897436 0.41641,2.10359 0,1.852307 -0.92615,2.9435894 -0.92615,1.091282 -2.62051,1.091282 -1.69436,0 -2.62052,-1.0697436 -0.92615,-1.0769228 -0.92615,-2.9507688 0,-1.191795 0.41641,-2.096411 0.41641,-0.904615 1.20615,-1.407179 0.79693,-0.509744 1.93129,-0.509744 z m 0,1.428718 q -0.79693,0 -1.1918,0.624616 -0.38769,0.624615 -0.38769,1.96 0,1.349743 0.38769,1.974359 0.38769,0.6174355 1.18462,0.6174355 0.79692,0 1.18461,-0.6174355 0.38769,-0.624616 0.38769,-1.988718 0,-1.328205 -0.38769,-1.945641 -0.38769,-0.624616 -1.17743,-0.624616 z"
           style="font-size:14px;font-family:'Fira Code SemiBold';text-anchor:middle"
           id="path206" />
        <path
           d="m 174.6378,-8.3000002 h -2.22564 l -0.76821,-5.2769228 -0.81846,5.2769228 h -2.18256 l -1.21334,-7.6030768 h 1.78051 l 0.66052,6.4256409 0.94051,-5.4635899 h 1.74462 l 0.86153,5.4635899 0.67488,-6.4256409 h 1.70871 z"
           style="font-size:14px;font-family:'Fira Code SemiBold';text-anchor:middle"
           id="path208" />
        <path
           d="m 179.97214,-9.4846156 q 0.6677,0 1.06975,-0.2297436 0.40923,-0.2297436 0.40923,-0.6605128 0,-0.27282 -0.13641,-0.466667 -0.12923,-0.201025 -0.51693,-0.366153 -0.38769,-0.172308 -1.16307,-0.380513 -0.73231,-0.186667 -1.28513,-0.459487 -0.54564,-0.28 -0.85436,-0.717949 -0.30154,-0.437949 -0.30154,-1.105641 0,-0.990769 0.83282,-1.615385 0.83282,-0.631795 2.32616,-0.631795 0.97641,0 1.70871,0.258462 0.73231,0.251282 1.25641,0.631795 l -0.77538,1.155897 q -0.45949,-0.294359 -0.99795,-0.473846 -0.53128,-0.186667 -1.14872,-0.186667 -0.66769,0 -0.97641,0.193846 -0.30154,0.193847 -0.30154,0.538462 0,0.244103 0.15077,0.41641 0.15795,0.165128 0.56,0.323077 0.40923,0.150769 1.16308,0.366154 0.73949,0.208205 1.28513,0.481026 0.55282,0.27282 0.85436,0.725128 0.30154,0.445128 0.30154,1.177436 0,0.8256408 -0.48103,1.3641023 -0.48103,0.5384616 -1.27077,0.8041026 -0.78974,0.2584615 -1.70154,0.2584615 -1.07692,0 -1.88102,-0.3087179 -0.80411,-0.308718 -1.36411,-0.7969231 l 0.98359,-1.1056414 q 0.44513,0.3517952 1.01231,0.5815388 0.57436,0.2297436 1.24205,0.2297436 z"
           style="font-size:14px;font-family:'Fira Code SemiBold';text-anchor:middle"
           id="path210" />
        <path
           d="m 189.65726,-13.325641 q 0,-1.299487 -0.30154,-2.318975 -0.30154,-1.019487 -0.93333,-1.945641 -0.62462,-0.926153 -1.61539,-1.931282 l 1.07693,-1.005128 q 1.14871,0.969231 1.97435,2.024616 0.83282,1.055384 1.27795,2.318974 0.45231,1.26359 0.45231,2.857436 0,1.593846 -0.45231,2.857436 -0.44513,1.2635894 -1.27795,2.318974 -0.82564,1.0553847 -1.97435,2.0246154 L 186.807,-7.1297438 q 1.03385,-1.0482051 1.65846,-1.9671795 0.62462,-0.9261537 0.90462,-1.9312817 0.28718,-1.005129 0.28718,-2.297436 z"
           style="font-size:14px;font-family:'Fira Code SemiBold';text-anchor:middle"
           id="path212" />
      </g>
    </g>
    <!-- obj&#45;&gt;libmerlin -->
    <g
       id="edge4"
       class="edge">
      <title
         id="title64">obj-&gt;libmerlin</title>
      <path
         fill="none"
         stroke="#27408b"
         d="m 107,-75.44 c 0,7.95 0,17.63 0,26.63"
         id="path66" />
      <path
         id="polygon68"
         style="fill:#27408b;stroke:#27408b"
         d="m 110.5,-48.7 -3.5,10 -3.5,-10 z" />
    </g>
  </g>
</svg>
